<?xml version="1.0" encoding="utf-8"?>
<!-- Generator: Adobe Illustrator 27.5.0, SVG Export Plug-In . SVG Version: 6.00 Build 0)  -->
<svg version="1.1" id="Слой_1" xmlns="http://www.w3.org/2000/svg" xmlns:xlink="http://www.w3.org/1999/xlink" x="0px" y="0px"
	 viewBox="0 0 3065.25 2000" style="enable-background:new 0 0 3065.25 2000;" xml:space="preserve">
<g>
	<rect style="fill:#FAFAFA;" width="3065.25" height="2000"/>
	<g>
		<g>
			<defs>
				<filter id="Adobe_OpacityMaskFilter" filterUnits="userSpaceOnUse" x="1391.787" y="107.16" width="773.088" height="1086.223">
					<feFlood  style="flood-color:white;flood-opacity:1" result="back"/>
					<feBlend  in="SourceGraphic" in2="back" mode="normal"/>
				</filter>
			</defs>
			<mask maskUnits="userSpaceOnUse" x="1391.787" y="107.16" width="773.088" height="1086.223" id="SVGID_1_">
				<g style="filter:url(#Adobe_OpacityMaskFilter);">
					<defs>
						
							<filter id="Adobe_OpacityMaskFilter_00000174591321672120708280000010875722869080276902_" filterUnits="userSpaceOnUse" x="1391.787" y="107.16" width="773.088" height="1086.223">
							<feFlood  style="flood-color:white;flood-opacity:1" result="back"/>
							<feBlend  in="SourceGraphic" in2="back" mode="normal"/>
						</filter>
					</defs>
					<mask maskUnits="userSpaceOnUse" x="1391.787" y="107.16" width="773.088" height="1086.223" id="SVGID_1_">
						<g style="filter:url(#Adobe_OpacityMaskFilter_00000174591321672120708280000010875722869080276902_);">
						</g>
					</mask>
					
						<linearGradient id="SVGID_00000040537224907195646540000014942209177843467424_" gradientUnits="userSpaceOnUse" x1="1613.5962" y1="314.5438" x2="2292.4199" y2="1642.0184">
						<stop  offset="0" style="stop-color:#FFFFFF"/>
						<stop  offset="1" style="stop-color:#000000"/>
					</linearGradient>
					<polygon style="mask:url(#SVGID_1_);fill:url(#SVGID_00000040537224907195646540000014942209177843467424_);" points="
						2127.155,233.13 2164.875,174.555 2060.221,107.16 2022.5,165.736 2001.413,152.156 1975.137,192.96 1953.268,178.877 
						1415.056,1014.654 1436.923,1028.738 1391.787,1098.828 1538.617,1193.383 1583.754,1123.29 1605.621,1137.373 
						2143.834,301.596 2121.967,287.514 2148.242,246.71 					"/>
				</g>
			</mask>
			
				<linearGradient id="SVGID_00000136390288766588607220000008322717722359530377_" gradientUnits="userSpaceOnUse" x1="1613.5962" y1="314.5438" x2="2292.4199" y2="1642.0184">
				<stop  offset="0" style="stop-color:#40D5E6"/>
				<stop  offset="1" style="stop-color:#5577FF"/>
			</linearGradient>
			<polygon style="fill:url(#SVGID_00000136390288766588607220000008322717722359530377_);" points="2127.155,233.13 
				2164.875,174.555 2060.221,107.16 2022.5,165.736 2001.413,152.156 1975.137,192.96 1953.268,178.877 1415.056,1014.654 
				1436.923,1028.738 1391.787,1098.828 1538.617,1193.383 1583.754,1123.29 1605.621,1137.373 2143.834,301.596 2121.967,287.514 
				2148.242,246.71 			"/>
			<defs>
				
					<filter id="Adobe_OpacityMaskFilter_00000044885976442251435800000000311043685879279244_" filterUnits="userSpaceOnUse" x="1321.45" y="791.066" width="816.408" height="1101.754">
					<feFlood  style="flood-color:white;flood-opacity:1" result="back"/>
					<feBlend  in="SourceGraphic" in2="back" mode="normal"/>
				</filter>
			</defs>
			
				<mask maskUnits="userSpaceOnUse" x="1321.45" y="791.066" width="816.408" height="1101.754" id="SVGID_00000034774301263811390550000002966276339794125746_">
				<g style="filter:url(#Adobe_OpacityMaskFilter_00000044885976442251435800000000311043685879279244_);">
					<defs>
						
							<filter id="Adobe_OpacityMaskFilter_00000057127419000978414910000017401313541118084005_" filterUnits="userSpaceOnUse" x="1321.45" y="791.066" width="816.408" height="1101.754">
							<feFlood  style="flood-color:white;flood-opacity:1" result="back"/>
							<feBlend  in="SourceGraphic" in2="back" mode="normal"/>
						</filter>
					</defs>
					
						<mask maskUnits="userSpaceOnUse" x="1321.45" y="791.066" width="816.408" height="1101.754" id="SVGID_00000034774301263811390550000002966276339794125746_">
						<g style="filter:url(#Adobe_OpacityMaskFilter_00000057127419000978414910000017401313541118084005_);">
						</g>
					</mask>
					
						<linearGradient id="SVGID_00000154412926509591421950000001839839209180532670_" gradientUnits="userSpaceOnUse" x1="1210.5479" y1="520.6448" x2="1889.3749" y2="1848.1259">
						<stop  offset="0" style="stop-color:#FFFFFF"/>
						<stop  offset="1" style="stop-color:#000000"/>
					</linearGradient>
					
						<path style="mask:url(#SVGID_00000034774301263811390550000002966276339794125746_);fill:url(#SVGID_00000154412926509591421950000001839839209180532670_);" d="
						M1869.385,1463.215l-3.317,0.533c71.499-66.09,115.498-140.785,131.31-223.572c44.301-231.936-160.355-440.656-168.746-449.109
						l-54.051,83.936c1.684,1.705,161.652,164.918,126.902,346.861c-21.703,113.621-118.951,211.031-289.098,289.791l-60.381-31.623
						l11.611-22.172l-229.901-120.402l-12.265,23.416l119.015,62.33l-55.965,106.861l227.189,118.982l-35.186,106.813h-176.949
						v136.961h738.302v-136.961h-268.473V1463.215z"/>
				</g>
			</mask>
			
				<linearGradient id="SVGID_00000057115328205555318870000013421577683882898619_" gradientUnits="userSpaceOnUse" x1="1210.5479" y1="520.6448" x2="1889.3749" y2="1848.1259">
				<stop  offset="0" style="stop-color:#40D5E6"/>
				<stop  offset="1" style="stop-color:#5577FF"/>
			</linearGradient>
			<path style="fill:url(#SVGID_00000057115328205555318870000013421577683882898619_);" d="M1869.385,1463.215l-3.317,0.533
				c71.499-66.09,115.498-140.785,131.31-223.572c44.301-231.936-160.355-440.656-168.746-449.109l-54.051,83.936
				c1.684,1.705,161.652,164.918,126.902,346.861c-21.703,113.621-118.951,211.031-289.098,289.791l-60.381-31.623l11.611-22.172
				l-229.901-120.402l-12.265,23.416l119.015,62.33l-55.965,106.861l227.189,118.982l-35.186,106.813h-176.949v136.961h738.302
				v-136.961h-268.473V1463.215z"/>
		</g>
		<g>
			<g>
				<g>
					<path style="fill:#40D5E6;" d="M2373.195,575.15c-53.081-8.211-103.43,19.469-126.369,64.981
						c-5.555,11.017-9.501,23.08-11.491,35.938c-6.022,38.945,7.273,76.427,32.757,102.682
						c17.661,18.196,41.174,31.003,68.167,35.178c2.683,0.417,5.37,0.741,8.038,0.976c12.099,1.059,23.982,0.281,35.363-2.125
						c47.743-10.07,86.559-48.696,94.462-99.771C2484.318,647.07,2439.134,585.352,2373.195,575.15z M2444.238,708.387
						c-5.922,38.294-35.024,67.25-70.816,74.804c-8.531,1.8-17.444,2.386-26.515,1.589c-2.003-0.176-4.015-0.418-6.029-0.729
						c-20.236-3.13-37.864-12.733-51.103-26.374c-19.109-19.686-29.08-47.785-24.561-76.982c1.49-9.639,4.451-18.684,8.611-26.946
						c17.192-34.12,54.945-54.876,94.744-48.722C2418.009,612.674,2451.884,658.949,2444.238,708.387z"/>
				</g>
			</g>
			<g>
				<g>
					<path style="fill:#1A598C;" d="M2289.775,757.676l-21.684,21.075c-25.483-26.255-38.779-63.736-32.757-102.682
						c1.99-12.858,5.937-24.921,11.491-35.938l27,13.616c-4.16,8.263-7.121,17.308-8.611,26.946
						C2260.695,709.891,2270.666,737.989,2289.775,757.676z"/>
				</g>
			</g>
			<g>
				<g>
					<path style="fill:#2273B5;" d="M2346.907,784.779l-2.61,30.125c-2.668-0.234-5.355-0.559-8.038-0.976
						c-26.993-4.175-50.506-16.981-68.167-35.178l21.684-21.075c13.238,13.641,30.866,23.244,51.103,26.374
						C2342.893,784.361,2344.904,784.604,2346.907,784.779z"/>
				</g>
			</g>
			<g>
				<g>
					<path style="fill:#3788CC;" d="M2379.66,812.779c-11.381,2.406-23.265,3.184-35.363,2.125l2.61-30.125
						c9.07,0.797,17.983,0.211,26.515-1.589L2379.66,812.779z"/>
				</g>
			</g>
		</g>
		<rect x="2255.816" y="872.779" style="fill:#3788CC;" width="148.115" height="18.637"/>
		<rect x="2255.816" y="912.393" style="fill:#3788CC;" width="171.563" height="18.637"/>
		<g>
			
				<linearGradient id="SVGID_00000008831331265641218990000010306570613689736857_" gradientUnits="userSpaceOnUse" x1="589.691" y1="1503.0762" x2="834.1927" y2="1503.0762">
				<stop  offset="0" style="stop-color:#40D5E6"/>
				<stop  offset="1" style="stop-color:#5577FF"/>
			</linearGradient>
			<path style="fill:url(#SVGID_00000008831331265641218990000010306570613689736857_);" d="M611.054,1179.992
				c21.082-10.084,42.065,57.032,42.065,57.032c35.833,47.352,85.912-15.642,81.015,55.142
				c-8.569,123.859,142.566,38.949,72.841,168.262c-69.725,129.312,61.566,73.117,18.236,177.385
				c-43.331,104.269,12.832,228.629-52.366,177.524c0,0-57.407-125.888-116.61-164.837c-59.203-38.949,35.468-85.164,16.945-138.064
				c-26.905-76.838-91.728-73.82-44.988-156.393C674.931,1273.471,539.387,1214.268,611.054,1179.992z"/>
			<g>
				<path style="fill:#FFFFFF;" d="M793.49,1767.961c-28.26-19.875-61.335-158.379-63.308-240.875
					c-1.011-42.257-13.502-59.862-24.522-75.395c-10.535-14.848-19.633-27.671-14.333-57.113
					c10.128-56.267-16.5-80.555-16.771-80.793l3.082-3.514c1.186,1.037,28.917,26.088,18.289,85.135
					c-4.952,27.511,3.211,39.016,13.544,53.58c10.844,15.283,24.339,34.303,25.383,77.988
					c2.118,88.533,35.932,219.305,61.324,237.163L793.49,1767.961z"/>
			</g>
			<g>
				
					<linearGradient id="SVGID_00000123426825266241755210000002765572307671573140_" gradientUnits="userSpaceOnUse" x1="769.0527" y1="1639.5095" x2="990.1592" y2="1639.5095">
					<stop  offset="0" style="stop-color:#40D5E6"/>
					<stop  offset="1" style="stop-color:#5577FF"/>
				</linearGradient>
				<path style="fill:url(#SVGID_00000123426825266241755210000002765572307671573140_);" d="M804.065,1778.227
					c-3.646,0.002-7.609-0.418-11.95-1.296c-10.892-2.201-18.033-7.948-21.227-17.08c-7.619-21.787,10.032-57.181,24.359-74.241
					c0.237-0.285,24.217-29.59,21.659-70.211c-0.429-6.809-1.135-13.11-1.758-18.671c-1.802-16.075-3.103-27.69,3.801-35.447
					c6.084-6.837,17.831-9.798,39.277-9.897c37.611-0.178,52.482-15.748,64.431-28.262c5.075-5.314,9.868-10.332,15.691-13.513l0,0
					c18.744-10.231,38.597-11.736,47.208-3.575c4.089,3.877,7.542,11.469,0.768,25.63c-6.19,12.94-14.22,21.134-20.672,27.718
					c-8.68,8.857-14.416,14.709-11.43,26.371c0.701,2.738,1.509,5.503,2.32,8.277c5.798,19.832,12.37,42.309-21.57,57.563
					c-7.203,3.236-13.765,5.813-19.555,8.084c-23.692,9.298-37.994,14.911-54.138,48.99c-3.125,6.596-5.884,12.848-8.552,18.895
					C840,1756.408,830.368,1778.225,804.065,1778.227z M940.588,1513.711c-5.186,2.832-9.526,7.375-14.551,12.639
					c-12.56,13.152-28.192,29.521-67.789,29.707c-19.718,0.092-30.762,2.662-35.807,8.331c-5.518,6.2-4.314,16.946-2.647,31.819
					c0.629,5.613,1.342,11.975,1.778,18.896c2.68,42.54-21.701,72.262-22.74,73.508c-14.181,16.885-30.245,50.496-23.53,69.696
					c2.61,7.466,8.579,12.19,17.741,14.042c31.963,6.458,40.789-13.539,55.409-46.675c2.68-6.075,5.452-12.356,8.604-19.011
					c16.937-35.753,32.737-41.953,56.655-51.339c5.74-2.253,12.247-4.807,19.346-7.997c30.228-13.584,24.774-32.238,19.001-51.987
					c-0.826-2.825-1.649-5.642-2.362-8.429c-3.638-14.214,3.537-21.535,12.619-30.803c6.535-6.666,13.939-14.223,19.794-26.463
					c3.069-6.417,5.602-15.133,0.233-20.221C975.278,1502.73,957.327,1504.572,940.588,1513.711L940.588,1513.711z"/>
			</g>
			<g>
				
					<linearGradient id="SVGID_00000100381367057594929890000000674088981293341629_" gradientUnits="userSpaceOnUse" x1="787.9526" y1="1671.6621" x2="953.9082" y2="1671.6621">
					<stop  offset="0" style="stop-color:#40D5E6"/>
					<stop  offset="1" style="stop-color:#5577FF"/>
				</linearGradient>
				<path style="fill:url(#SVGID_00000100381367057594929890000000674088981293341629_);" d="M792.62,1805.208l-4.667-0.244
					c0.23-4.386,6.118-107.748,47.619-137.999c45.531-33.188,59.886-68.854,66.723-92.793c8.057-28.209,49.059-35.748,50.802-36.056
					l0.812,4.603c-0.398,0.071-39.868,7.345-47.119,32.736c-7.027,24.604-21.769,61.25-68.464,95.287
					C798.604,1699.695,792.675,1804.157,792.62,1805.208z"/>
			</g>
			
				<linearGradient id="SVGID_00000103250433219145946140000015142405063824254099_" gradientUnits="userSpaceOnUse" x1="728.0232" y1="1538.1161" x2="921.2943" y2="1538.1161">
				<stop  offset="0" style="stop-color:#40D5E6"/>
				<stop  offset="1" style="stop-color:#5577FF"/>
			</linearGradient>
			<path style="fill:url(#SVGID_00000103250433219145946140000015142405063824254099_);" d="M887.508,1284.301
				c-29.498-10.113-23.37,46.74-35.833,88.805c-12.464,42.065-138.66,18.351-85.689,123.687
				c52.971,105.337-66.993,35.228-31.16,127.147c35.833,91.922,3.116,190.231,42.065,165.225
				c38.949-25.006,21.882-140.759,62.389-154.514c40.507-13.754,47.118-29.795,7.011-67.188
				c-40.107-37.391,105.093-74.512,69.26-150.014C879.719,1341.946,921.588,1295.986,887.508,1284.301z"/>
			<g>
				<path style="fill:#FFFFFF;" d="M794.964,1784.758c-3.71-15.735-35.389-154.217-5.83-170.956
					c26.053-14.753,25.411-72.138,21.346-126.325c-3.597-47.969,58.008-70.387,60.632-71.317l1.563,4.405
					c-0.609,0.217-60.864,22.163-57.534,66.563c4.173,55.649,4.621,114.701-23.705,130.742
					c-22.447,12.711-1.781,124.006,8.077,165.816L794.964,1784.758z"/>
			</g>
			
				<linearGradient id="SVGID_00000181053700248701241890000014301658613018128301_" gradientUnits="userSpaceOnUse" x1="683.6719" y1="1815.3369" x2="862.0186" y2="1815.3369">
				<stop  offset="0" style="stop-color:#FF9340"/>
				<stop  offset="1" style="stop-color:#FFCE45"/>
			</linearGradient>
			<polygon style="fill:url(#SVGID_00000181053700248701241890000014301658613018128301_);" points="862.019,1735.447 
				819.904,1895.227 725.787,1895.227 683.672,1735.447 			"/>
			
				<linearGradient id="SVGID_00000109728847581926620050000004231563889839432880_" gradientUnits="userSpaceOnUse" x1="683.6719" y1="1815.3369" x2="862.0186" y2="1815.3369">
				<stop  offset="0" style="stop-color:#C97332"/>
				<stop  offset="1" style="stop-color:#FFCE45"/>
			</linearGradient>
			<path style="fill:url(#SVGID_00000109728847581926620050000004231563889839432880_);" d="M862.019,1735.447
				c0,0-92.714,17.408-92.714,159.779h-43.517l-42.115-159.779H862.019z"/>
		</g>
		<g>
			<defs>
				
					<filter id="Adobe_OpacityMaskFilter_00000011744684807695867130000013407572917762084234_" filterUnits="userSpaceOnUse" x="1689.678" y="268.56" width="152.215" height="231.98">
					<feFlood  style="flood-color:white;flood-opacity:1" result="back"/>
					<feBlend  in="SourceGraphic" in2="back" mode="normal"/>
				</filter>
			</defs>
			
				<mask maskUnits="userSpaceOnUse" x="1689.678" y="268.56" width="152.215" height="231.98" id="SVGID_00000019663464908162109210000013845995290339801762_">
				<g style="filter:url(#Adobe_OpacityMaskFilter_00000011744684807695867130000013407572917762084234_);">
					<defs>
						
							<filter id="Adobe_OpacityMaskFilter_00000170276330939878357250000005694743759299950734_" filterUnits="userSpaceOnUse" x="1689.678" y="268.56" width="152.215" height="231.98">
							<feFlood  style="flood-color:white;flood-opacity:1" result="back"/>
							<feBlend  in="SourceGraphic" in2="back" mode="normal"/>
						</filter>
					</defs>
					
						<mask maskUnits="userSpaceOnUse" x="1689.678" y="268.56" width="152.215" height="231.98" id="SVGID_00000019663464908162109210000013845995290339801762_">
						<g style="filter:url(#Adobe_OpacityMaskFilter_00000170276330939878357250000005694743759299950734_);">
						</g>
					</mask>
					
						<linearGradient id="SVGID_00000119806217114976697590000001188431164118684830_" gradientUnits="userSpaceOnUse" x1="1821.535" y1="144.0998" x2="1725.1581" y2="559.7764">
						<stop  offset="0" style="stop-color:#FFFFFF"/>
						<stop  offset="1" style="stop-color:#000000"/>
					</linearGradient>
					
						<polygon style="mask:url(#SVGID_00000019663464908162109210000013845995290339801762_);fill:url(#SVGID_00000119806217114976697590000001188431164118684830_);" points="
						1693.312,500.541 1689.678,498.188 1838.258,268.56 1841.893,270.914 					"/>
				</g>
			</mask>
			
				<linearGradient id="SVGID_00000003063660094143856970000006420471994692926867_" gradientUnits="userSpaceOnUse" x1="1821.535" y1="144.0998" x2="1725.1581" y2="559.7764">
				<stop  offset="0" style="stop-color:#40D5E6"/>
				<stop  offset="1" style="stop-color:#5577FF"/>
			</linearGradient>
			<polygon style="fill:url(#SVGID_00000003063660094143856970000006420471994692926867_);" points="1693.312,500.541 
				1689.678,498.188 1838.258,268.56 1841.893,270.914 			"/>
		</g>
		<g>
			<defs>
				
					<filter id="Adobe_OpacityMaskFilter_00000012468865745560545230000011456920616686401687_" filterUnits="userSpaceOnUse" x="1959.14" y="100.205" width="53.847" height="55.023">
					<feFlood  style="flood-color:white;flood-opacity:1" result="back"/>
					<feBlend  in="SourceGraphic" in2="back" mode="normal"/>
				</filter>
			</defs>
			
				<mask maskUnits="userSpaceOnUse" x="1959.14" y="100.205" width="53.847" height="55.023" id="SVGID_00000101797308000164510580000003948540484108315543_">
				<g style="filter:url(#Adobe_OpacityMaskFilter_00000012468865745560545230000011456920616686401687_);">
					<defs>
						
							<filter id="Adobe_OpacityMaskFilter_00000005238968170611135780000011292076295767453614_" filterUnits="userSpaceOnUse" x="1959.14" y="100.205" width="53.847" height="55.023">
							<feFlood  style="flood-color:white;flood-opacity:1" result="back"/>
							<feBlend  in="SourceGraphic" in2="back" mode="normal"/>
						</filter>
					</defs>
					
						<mask maskUnits="userSpaceOnUse" x="1959.14" y="100.205" width="53.847" height="55.023" id="SVGID_00000101797308000164510580000003948540484108315543_">
						<g style="filter:url(#Adobe_OpacityMaskFilter_00000005238968170611135780000011292076295767453614_);">
						</g>
					</mask>
					
						<linearGradient id="SVGID_00000114791660123721793100000002177483263914583701_" gradientUnits="userSpaceOnUse" x1="1975.2279" y1="179.735" x2="1878.8522" y2="595.406">
						<stop  offset="0" style="stop-color:#FFFFFF"/>
						<stop  offset="1" style="stop-color:#000000"/>
					</linearGradient>
					
						<polygon style="mask:url(#SVGID_00000101797308000164510580000003948540484108315543_);fill:url(#SVGID_00000114791660123721793100000002177483263914583701_);" points="
						1962.771,155.229 1959.14,152.873 1993.287,100.205 2012.986,113.133 2010.609,116.752 1994.552,106.213 					"/>
				</g>
			</mask>
			
				<linearGradient id="SVGID_00000163761362546334678590000008021757391698934426_" gradientUnits="userSpaceOnUse" x1="1975.2279" y1="179.735" x2="1878.8522" y2="595.406">
				<stop  offset="0" style="stop-color:#40D5E6"/>
				<stop  offset="1" style="stop-color:#5577FF"/>
			</linearGradient>
			<polygon style="fill:url(#SVGID_00000163761362546334678590000008021757391698934426_);" points="1962.771,155.229 
				1959.14,152.873 1993.287,100.205 2012.986,113.133 2010.609,116.752 1994.552,106.213 			"/>
		</g>
		<g>
			<rect x="1360.144" y="1226.139" style="fill:#706865;" width="14.472" height="657.857"/>
			<rect x="1031.323" y="1226.139" style="fill:#706865;" width="14.472" height="657.857"/>
		</g>
		<path style="fill:#BDAFAA;" d="M1412.886,1775.418H993.053c-15.572,0-28.194-12.623-28.194-28.193V979.502
			c0-15.572,12.622-28.195,28.194-28.195h419.833c15.571,0,28.194,12.623,28.194,28.195v767.723
			C1441.08,1762.795,1428.457,1775.418,1412.886,1775.418z"/>
		<path style="fill:#FFFFFF;" d="M1400.155,1743.218h-394.371c-15.385,0-27.857-12.472-27.857-27.858V992.435
			c0-15.386,12.472-27.858,27.857-27.858h394.371c15.385,0,27.857,12.473,27.857,27.858v722.924
			C1428.012,1730.746,1415.54,1743.218,1400.155,1743.218z"/>
		<rect x="1132.015" y="945.059" style="fill:#706865;" width="141.908" height="32.045"/>
		<g>
			<path style="fill:#B5DEFF;" d="M1166.765,1239.798c-55.035-11.159-97.299-59.846-97.299-119.177
				c0-67.061,54.558-121.619,121.619-121.619v5.455c-64.053,0-116.165,52.111-116.165,116.164
				c0,56.659,40.362,103.172,92.932,113.832c40.979,8.373,84.26-5.935,112.17-39.106c17.553-20.874,27.22-47.411,27.22-74.726
				c0-5.707-0.418-11.442-1.242-17.045l5.396-0.794c0.862,5.864,1.3,11.867,1.3,17.839c0,28.596-10.122,56.381-28.5,78.236
				C1255.076,1233.467,1209.812,1248.598,1166.765,1239.798z"/>
		</g>
		<g>
			<g>
				<g>
					<path style="fill:#EEA886;" d="M964.155,1133.244c0,0,9.015-15.775-5.283-58.057c-13.828-40.892-61.692-37.184-76.904-10.986
						c-15.212,26.198-10.074,42.47,12.322,72.049C916.685,1165.828,954.858,1146.766,964.155,1133.244z"/>
				</g>
			</g>
			<g>
				<g>
					<path style="fill:#81807E;" d="M852.979,1860.688c0,0-2.368,17.364-2.664,19.972c-0.296,2.609-26.348-1.535-26.348-1.535
						l-2.11-20.673C821.857,1858.452,849.723,1858.238,852.979,1860.688z"/>
				</g>
			</g>
			<g>
				<g>
					<path style="fill:#353A3D;" d="M850.592,1878.453c0,0,8.254,10.463,16.237,15.023c7.983,4.561,20.529,6.367,25.249,11.088
						c3.408,3.408,12.412,18.078-20.745,17.781c-33.157-0.295-49.143,2.072-52.696-3.553c-3.552-5.623,5.141-41.516,5.141-41.516
						S831.894,1879.564,850.592,1878.453z"/>
				</g>
			</g>
			<g>
				<g>
					<path style="fill:#81807E;" d="M1033.362,1860.688c0,0-2.368,17.364-2.665,19.972c-0.296,2.609-26.348-1.535-26.348-1.535
						l-2.109-20.673C1002.241,1858.452,1030.105,1858.238,1033.362,1860.688z"/>
				</g>
			</g>
			<g>
				<g>
					<path style="fill:#353A3D;" d="M1030.975,1878.453c0,0,8.253,10.463,16.237,15.023c7.983,4.561,37.362,8.307,42.083,13.027
						c3.408,3.408,9.075,17.125-37.578,15.842c-33.146-0.91-49.143,2.072-52.695-3.553c-3.553-5.623,5.14-41.516,5.14-41.516
						S1014.461,1879.109,1030.975,1878.453z"/>
				</g>
			</g>
			<g>
				<g>
					<path style="fill:#3B3B40;" d="M861.75,1428.324c0,0-13.358,41.51-11.599,77.281c1.759,35.771-6.907,74.914-10.449,112.282
						c-3.949,41.659-20.111,140.28-20.697,162.563c-0.587,22.284-6.196,91.447-6.196,91.447l41.057,2.775
						c0,0,27.172-172.416,34.209-190.008c7.037-17.593,41.935-143.012,43.108-157.086
						C932.356,1513.506,861.75,1428.324,861.75,1428.324z"/>
				</g>
			</g>
			<g>
				<g>
					<path style="fill:#3B3B40;" d="M995.89,1424.002c0,0,19.639,109.752,21.985,131.646c2.346,21.894,3.91,105.951,5.083,119.635
						c1.173,13.684,7.819,179.061,14.074,199.391h-44.12c0,0-28.99-120.225-28.99-177.106s-24.529-123.661-40.362-161.191
						c-15.833-37.53-52.077-38.419-61.81-108.052C861.75,1428.324,982.712,1401.917,995.89,1424.002z"/>
				</g>
			</g>
			<g>
				<g>
					<path style="fill:#EEA886;" d="M951.069,1144.408c0,0-4.07,11.843,0,20.294c4.07,8.452-51.99,3.381-51.99,3.381
						s2.535-17.466-4.789-31.833C886.965,1121.882,951.069,1144.408,951.069,1144.408z"/>
				</g>
			</g>
			<g>
				<g>
					<path style="fill:#EDDAD3;" d="M859.149,1437.367c0,0,20.161,20.71,138.544-3.225l-1.804-10.141l-134.579,5.066
						L859.149,1437.367z"/>
				</g>
			</g>
			<g>
				<g>
					<path style="fill:#DBDFF0;" d="M1138.006,1077.051c-3.602,13.758-14.265,44.514-17.492,54.157
						c-4.003,11.966-13.104,35.246-16.481,38.248c-2.727,2.401-23.438,18.235-47.377,29.642c-5.903,2.802-12.007,5.354-18.085,7.355
						c-30.693,10.154-53.831,25.088-53.831,25.088H842.309c3.677-30.167,14.008-51.805,17.91-59.133
						c10.857-0.701,27.291-2.652,35.521-3.002c10.281-0.4,21.137-4.929,21.137-4.929l3.627,0.251l10.957,0.775l28.091,1.951
						c0,0,20.711,2.102,26.615,3.227c5.929,1.125,45.751-7.129,53.906-7.955c0.975-0.1,2.351-0.525,4.002-1.226
						c12.057-5.053,39.147-23.838,40.148-26.315c1.126-2.801,14.708-55.131,17.385-64.161
						C1102.232,1069.023,1138.382,1075.649,1138.006,1077.051z"/>
				</g>
			</g>
			<g>
				<g>
					<path style="fill:#DBDFF0;" d="M841.033,1255.806c0.002,0.024,0,0.024,0,0.05c4.402,17.71,11.381,56.082,13.083,73.917
						c2.126,21.962-36.321,334.917-36.321,334.917c18.11,14.057,216.424,17.959,215.573,12.031
						c-0.851-5.903-44.025-342.295-40.648-353.702c3.377-11.407,10.156-44.8,11.832-65.938
						c1.701-21.111,20.211-33.443,20.211-33.443l31.894-24.539c3.202-15.634-12.583-37.597-12.583-37.597
						s-48.377,5.329-54.931,4.503c-5.428-0.701-38.797-4.453-38.797-4.453c-8.03,2.427-14.183,3.553-18.886,3.953
						c-5.328,0.425-8.78-0.101-10.957-0.775c-2.651-0.826-3.452-1.927-3.452-1.927c0,0.075-36.339,1.538-55.307,6.88
						C861.745,1169.682,836.322,1205.452,841.033,1255.806z"/>
				</g>
			</g>
			<g>
				<g>
					<path style="fill:#FCCCA2;" d="M894.29,1136.25c0,0,7.419,0.654,23.194-4.792c15.776-5.446,16.953-33.032,20.364-29.766
						c6.962,6.667,13.535,2.065,16.165-1.878c0,0-7.701-10.142-4.132-15.025c3.568-4.883,9.378-8.446,9.378-8.446
						s-11.095-53.479-61.588-29.114C838.511,1075.775,894.29,1136.25,894.29,1136.25z"/>
				</g>
			</g>
			<g>
				<g>
					<path style="fill:#DBDFF0;" d="M951.069,1164.702l-1.779-7.73c0,0-32.229-0.654-49.813,1.895l-1.85,9.239
						C897.627,1168.105,920.143,1178.318,951.069,1164.702z"/>
				</g>
			</g>
			<g>
				<g>
					<path style="fill:#EEA886;" d="M943.12,1094.932c-2.928-4.865-13.753-8.146-15.025,5.635
						c-0.986,10.682,19.344,22.349,19.532,12.395C947.815,1103.008,945.069,1098.168,943.12,1094.932z"/>
				</g>
			</g>
			<path style="fill:#DBDFF0;" d="M861.745,1169.682c0,0-15.375,0-48.936,105.835c-11.531,36.362,52.738,64.397,52.738,64.397
				L861.745,1169.682z"/>
			<g>
				
					<rect x="1060.421" y="1052.075" transform="matrix(0.573 -0.8196 0.8196 0.573 -394.0377 1354.1552)" style="fill:#4DA8F2;" width="84.003" height="6.238"/>
			</g>
			<path style="fill:#EFAA88;" d="M1143.9,1039.479c0,0,0.855,3.939,0.389,5.844c0,0-1.114,3.402-1.76,5.869
				c-0.202,0.783-0.361,1.471-0.417,1.925c-0.236,1.898-0.187,6.136-2.035,10.536c-1.843,4.396-9.931,19.269-9.931,19.269
				l-13.896-4.646l-12.7-0.514c0,0-4.469-28.616-3.224-32.913c0.125-0.42,0.262-0.829,0.421-1.203
				c1.407-3.535,3.939-5.574,4.888-7.346c0.353-0.648,4.292-6.857,6.473-7.133c3.025-0.388,5.28,0.572,6.64,2.158
				c0,0,5.958-0.496,9.271,1.789c0,0,5.481-0.635,8.794,3.381C1136.813,1036.494,1142.445,1036.475,1143.9,1039.479z"/>
			<polygon style="fill:#DFE1E8;" points="1129.045,1022.559 1130.511,1015.295 1123.933,1018.984 			"/>
		</g>
		<g>
			<g>
				<g>
					<g>
						<g>
							<g>
								<path style="fill:#EEA886;" d="M2424.647,1471.643c0,0,0.323-2.945-0.163-4.301c0,0-1.074-2.401-1.734-4.154
									c-0.207-0.557-0.377-1.047-0.452-1.375c-0.317-1.369-0.606-4.469-2.293-7.543c-1.683-3.072-12.357-14.453-12.357-14.453
									l-7.79,4.022l-7.83,2.726c0,0-0.869,21.443,0.368,24.487c0.123,0.297,0.255,0.586,0.399,0.847
									c1.299,2.477,3.306,3.772,4.135,4.994c0.307,0.447,3.66,4.684,5.275,4.718c2.24,0.052,3.813-0.822,4.687-2.085
									c0,0,4.392-0.094,6.638-2.018c0,0,4.055,0.045,6.168-3.143C2419.697,1474.365,2423.814,1473.947,2424.647,1471.643z"/>
							</g>
						</g>
					</g>
				</g>
			</g>
			<g>
				<g>
					<path style="fill:#3A3F47;" d="M2226.818,1113.75c0,0-10.389-67.207,45.272-65.967s52.564,52.938,45.88,75.283
						c-4.932,16.487-14.273,22.675,9.781,68.554c24.056,45.879-20.831,45.879-20.831,45.879l-34.83-47.862L2226.818,1113.75z"/>
				</g>
			</g>
			<g>
				<g>
					<path style="fill:#DBDFF0;" d="M2200.463,1354.875c-0.277,0.348-0.68,0.84-1.193,1.471v0.004
						c-1.313,1.604-3.352,4.072-5.924,7.142c-14.859,17.76-47.512,55.632-59.943,62.467c-8.813,4.843-10.162-10.377-1.396-19.735
						c7.991-8.534,38.85-63.581,50.797-75.43c5.805-5.754,13.604-60.135,13.604-60.135s7.221,45.346,6.417,50.562
						C2202.025,1326.439,2205.551,1348.536,2200.463,1354.875z"/>
				</g>
			</g>
			<g>
				<g>
					<g>
						<path style="fill:#EEA886;" d="M2132.005,1406.223c0,0-5.13,6.756-7.792,7.599c-2.661,0.844-5.731,5.53-7.959,6.737
							c-2.227,1.209-9.533,2.373-11.298,4.416c-0.722,0.834-3.065,7.699-4.722,9.236c-1.656,1.538-5.404,4.25-3.99,5.634
							c1.413,1.384,5.46-0.134,5.46-0.134s-1.42,1.493-0.556,3.082c1.682,3.09,3.9,3.049,3.9,3.049s-0.428,2.462,0.6,3.578
							c2.266,2.463,4.409,2.361,4.409,2.361s0.397,1.844,2.276,3.148c2.402,1.67,4.984,0.387,4.984,0.387s2.528,2.766,4.484,2.023
							c1.955-0.74,2.962-2.312,4.307-3.293c1.344-0.98,10.134-13.13,12.642-24.021c2.509-10.893,8.739-18.293,8.739-18.293
							L2132.005,1406.223z"/>
					</g>
				</g>
			</g>
			<g>
				<g>
					<path style="fill:#DB9C7C;" d="M2102.115,1438.354c0,0,7.705-10.257,12.105-10.442c4.4-0.185,1.83,3.67,1.83,3.67
						s2.476-3.855,5.814-2.201c3.338,1.654,0.084,6.01,0.084,6.01s2.677-2.418,5.33,0.398c2.652,2.814-0.886,5.813-0.886,5.813
						s5.708-1.318,4.995,3.402c-1.203,7.968-9.198,12.463-9.198,12.463s-2.552,1.285-4.915-1.598c0,0-5.402,2.307-7.6-3.695
						c0,0-6.569-0.848-5.121-5.951C2104.555,1446.223,2097.535,1444.309,2102.115,1438.354z"/>
				</g>
			</g>
			<g>
				<g>
					<path style="fill:#2F4563;" d="M2158.508,1871.379c0,0-21.862,37.057-31.093,43.111c-12.53,8.217-4.68,16.525,1.271,16.533
						c5.951,0.008,36.34,2.18,43.037-5.418c6.695-7.598,10.018-30.375,16.246-36.33c6.228-5.955,11.928-27.934-3.034-35.387
						C2168.527,1845.716,2158.508,1871.379,2158.508,1871.379z"/>
				</g>
			</g>
			<g>
				<g>
					<polygon style="fill:#2F4563;" points="2193.34,1878.428 2187.562,1922.922 2184.499,1923.057 2185.451,1891.049 					"/>
				</g>
			</g>
			<g>
				<g>
					<path style="fill:#2F4563;" d="M2345.954,1835.248c0,0-5.239,42.705-11.283,51.941c-8.204,12.539,2.312,17.02,7.771,14.65
						c5.457-2.371,34.185-12.518,37.289-22.158c3.104-9.641-2.95-31.848,0.381-39.795c3.33-7.947-0.224-30.375-16.918-31.23
						C2344.889,1807.719,2345.954,1835.248,2345.954,1835.248z"/>
				</g>
			</g>
			<g>
				<g>
					<path style="fill:#EEA886;" d="M2345.711,1814.16c0,0-3.207,52.15-4.602,59.752s10.008,2.623,15.857-3.248
						c5.852-5.871,11.859-42.159,11.482-48.463c-0.378-6.305-5.256-13.545-5.256-13.545L2345.711,1814.16z"/>
				</g>
			</g>
			<g>
				<g>
					<polygon style="fill:#2F4563;" points="2380.703,1827.796 2393.179,1870.895 2390.426,1872.242 2378.512,1842.518 					"/>
				</g>
			</g>
			<g>
				<g>
					<path style="fill:#EEA886;" d="M2254.7,1510.993c-1.089,5.261-8.058,27.27-15.86,51.728v0.003
						c-7.115,22.297-14.925,46.621-19.607,62.146c-1.747,5.792-3.061,10.358-3.74,13.135c-4.492,18.379,0.562,47.21,2.193,71.303
						c1.636,24.098-33.344,159.097-33.344,159.097c-6.125,2.858-17.634-16.454-17.634-16.454
						c4.493-8.576,3.862-160.852,1.411-170.244s-4.084-35.531-1.633-45.742c0.502-2.098,0.746-4.864,0.803-8.194
						c0.207-12.888-2.448-34.192-4.069-57.558c-2.042-29.406,9.392-102.508,11.024-109.043c0.15-0.602,0.389-1.446,0.692-2.486
						c3.009-10.25,12.695-39.357,12.695-39.357c19.646-5.846,34.438-6.902,45.479-4.651c14.616,2.978,22.66,11.749,26.678,22.889
						C2269.395,1464.138,2256.111,1504.168,2254.7,1510.993z"/>
				</g>
			</g>
			<g>
				<g>
					<path style="fill:#EEA886;" d="M2365.282,1812.271l-19.893,6.996c-3.374-16.33-84.155-130.621-89.082-143.281
						s-10.184-37.162-10.184-46.148c0-1.604-0.116-4.311-0.343-7.823c-0.872-13.618-3.365-39.302-6.941-59.294
						c-0.665-3.73-1.369-7.26-2.107-10.479c-3.957-17.24-4.645-76.146-4.689-110.787c-0.021-15.414,0.084-26.025,0.084-26.025
						s0.344-0.273,0.984-0.757c7.448-5.634,55.218-39.995,71.873-7.876c4.398,8.485,7.27,17.594,9.014,27.092
						c5.344,29.107,0.102,61.893-4.209,91.76c-3.688,25.558-10.754,61.67-12.785,88.466c-1.121,14.743-0.715,26.671,2.619,32.466
						c9.396,16.337,18.578,30.166,37.572,87.808C2343.376,1753.137,2365.282,1812.271,2365.282,1812.271z"/>
				</g>
			</g>
			<g>
				<path style="fill:#2F4563;" d="M2309.789,1525.648c-3.688,25.558-10.754,61.67-12.785,88.466c0,0-20.844,4.161-51.223,7.9
					c-8.227,1.013-17.148,1.993-26.549,2.854c-16.279,1.488-33.982,2.611-51.943,2.899c0.207-12.888-2.448-34.192-4.069-57.558
					c-2.042-29.406,9.392-102.508,11.024-109.043c0.15-0.602,0.389-1.446,0.692-2.486c14.694-8.086,35.772-13.545,57.106-17.227
					c9.375-1.617,18.795-2.893,27.746-3.894c27.969-3.138,51.33-3.624,54.209-3.673
					C2319.342,1462.996,2314.1,1495.781,2309.789,1525.648z"/>
			</g>
			<g>
				<path style="fill:#EEA886;" d="M2345.39,1819.268c0,0,9.339,12.074,19.893-6.996
					C2365.282,1812.271,2353.555,1799.737,2345.39,1819.268z"/>
			</g>
			<g>
				<g>
					<path style="fill:#EEA886;" d="M2166.708,1851.949c0,0-23.772,46.529-28.087,52.939c-4.314,6.412,8.127,6.402,15.836,3.357
						s27.713-33.912,29.885-39.843s3.279-12.864,3.279-12.864L2166.708,1851.949z"/>
				</g>
			</g>
			<g>
				<path style="fill:#EEA886;" d="M2166.708,1851.949c0,0-12.626,23.748,20.913,3.59
					C2187.621,1855.539,2181.299,1844.906,2166.708,1851.949z"/>
			</g>
			<g>
				<g>
					<path style="fill:#EEA886;" d="M2259.572,1058.564c0,0-37.695,5.951-39.184,59.518c-1.488,53.567,10.168,64.975,43.15,53.814
						c32.984-11.159,43.4-67.205,44.144-75.885C2308.427,1087.332,2310.41,1052.116,2259.572,1058.564z"/>
				</g>
			</g>
			<g>
				<g>
					<path style="fill:#4E9BDE;" d="M2325.768,1244.882c0.145,18.444-21.057,62.534-24.324,76.147
						c-3.267,13.613-8.439,17.971-4.084,35.396c4.357,17.426,21.933,79.148,17.316,81.547
						c-68.951,35.842-130.011,33.512-139.739,20.709c0,0,22.298-83.211,23.932-92.74c1.634-9.53-1.985-45.256-2.802-55.33
						s-11.015-31.758-10.671-41.855c0.351-10.286,5.402-19.17,12.471-30.156c2.188-3.406,4.489-6.875,6.79-10.249
						c7.488-10.989,14.971-20.966,18.644-24.401c2.731-2.555,5.29-4.512,7.504-5.99c0.014-0.008,0.022-0.012,0.022-0.012
						c4.617-3.078,7.721-4.072,7.721-4.072l32.402-5.174c0,0,20.193,7.307,31.809,10.023
						C2302.758,1198.725,2325.432,1202.031,2325.768,1244.882z"/>
				</g>
			</g>
			<g>
				<g>
					<path style="fill:#6EA2E8;" d="M2230.826,1197.947l-18.779,29.598l-17.334,27.314c0.041-0.146,1.195-4.283,3.153-16.26
						c0.373-2.273,0.772-4.83,1.2-7.695c0.125-0.847,0.311-1.688,0.545-2.518c0,0,0,0,0-0.004
						c7.418-17.102,30.354-29.996,31.192-30.424C2230.817,1197.951,2230.826,1197.947,2230.826,1197.947z"/>
				</g>
			</g>
			<g>
				<g>
					<path style="fill:#EEA886;" d="M2284.745,1147.77c-3.268,6.17-6.718,44.471-6.718,44.471s-46.104,17.427-41.386,7.57
						c2.14-4.474,2.769-10.279,2.813-15.283c0.041-3.945-0.283-7.393-0.513-9.304c-0.119-1.008-0.211-1.587-0.211-1.587
						S2288.012,1141.597,2284.745,1147.77z"/>
				</g>
			</g>
			<g>
				<g>
					<path style="fill:#3A3F47;" d="M2244.196,1097.003c0,0,13.487,16.48,31.095,28.88c17.607,12.4,14.536,37.334,14.536,37.334
						s45.941-96.717,2.263-103.412c-43.678-6.697-70.461-7.192-71.701,58.277
						C2220.389,1118.082,2240.229,1096.508,2244.196,1097.003z"/>
				</g>
			</g>
			<g>
				<g>
					<path style="fill:#A77860;" d="M2270.459,1168.591c-7.077,10.438-31.002,15.937-31.002,15.937s0,0-0.003,0
						c0.041-3.945-0.283-7.393-0.513-9.304C2253.769,1178.533,2270.459,1168.591,2270.459,1168.591z"/>
				</g>
			</g>
			<g>
				<path style="fill:#DBDFF0;" d="M2199.691,1228.182h-0.002c0,0-1.003,2.074-1.823,10.418l6.79-10.249
					c0,0,12.129-17.39,16.283-21.911c4.156-4.521,9.864-8.48,9.864-8.48S2206.942,1209.424,2199.691,1228.182z"/>
			</g>
			<g>
				<path style="fill:#6EA2E8;" d="M2293.381,1263.695c0,0,34.693-14.709,42.965-16.994c0,0-14.299-51.847-43.621-48.626
					C2261.033,1201.557,2293.381,1263.695,2293.381,1263.695z"/>
			</g>
			<g>
				<path style="fill:#EEA886;" d="M2238.547,1193.875c0,0-21.725,33.404-14.371,36.322c7.354,2.919,47.162-3.894,64.087-35.623
					C2288.263,1194.574,2262.957,1181.598,2238.547,1193.875z"/>
			</g>
			<g>
				<path style="fill:#DBDFF0;" d="M2126.959,1411.91c0,0,14.791,7.307,18.197,13.63c0,0,26.105-37.349,28.418-39.04l-39.531,17.228
					L2126.959,1411.91z"/>
			</g>
			<g>
				<path style="fill:#DBDFF0;" d="M2391.34,1447.849c0,0,15.384-3.792,20.652-4.2l-23.348-55.672l-8.617,31.371
					C2380.027,1419.348,2391.248,1446.406,2391.34,1447.849z"/>
			</g>
			<g>
				<path style="fill:#2F4563;" d="M2196.109,1311.162c-0.05-0.457-0.079-0.717-0.079-0.764c0.009,0.025,0.021,0.092,0.038,0.212
					C2196.084,1310.734,2196.102,1310.917,2196.109,1311.162z"/>
			</g>
			<g>
				<path style="fill:#9EA1AD;" d="M2199.27,1356.346v0.004c-1.313,1.604-9.42,11.265-11.992,14.334c0,0,9.072-53.121,8.832-59.518
					C2196.686,1316.277,2200.16,1345.375,2199.27,1356.346z"/>
			</g>
			<path style="fill:#DBDFF0;" d="M2278.153,1190.892c0,0-24.594,32.962-26.067,93.073c-1.473,60.112,20.277,315.741,17.284,353.547
				c0,0,53.136-20.09,66.976-31.25c13.839-11.161-24.086-193.289-28.77-209.904s-14.403-69.44,28.769-149.656
				c0,0-9.308-40.107-27.266-47.092C2291.12,1192.625,2278.153,1190.892,2278.153,1190.892z"/>
			<path style="fill:#DBDFF0;" d="M2403.891,1435.254c-7.054-23.48-22.344-68.211-25.278-77.553
				c-7.663-24.389-11.767-30.112-22.715-62.902c-4.267-12.777-13.046-33.328-19.552-48.092c-0.001-0.003,0-0.004-0.001-0.006
				c-4.966-18.973-14.876-33.648-21.733-41.492s-26.348-10.636-26.348-10.636s2.689,3.6,6.695,8.833
				c-1.367,0.154-2.596,0.014-4.059,0.385c-25.979,6.574,3.753,49.584,5.826,55.294c2.072,5.71,39.133,69.286,41.813,75.093
				c9.259,20.068,14.727,24.653,21.76,43.523c9.504,25.497,24.987,50.639,32.625,64.693
				C2396.133,1448.301,2406.596,1444.258,2403.891,1435.254z"/>
			<path style="fill:#DBDFF0;" d="M2238.547,1193.875c0,0-22.785,24.69-25.778,74.377c-2.993,49.686-5.487,108.593-13.354,159.654
				c-7.866,51.061-20.438,216.881-20.438,216.881s-17.36-13.17-20.952-21.551s9.129-162.473,23.945-205.324
				c14.816-42.85,18.512-48.962,14.139-86.406c-4.373-37.443-13.084-52.913-10.768-66.993S2210.119,1203.704,2238.547,1193.875z"/>
		</g>
		<g>
			<g style="opacity:0.72;">
				
					<linearGradient id="SVGID_00000014621999460211843080000011947540628455417263_" gradientUnits="userSpaceOnUse" x1="1685.8447" y1="1016.0977" x2="2139.9844" y2="1016.0977">
					<stop  offset="0" style="stop-color:#D5E4FF"/>
					<stop  offset="1" style="stop-color:#EDFFFE"/>
				</linearGradient>
				<path style="fill:url(#SVGID_00000014621999460211843080000011947540628455417263_);" d="M2107.535,1279.824h-389.24
					c-17.922,0-32.45-14.528-32.45-32.449V784.821c0-17.921,14.528-32.45,32.45-32.45h389.24c17.922,0,32.449,14.529,32.449,32.45
					v462.554C2139.984,1265.296,2125.457,1279.824,2107.535,1279.824z"/>
			</g>
			<g>
				<g>
					<g>
						<path style="fill:#4AAFFF;" d="M1961.541,971.146c-17.375-48.585-63.809-78.426-112.746-76.955
							c-11.848,0.357-23.842,2.549-35.611,6.757c-35.646,12.751-61.208,41.144-71.709,74.687
							c-7.277,23.248-7.324,48.969,1.514,73.676c0.877,2.456,1.832,4.873,2.855,7.234c4.648,10.701,10.748,20.381,17.991,28.89
							c30.369,35.704,80.763,50.793,127.513,34.076C1951.7,1097.924,1983.125,1031.5,1961.541,971.146z M1881.565,1092.158
							c-35.05,12.537-72.83,1.223-95.601-25.543c-5.428-6.379-10.004-13.638-13.484-21.663c-0.77-1.771-1.486-3.582-2.146-5.425
							c-6.625-18.523-6.587-37.807-1.131-55.232c7.872-25.153,27.033-46.442,53.76-55.998c8.822-3.155,17.815-4.797,26.698-5.068
							c36.687-1.107,71.505,21.268,84.534,57.695C1950.377,1026.175,1926.814,1075.973,1881.565,1092.158z"/>
					</g>
				</g>
				<g>
					<g>
						<path style="fill:#1A598C;" d="M1769.203,984.295l-27.729-8.66c10.501-33.543,36.063-61.936,71.709-74.687
							c11.77-4.208,23.764-6.399,35.611-6.757l0.866,29.037c-8.883,0.271-17.876,1.913-26.698,5.068
							C1796.236,937.852,1777.075,959.142,1769.203,984.295z"/>
					</g>
				</g>
				<g>
					<g>
						<path style="fill:#2273B5;" d="M1772.48,1044.952l-26.637,11.593c-1.023-2.361-1.979-4.778-2.855-7.234
							c-8.838-24.707-8.791-50.428-1.514-73.676l27.729,8.66c-5.456,17.426-5.494,36.709,1.131,55.232
							C1770.994,1041.37,1771.711,1043.181,1772.48,1044.952z"/>
					</g>
				</g>
				<g>
					<g>
						<path style="fill:#3788CC;" d="M1763.835,1085.435c-7.243-8.509-13.343-18.188-17.991-28.89l26.637-11.593
							c3.48,8.025,8.057,15.284,13.484,21.663L1763.835,1085.435z"/>
					</g>
				</g>
			</g>
			<g>
				<g>
					<g>
						<path style="fill:#4AAFFF;" d="M2062.166,1042.04c-19.293-9.129-41.603-4.276-55.486,10.47
							c-3.361,3.568-6.229,7.718-8.44,12.392c-6.696,14.155-5.868,29.938,0.871,42.82c4.671,8.929,12.181,16.466,21.992,21.106
							c0.976,0.463,1.962,0.891,2.952,1.281c4.489,1.771,9.104,2.818,13.712,3.188c19.327,1.561,38.479-8.766,47.265-27.33
							C2096.369,1082,2086.133,1053.38,2062.166,1042.04z M2074.17,1100.828c-6.586,13.919-20.945,21.66-35.436,20.492
							c-3.453-0.279-6.914-1.063-10.279-2.393c-0.744-0.293-1.482-0.613-2.215-0.959c-7.355-3.48-12.985-9.132-16.486-15.824
							c-5.055-9.66-5.677-21.492-0.654-32.104c1.657-3.504,3.808-6.615,6.326-9.292c10.407-11.056,27.136-14.694,41.602-7.851
							C2074.996,1061.4,2082.67,1082.859,2074.17,1100.828z"/>
					</g>
				</g>
				<g>
					<g>
						<path style="fill:#1A598C;" d="M2009.754,1102.145l-10.644,5.577c-6.739-12.883-7.567-28.665-0.871-42.82
							c2.212-4.674,5.079-8.823,8.44-12.392l8.746,8.239c-2.519,2.677-4.669,5.788-6.326,9.292
							C2004.077,1080.652,2004.699,1092.484,2009.754,1102.145z"/>
					</g>
				</g>
				<g>
					<g>
						<path style="fill:#2273B5;" d="M2028.455,1118.928l-4.4,11.182c-0.99-0.391-1.977-0.818-2.952-1.281
							c-9.812-4.641-17.321-12.178-21.992-21.106l10.644-5.577c3.501,6.692,9.131,12.344,16.486,15.824
							C2026.973,1118.314,2027.711,1118.635,2028.455,1118.928z"/>
					</g>
				</g>
			</g>
			<g>
				<g>
					<g>
						<path style="fill:#4AAFFF;" d="M2085.029,959.774c9.129-19.294,4.275-41.603-10.469-55.487
							c-3.57-3.361-7.719-6.229-12.393-8.439c-14.156-6.697-29.938-5.869-42.82,0.871c-8.928,4.671-16.465,12.181-21.107,21.992
							c-0.461,0.975-0.889,1.961-1.28,2.951c-1.771,4.49-2.817,9.105-3.188,13.713c-1.56,19.326,8.768,38.481,27.331,47.264
							C2045.069,993.979,2073.689,983.741,2085.029,959.774z M2026.241,971.777c-13.919-6.586-21.659-20.945-20.491-35.433
							c0.278-3.454,1.063-6.916,2.392-10.281c0.294-0.742,0.613-1.482,0.96-2.215c3.479-7.356,9.131-12.984,15.824-16.486
							c9.66-5.055,21.491-5.676,32.104-0.654c3.504,1.658,6.614,3.809,9.291,6.327c11.055,10.407,14.695,27.136,7.851,41.602
							C2065.668,972.606,2044.211,980.279,2026.241,971.777z"/>
					</g>
				</g>
				<g>
					<g>
						<path style="fill:#4AAFFF;" d="M2024.926,907.361l-5.578-10.643c12.883-6.74,28.664-7.568,42.82-0.871
							c4.674,2.211,8.822,5.078,12.393,8.439l-8.24,8.747c-2.677-2.519-5.787-4.669-9.291-6.327
							C2046.417,901.685,2034.586,902.307,2024.926,907.361z"/>
					</g>
				</g>
				<g>
					<g>
						<path style="fill:#2273B5;" d="M2008.142,926.063l-11.182-4.4c0.392-0.99,0.819-1.977,1.28-2.951
							c4.643-9.811,12.18-17.321,21.107-21.992l5.578,10.643c-6.693,3.502-12.345,9.131-15.824,16.486
							C2008.755,924.58,2008.436,925.32,2008.142,926.063z"/>
					</g>
				</g>
				<g>
					<g>
						<path style="fill:#3788CC;" d="M1993.771,935.375c0.371-4.607,1.418-9.223,3.188-13.713l11.182,4.4
							c-1.329,3.365-2.113,6.827-2.392,10.281L1993.771,935.375z"/>
					</g>
				</g>
			</g>
			<g>
				<polygon style="fill:#E2F3FE;" points="2026.885,1164.939 1937.24,1164.939 1937.24,1163.157 2025.104,1163.157 
					2025.104,1129.289 2026.885,1129.289 				"/>
			</g>
			<g>
				<polygon style="fill:#E2F3FE;" points="1858.068,1164.939 1741.475,1164.939 1741.475,1163.157 1856.287,1163.157 
					1856.287,1107.722 1858.068,1107.722 				"/>
			</g>
			<g>
				<rect x="1741.475" y="1144.613" style="fill:#4AAFFF;" width="80.226" height="10.689"/>
			</g>
			<g>
				<rect x="1937.24" y="1144.613" style="fill:#4AAFFF;" width="47.188" height="10.689"/>
			</g>
			<g>
				<rect x="1723.3" y="797.648" style="fill:#4AAFFF;" width="38.397" height="8.206"/>
			</g>
			<g>
				<rect x="1883.367" y="828.541" style="fill:#4AAFFF;" width="59.572" height="8.207"/>
			</g>
			<g>
				<rect x="1806.34" y="828.541" style="fill:#4AAFFF;" width="36.365" height="8.207"/>
			</g>
			<g>
				<rect x="1723.3" y="828.541" style="fill:#4AAFFF;" width="72.052" height="8.207"/>
			</g>
			<g>
				<rect x="1773.385" y="797.648" style="fill:#4AAFFF;" width="56.893" height="8.206"/>
			</g>
			<g>
				<rect x="1854.091" y="828.541" style="fill:#4AAFFF;" width="15.626" height="8.207"/>
			</g>
			<g>
				<rect x="1900.438" y="798.104" style="fill:#4AAFFF;" width="42.501" height="8.205"/>
			</g>
			<g>
				<rect x="1958.098" y="828.541" style="fill:#4AAFFF;" width="36.241" height="8.207"/>
			</g>
			<g>
				<rect x="1844.268" y="798.104" style="fill:#4AAFFF;" width="45.051" height="8.205"/>
			</g>
			<g>
				
					<linearGradient id="SVGID_00000010304880962520983640000010121477034658536358_" gradientUnits="userSpaceOnUse" x1="1855.5371" y1="1271.9834" x2="1970.293" y2="1271.9834">
					<stop  offset="0" style="stop-color:#D5E4FF"/>
					<stop  offset="1" style="stop-color:#EDFFFE"/>
				</linearGradient>
				<path style="fill:url(#SVGID_00000010304880962520983640000010121477034658536358_);" d="M1948.635,1329.361h-71.44
					c-11.961,0-21.657-9.695-21.657-21.656v-71.441c0-11.961,9.696-21.658,21.657-21.658h71.44c11.961,0,21.658,9.697,21.658,21.658
					v71.441C1970.293,1319.666,1960.596,1329.361,1948.635,1329.361z"/>
				<rect x="1907.486" y="1249.154" style="fill:#C5CCD1;" width="10.857" height="45.659"/>
				
					<rect x="1907.486" y="1249.155" transform="matrix(-1.836970e-16 1 -1 -1.836970e-16 3184.8989 -640.9311)" style="fill:#C5CCD1;" width="10.858" height="45.658"/>
			</g>
		</g>
		<g>
			<path style="fill:#E3A080;" d="M1908.391,1474.494c0,0,9.396,1.891,13.889,2.033c4.492,0.143,25.275-9.281,31.924-8.385
				c6.65,0.898,50.023,19.326,51.992,20.669c1.969,1.344-0.926,4.308-0.926,4.308l-99.573,1.179L1908.391,1474.494z"/>
			
				<rect x="1934.431" y="1421.53" transform="matrix(0.866 -0.5 0.5 0.866 -465.5206 1162.8629)" style="fill:#4E9BDE;" width="5.334" height="57.091"/>
			<g>
				<g>
					<polygon style="fill:#696969;" points="1608.494,1677.393 1558.86,1917.359 1547.928,1917.359 1590.018,1676.876 					"/>
				</g>
			</g>
			<g>
				<g>
					<polygon style="fill:#696969;" points="1662.643,1677.393 1613.008,1917.359 1602.076,1917.359 1644.165,1676.876 					"/>
				</g>
			</g>
			<g>
				<g>
					<polygon style="fill:#696969;" points="1750.219,1677.393 1799.853,1917.359 1810.785,1917.359 1768.695,1676.876 					"/>
				</g>
			</g>
			<g>
				<path style="fill:#E3A080;" d="M1734.129,1322.733c0,0,14.517,20.575,23.493,36.157c10.177,17.664,20.18,35.104,22.388,39.025
					c4.49,7.979,19.455,16.275,26.524,19.31c6.501,2.791,115.803,56.713,117.179,56.59c1.377-0.123-11.664,21.599-11.664,21.599
					s-150.368-43.121-157.127-49.297c-6.758-6.176-26.82-34.291-35.029-45.875c-7.818-11.031-19.809-29.129-26.168-36.928
					c-7.109-8.717-22.025-38.549-3.061-53.428C1714.895,1290.877,1728.296,1314.004,1734.129,1322.733z"/>
			</g>
			<g>
				<g>
					<g>
						<path style="fill:#353A3D;" d="M2005.995,1855.379c0,0,23.536,7.424,33.961,9.793s47.132-4.787,51.522-2.206
							c4.392,2.581,5.604,13.769-0.172,16.282s-49.09,16.797-64.656,16.777s-41.825,12.205-48.423,11.551
							c-6.598-0.656-10.313-34.535-9.671-42.483C1969.201,1857.145,2005.995,1855.379,2005.995,1855.379z"/>
					</g>
				</g>
			</g>
			<g>
				<g>
					<g>
						<path style="fill:#81807E;" d="M1998.595,1842.963l7.4,12.416c0,0-28.065,12.026-37.438,9.714l-1.799-14.368
							L1998.595,1842.963z"/>
					</g>
				</g>
			</g>
			<g>
				<g>
					<g>
						<path style="fill:#353A3D;" d="M1907.261,1861.865c0,0,21.221,12.6,30.83,17.285c9.608,4.686,46.981,6.094,50.667,9.609
							c3.687,3.514,2.313,14.684-3.883,15.813c-6.197,1.129-51.629,5.152-66.779,1.582c-15.151-3.572-43.506,2.34-49.78,0.195
							s-2.162-35.977,0.278-43.568C1871.034,1855.19,1907.261,1861.865,1907.261,1861.865z"/>
					</g>
				</g>
			</g>
			<g>
				<g>
					<g>
						<path style="fill:#81807E;" d="M1907.814,1849.85l-0.554,12.016c0,0-30.069,5.307-38.667,0.916l1.332-13.17L1907.814,1849.85z
							"/>
					</g>
				</g>
			</g>
			<g>
				<path style="fill:#4487C2;" d="M1759.068,1542.055c0,0,89.422,20.377,110.474,26.531c22.862,6.684,59.813,18.809,64.333,22.615
					c4.985,4.197,10.485,3.82,3.319,34.953c-7.165,31.131-12.233,122.086-13.698,131.691c-2.188,14.337-8.08,97.533-8.08,97.533
					h-53.355c0,0-3.54-160.445,0-178.503c3.286-16.757-3.544-24.96-10.402-29.838c-6.859-4.878-28.727,0.152-151.938-21.11
					c-12.313-2.125-46.166-5.846-53.717-20.031c-13.645-25.633-15.039-61.707,11.814-83.767S1759.068,1542.055,1759.068,1542.055z"
					/>
			</g>
			<g>
				<g>
					<path style="fill:#E2D2CA;" d="M1797.191,1679.336h-213.866c0,0-14.896-0.342-24.87-44.469
						c-11.223-49.641-33.891-215.448-33.891-215.448s6.013-15.429,100.032-13.454l168.357,218.436
						C1792.953,1624.4,1798.697,1658.838,1797.191,1679.336z"/>
				</g>
			</g>
			<path style="fill:#EEA886;" d="M1892.713,1474.494c0,0,9.396,1.891,13.889,2.033c4.492,0.143,25.275-9.281,31.925-8.385
				c6.649,0.898,50.022,19.326,51.991,20.669c1.969,1.344-0.926,4.308-0.926,4.308l-99.573,1.179L1892.713,1474.494z"/>
			<g>
				<path style="fill:#4E9BDE;" d="M1654.501,1616.92c9.058,13.822,31.261,13.973,44.065,14.989
					c128.164,10.226,164.183,2.056,171.662,6.41c7.487,4.354,26.005,4.604,33.219,52.373c1.654,10.924,10.181,37.99,20.05,67.151
					c2.739,8.109,5.591,16.377,8.413,24.51c13.441,38.582,26.52,74.008,26.52,74.008l57.267-14.625c0,0-20.914-62.425-24.472-72.219
					c-5.667-15.589-30.641-115.7-41.579-151.293c-9.649-31.406-17.705-35.912-22.985-38.924c-9.93-5.666-46.903-12.115-68.387-18.98
					c-21.483-6.857-105.99-21.597-105.99-21.597s-101.141-32.201-118.068-0.728
					C1629.727,1546.341,1638.123,1591.955,1654.501,1616.92z"/>
			</g>
			<g>
				<g>
					<rect x="1933.728" y="1496.59" style="fill:#C4B6AF;" width="19.953" height="420.77"/>
				</g>
			</g>
			<g>
				<g>
					<rect x="1922.158" y="1910.193" style="fill:#C4B6AF;" width="43.092" height="7.166"/>
				</g>
			</g>
			<g>
				<g>
					<rect x="2387.058" y="1496.59" style="fill:#C4B6AF;" width="19.953" height="420.77"/>
				</g>
			</g>
			<g>
				<g>
					<rect x="2375.488" y="1910.193" style="fill:#C4B6AF;" width="43.092" height="7.166"/>
				</g>
			</g>
			<g>
				<g>
					<rect x="1878.944" y="1489.541" style="fill:#E2D2CA;" width="551.86" height="14.098"/>
				</g>
			</g>
			<g>
				<path style="fill:#2A76B8;" d="M1761.352,1540.318l-130.386,26.533c0,0,0.396-38.424,1.016-82.051
					c0.62-43.627,13.279-79.426,16.4-104.373c10.653-85.1,85.148-103.878,85.148-103.878l25.194,19.522
					c0,0,13.701,40.184,13.8,63.124c0.05,11.94-5.747,36.368-11.495,58.813c-2.155,8.398-4.311,16.523-6.145,23.609
					c-2.699,10.355-4.731,18.531-5.152,22.148C1745.694,1498.104,1761.352,1540.318,1761.352,1540.318z"/>
			</g>
			<g>
				<path style="fill:#EEA886;" d="M1778.29,1280.205c0,0-0.972,2.152-2.409,5.496c-0.605,1.4-1.289,3.014-2.016,4.76
					c-0.561,1.333-1.146,2.745-1.737,4.202c-3.731,9.171-7.878,20.321-8.487,25.856c-1.142,10.345-30.121-43.959-30.121-43.959
					s13.604-30.74,23.166-67.1C1766.24,1173.102,1778.29,1280.205,1778.29,1280.205z"/>
			</g>
			<path style="fill:#A77860;" d="M1778.29,1280.205c0,0-0.972,2.152-2.409,5.496c-0.605,1.4-1.289,3.014-2.016,4.76
				c-19.397-14.414-22.043-28.443-20.016-30.008C1763.662,1273.025,1778.29,1280.205,1778.29,1280.205z"/>
			<path style="fill:#EEA886;" d="M1741.262,1302.871c0,0,37.561,75.297,66.035,104.292c8.932,9.095,93.027,64.924,96.389,68.546
				c3.363,3.621-13.02,13.832-13.02,13.832s-102.502-44.457-109.196-48.875c-6.694-4.417-85.444-99.672-89.243-113.262
				s-0.811-26.895,13.061-32.855C1724.756,1286.182,1741.262,1302.871,1741.262,1302.871z"/>
			<g>
				<g>
					<path style="fill:#EEA886;" d="M1831.695,1188.386c0,0,3.799,27.336,2.391,33.11c-1.408,5.775-4.053,9.782-4.955,16.633
						c-0.932,7.082,0.904,23.008-0.877,26.789c-2.153,4.568-11.586-0.67-15.121,6.857s-14.91,20.395-18.649,19.702
						c-9.607-1.777-41.63-26.218-41.877-34.37c-0.247-8.151-1.906-53.68-3.799-62.767c-1.894-9.087,77.45-34.559,80.169-20.257
						S1831.695,1188.386,1831.695,1188.386z"/>
				</g>
			</g>
			<path style="fill:#E8734D;" d="M1736.264,1191.479c0.87-22.088,24.217-27.957,24.217-27.957s20.475-13.896,57.133-1.648
				c36.658,12.246,17.797,59.311,17.797,59.311s-24.721-10.842-36.694-11.045c0,0-2.818,8.262-3.001,13.732l-13.034-7.205
				c0,0,1.718-3.723-4.791-6.422c-6.51-2.701-19.776,36.555-34.718,41.937c0,0,0.832-2.851,0.007-6.038l0,0l0,0
				c-1.314-5.073-3.216-13.477-4.253-22.984C1736.719,1209.623,1735.818,1202.791,1736.264,1191.479z"/>
			<g>
				<g>
					<path style="fill:#EEA886;" d="M1786.035,1217.234c0,0-1.406-15.474-16.234-9.702c-10.782,4.197-7.978,30.441,0.797,32.696
						C1779.373,1242.482,1786.423,1230.529,1786.035,1217.234z"/>
				</g>
			</g>
			<path style="fill:#236299;" d="M1761.029,1418.01c-2.155,8.398-4.311,16.523-6.145,23.609
				c-14.443-17.168-39.984-80.268-40.355-81.209C1718.393,1366.826,1758.75,1415.284,1761.029,1418.01z"/>
			<path style="fill:#2A76B8;" d="M1760.008,1334.807c0,0-14.463-61.056-55.959-42.605c-41.496,18.451,8.361,72.334,8.361,72.334
				L1760.008,1334.807z"/>
			<g>
				<g>
					<path style="fill:#EDEBE7;" d="M2039.646,1407v-2.826h-18.05V1407h1.086v62.518c0,0-0.314,7.939,7.939,7.939
						c8.253,0,7.939-7.939,7.939-7.939V1407H2039.646z"/>
					<path style="fill:#EDEBE7;" d="M2061.236,1407v-2.826h-18.05V1407h1.085v62.518c0,0-0.314,7.939,7.939,7.939
						s7.939-7.939,7.939-7.939V1407H2061.236z"/>
					<path style="fill:#EDEBE7;" d="M2082.827,1407v-2.826h-18.05V1407h1.086v62.518c0,0-0.314,7.939,7.939,7.939
						s7.939-7.939,7.939-7.939V1407H2082.827z"/>
					<path style="fill:#4E9BDE;" d="M2025.112,1425.636v43.372c0,0-0.218,5.508,5.509,5.508c5.726,0,5.508-5.508,5.508-5.508
						v-43.372H2025.112z"/>
					<path style="fill:#DE4E74;" d="M2046.703,1433.025v36.814c0,0-0.218,4.676,5.508,4.676c5.727,0,5.509-4.676,5.509-4.676
						v-36.814H2046.703z"/>
					<path style="fill:#D2DE4E;" d="M2068.295,1420.367v48.047c0,0-0.219,6.102,5.508,6.102c5.726,0,5.508-6.102,5.508-6.102
						v-48.047H2068.295z"/>
				</g>
				<rect x="2021.596" y="1411.193" style="fill:#9E9E9C;" width="90.414" height="4.231"/>
				<rect x="2102.409" y="1385.902" style="fill:#9E9E9C;" width="5.161" height="98.271"/>
				<rect x="2093.532" y="1484.173" style="fill:#9E9E9C;" width="22.915" height="5.368"/>
				<g>
					<g>
						
							<rect x="2137.448" y="1406.882" transform="matrix(0.8408 0.5414 -0.5414 0.8408 1107.9043 -936.0554)" style="fill:#9E9E9C;" width="15.648" height="17.115"/>
						
							<rect x="2182.805" y="1336.448" transform="matrix(0.8407 0.5414 -0.5414 0.8407 1077.1136 -971.8847)" style="fill:#9E9E9C;" width="15.648" height="17.114"/>
						
							<rect x="2188.432" y="1331.198" transform="matrix(0.8407 0.5415 -0.5415 0.8407 1074.8461 -974.5682)" style="fill:#9E9E9C;" width="11.154" height="17.115"/>
						
							<rect x="2158.64" y="1334.374" transform="matrix(0.8408 0.5414 -0.5414 0.8408 1091.899 -954.6196)" style="fill:#EDEBE7;" width="20.31" height="89.072"/>
					</g>
					<path style="fill:#9E9E9C;" d="M2175.355,1378.092c0,3.623-2.938,6.561-6.561,6.561s-6.561-2.938-6.561-6.561
						c0-3.624,2.938-6.562,6.561-6.562S2175.355,1374.468,2175.355,1378.092z"/>
					<g>
						<path style="fill:#EDEBE7;" d="M2155.277,1464.328l-3.5-8.016c16.519-7.214,25.922-16.262,27.953-26.891
							c3.113-16.303-11.221-30.927-11.371-31.08l4.844-7.521c0.751,0.758,19.089,19.46,15.119,40.241
							C2185.719,1444.698,2174.6,1455.891,2155.277,1464.328z"/>
					</g>
					
						<rect x="2134.617" y="1452.121" transform="matrix(0.8859 0.464 -0.464 0.8859 921.263 -829.407)" style="fill:#EDEBE7;" width="23.254" height="10.934"/>
					
						<rect x="2126.98" y="1445.039" transform="matrix(0.8859 0.464 -0.464 0.8859 915.1092 -827.1565)" style="fill:#9E9E9C;" width="23.254" height="2.368"/>
					<rect x="2134.756" y="1477.27" style="fill:#9E9E9C;" width="66.154" height="12.271"/>
					<polygon style="fill:#EDEBE7;" points="2176.854,1477.27 2150.611,1477.27 2158.266,1454.033 2176.854,1451.048 					"/>
					<path style="fill:#9E9E9C;" d="M2172.883,1461.789c0,3.645-2.955,6.599-6.599,6.599s-6.599-2.954-6.599-6.599
						c0-3.644,2.955-6.598,6.599-6.598S2172.883,1458.146,2172.883,1461.789z"/>
				</g>
			</g>
			<g>
				<g>
					<path style="fill:#0E1E2B;" d="M1766.447,1802.9l-47.295,0.055c-4.804,0.005-8.716-3.898-8.721-8.701l-0.035-29.824
						c-0.006-4.803,3.898-8.715,8.701-8.721l47.295-0.055c4.803-0.006,8.715,3.897,8.721,8.701l0.035,29.824
						C1775.153,1798.982,1771.25,1802.895,1766.447,1802.9z M1719.104,1761.555c-1.579,0.001-2.863,1.288-2.861,2.868l0.034,29.824
						c0.002,1.579,1.288,2.864,2.868,2.862l47.296-0.055c1.58-0.002,2.864-1.289,2.862-2.869l-0.035-29.824
						c-0.002-1.58-1.288-2.863-2.868-2.861L1719.104,1761.555z"/>
				</g>
				<g>
					
						<rect x="1654.136" y="1790.126" transform="matrix(1 -0.0011 0.0011 1 -2.1206 1.9961)" style="fill:#6EA2E8;" width="177.443" height="127.131"/>
				</g>
				<path style="fill:#DBDFF0;" d="M1781.223,1848.961c0.411,21.02-16.297,38.393-37.316,38.805
					c-21.02,0.41-38.393-16.297-38.804-37.316c-0.411-21.021,16.296-38.394,37.315-38.805
					C1763.439,1811.234,1780.812,1827.941,1781.223,1848.961z"/>
				
					<rect x="1735.889" y="1826.924" transform="matrix(1 -0.0085 0.0085 1 -15.5898 14.8168)" style="fill:#6EA2E8;" width="14.547" height="45.562"/>
				
					<rect x="1735.889" y="1826.924" transform="matrix(0.0085 1 -1 0.0085 3578.0615 90.9638)" style="fill:#6EA2E8;" width="14.546" height="45.561"/>
			</g>
		</g>
		<g>
			<defs>
				
					<filter id="Adobe_OpacityMaskFilter_00000041286549040920876080000008900862282289201319_" filterUnits="userSpaceOnUse" x="2242.113" y="308.959" width="103.811" height="7.277">
					<feFlood  style="flood-color:white;flood-opacity:1" result="back"/>
					<feBlend  in="SourceGraphic" in2="back" mode="normal"/>
				</filter>
			</defs>
			
				<mask maskUnits="userSpaceOnUse" x="2242.113" y="308.959" width="103.811" height="7.277" id="SVGID_00000020378946999525617280000012738722899952723345_">
				<g style="filter:url(#Adobe_OpacityMaskFilter_00000041286549040920876080000008900862282289201319_);">
					<defs>
						
							<filter id="Adobe_OpacityMaskFilter_00000145755610506402534550000007406633757922774940_" filterUnits="userSpaceOnUse" x="2242.113" y="308.959" width="103.811" height="7.277">
							<feFlood  style="flood-color:white;flood-opacity:1" result="back"/>
							<feBlend  in="SourceGraphic" in2="back" mode="normal"/>
						</filter>
					</defs>
					
						<mask maskUnits="userSpaceOnUse" x="2242.113" y="308.959" width="103.811" height="7.277" id="SVGID_00000020378946999525617280000012738722899952723345_">
						<g style="filter:url(#Adobe_OpacityMaskFilter_00000145755610506402534550000007406633757922774940_);">
						</g>
					</mask>
					
						<linearGradient id="SVGID_00000007400136076285501510000013748220495399920303_" gradientUnits="userSpaceOnUse" x1="2339.9502" y1="198.9914" x2="2245.5308" y2="432.5258">
						<stop  offset="0" style="stop-color:#FFFFFF"/>
						<stop  offset="1" style="stop-color:#000000"/>
					</linearGradient>
					
						<polygon style="mask:url(#SVGID_00000020378946999525617280000012738722899952723345_);fill:url(#SVGID_00000007400136076285501510000013748220495399920303_);" points="
						2242.113,316.236 2345.924,316.236 2345.924,308.959 2242.113,308.959 					"/>
				</g>
			</mask>
			
				<linearGradient id="SVGID_00000088099664905660139350000015195132834857729928_" gradientUnits="userSpaceOnUse" x1="2339.9502" y1="198.9914" x2="2245.5308" y2="432.5258">
				<stop  offset="0" style="stop-color:#40D5E6"/>
				<stop  offset="1" style="stop-color:#5577FF"/>
			</linearGradient>
			<polygon style="fill:url(#SVGID_00000088099664905660139350000015195132834857729928_);" points="2242.113,316.236 
				2345.924,316.236 2345.924,308.959 2242.113,308.959 			"/>
			<defs>
				
					<filter id="Adobe_OpacityMaskFilter_00000033355408234509415620000000280480727969724828_" filterUnits="userSpaceOnUse" x="2242.113" y="322.674" width="103.811" height="30.594">
					<feFlood  style="flood-color:white;flood-opacity:1" result="back"/>
					<feBlend  in="SourceGraphic" in2="back" mode="normal"/>
				</filter>
			</defs>
			
				<mask maskUnits="userSpaceOnUse" x="2242.113" y="322.674" width="103.811" height="30.594" id="SVGID_00000027566063652169089650000015105239274961006472_">
				<g style="filter:url(#Adobe_OpacityMaskFilter_00000033355408234509415620000000280480727969724828_);">
					<defs>
						
							<filter id="Adobe_OpacityMaskFilter_00000006686612775547868940000017993776211250403983_" filterUnits="userSpaceOnUse" x="2242.113" y="322.674" width="103.811" height="30.594">
							<feFlood  style="flood-color:white;flood-opacity:1" result="back"/>
							<feBlend  in="SourceGraphic" in2="back" mode="normal"/>
						</filter>
					</defs>
					
						<mask maskUnits="userSpaceOnUse" x="2242.113" y="322.674" width="103.811" height="30.594" id="SVGID_00000027566063652169089650000015105239274961006472_">
						<g style="filter:url(#Adobe_OpacityMaskFilter_00000006686612775547868940000017993776211250403983_);">
						</g>
					</mask>
					
						<linearGradient id="SVGID_00000139973429260389981090000001597070910608759221_" gradientUnits="userSpaceOnUse" x1="2348.7676" y1="202.5558" x2="2254.3479" y2="436.0909">
						<stop  offset="0" style="stop-color:#FFFFFF"/>
						<stop  offset="1" style="stop-color:#000000"/>
					</linearGradient>
					
						<polygon style="mask:url(#SVGID_00000027566063652169089650000015105239274961006472_);fill:url(#SVGID_00000139973429260389981090000001597070910608759221_);" points="
						2242.113,353.268 2345.924,353.268 2345.924,322.674 2242.113,322.674 					"/>
				</g>
			</mask>
			
				<linearGradient id="SVGID_00000051378362616424785570000014450448470922419585_" gradientUnits="userSpaceOnUse" x1="2348.7676" y1="202.5558" x2="2254.3479" y2="436.0909">
				<stop  offset="0" style="stop-color:#40D5E6"/>
				<stop  offset="1" style="stop-color:#5577FF"/>
			</linearGradient>
			<polygon style="fill:url(#SVGID_00000051378362616424785570000014450448470922419585_);" points="2242.113,353.268 
				2345.924,353.268 2345.924,322.674 2242.113,322.674 			"/>
			<defs>
				
					<filter id="Adobe_OpacityMaskFilter_00000170999484361904679460000007322366853979499653_" filterUnits="userSpaceOnUse" x="2193.348" y="363.555" width="61.242" height="4.571">
					<feFlood  style="flood-color:white;flood-opacity:1" result="back"/>
					<feBlend  in="SourceGraphic" in2="back" mode="normal"/>
				</filter>
			</defs>
			
				<mask maskUnits="userSpaceOnUse" x="2193.348" y="363.555" width="61.242" height="4.571" id="SVGID_00000013181599952057253910000009387778884999994245_">
				<g style="filter:url(#Adobe_OpacityMaskFilter_00000170999484361904679460000007322366853979499653_);">
					<defs>
						
							<filter id="Adobe_OpacityMaskFilter_00000134955492619456462340000004159638234094855065_" filterUnits="userSpaceOnUse" x="2193.348" y="363.555" width="61.242" height="4.571">
							<feFlood  style="flood-color:white;flood-opacity:1" result="back"/>
							<feBlend  in="SourceGraphic" in2="back" mode="normal"/>
						</filter>
					</defs>
					
						<mask maskUnits="userSpaceOnUse" x="2193.348" y="363.555" width="61.242" height="4.571" id="SVGID_00000013181599952057253910000009387778884999994245_">
						<g style="filter:url(#Adobe_OpacityMaskFilter_00000134955492619456462340000004159638234094855065_);">
						</g>
					</mask>
					
						<linearGradient id="SVGID_00000095340687643152386530000007876784146310028445_" gradientUnits="userSpaceOnUse" x1="2298.2434" y1="182.1314" x2="2203.8247" y2="415.664">
						<stop  offset="0" style="stop-color:#FFFFFF"/>
						<stop  offset="1" style="stop-color:#000000"/>
					</linearGradient>
					
						<polygon style="mask:url(#SVGID_00000013181599952057253910000009387778884999994245_);fill:url(#SVGID_00000095340687643152386530000007876784146310028445_);" points="
						2193.348,368.126 2254.59,368.126 2254.59,363.555 2193.348,363.555 					"/>
				</g>
			</mask>
			
				<linearGradient id="SVGID_00000150817205799954891610000007450602106400993665_" gradientUnits="userSpaceOnUse" x1="2298.2434" y1="182.1314" x2="2203.8247" y2="415.664">
				<stop  offset="0" style="stop-color:#40D5E6"/>
				<stop  offset="1" style="stop-color:#5577FF"/>
			</linearGradient>
			<polygon style="fill:url(#SVGID_00000150817205799954891610000007450602106400993665_);" points="2193.348,368.126 
				2254.59,368.126 2254.59,363.555 2193.348,363.555 			"/>
			<defs>
				
					<filter id="Adobe_OpacityMaskFilter_00000046332049293951577530000009476447437212059788_" filterUnits="userSpaceOnUse" x="2193.348" y="370.127" width="61.242" height="12.381">
					<feFlood  style="flood-color:white;flood-opacity:1" result="back"/>
					<feBlend  in="SourceGraphic" in2="back" mode="normal"/>
				</filter>
			</defs>
			
				<mask maskUnits="userSpaceOnUse" x="2193.348" y="370.127" width="61.242" height="12.381" id="SVGID_00000083807410499584566390000000738912949487994249_">
				<g style="filter:url(#Adobe_OpacityMaskFilter_00000046332049293951577530000009476447437212059788_);">
					<defs>
						
							<filter id="Adobe_OpacityMaskFilter_00000106110390560267090720000012719437541394125489_" filterUnits="userSpaceOnUse" x="2193.348" y="370.127" width="61.242" height="12.381">
							<feFlood  style="flood-color:white;flood-opacity:1" result="back"/>
							<feBlend  in="SourceGraphic" in2="back" mode="normal"/>
						</filter>
					</defs>
					
						<mask maskUnits="userSpaceOnUse" x="2193.348" y="370.127" width="61.242" height="12.381" id="SVGID_00000083807410499584566390000000738912949487994249_">
						<g style="filter:url(#Adobe_OpacityMaskFilter_00000106110390560267090720000012719437541394125489_);">
						</g>
					</mask>
					
						<linearGradient id="SVGID_00000060736368389205183350000008349470514723740057_" gradientUnits="userSpaceOnUse" x1="2301.8833" y1="183.6059" x2="2207.4656" y2="417.1359">
						<stop  offset="0" style="stop-color:#FFFFFF"/>
						<stop  offset="1" style="stop-color:#000000"/>
					</linearGradient>
					
						<polygon style="mask:url(#SVGID_00000083807410499584566390000000738912949487994249_);fill:url(#SVGID_00000060736368389205183350000008349470514723740057_);" points="
						2193.348,382.508 2254.59,382.508 2254.59,370.127 2193.348,370.127 					"/>
				</g>
			</mask>
			
				<linearGradient id="SVGID_00000162313083165089575630000010909143239129168034_" gradientUnits="userSpaceOnUse" x1="2301.8833" y1="183.6059" x2="2207.4656" y2="417.1359">
				<stop  offset="0" style="stop-color:#40D5E6"/>
				<stop  offset="1" style="stop-color:#5577FF"/>
			</linearGradient>
			<polygon style="fill:url(#SVGID_00000162313083165089575630000010909143239129168034_);" points="2193.348,382.508 
				2254.59,382.508 2254.59,370.127 2193.348,370.127 			"/>
			<defs>
				
					<filter id="Adobe_OpacityMaskFilter_00000105397544623044904020000000654839182136095133_" filterUnits="userSpaceOnUse" x="2362.973" y="269.737" width="4.571" height="85.72">
					<feFlood  style="flood-color:white;flood-opacity:1" result="back"/>
					<feBlend  in="SourceGraphic" in2="back" mode="normal"/>
				</filter>
			</defs>
			
				<mask maskUnits="userSpaceOnUse" x="2362.973" y="269.737" width="4.571" height="85.72" id="SVGID_00000094593231767024449380000000595328840065176194_">
				<g style="filter:url(#Adobe_OpacityMaskFilter_00000105397544623044904020000000654839182136095133_);">
					<defs>
						
							<filter id="Adobe_OpacityMaskFilter_00000011006336255545777600000009373578325299981465_" filterUnits="userSpaceOnUse" x="2362.973" y="269.737" width="4.571" height="85.72">
							<feFlood  style="flood-color:white;flood-opacity:1" result="back"/>
							<feBlend  in="SourceGraphic" in2="back" mode="normal"/>
						</filter>
					</defs>
					
						<mask maskUnits="userSpaceOnUse" x="2362.973" y="269.737" width="4.571" height="85.72" id="SVGID_00000094593231767024449380000000595328840065176194_">
						<g style="filter:url(#Adobe_OpacityMaskFilter_00000011006336255545777600000009373578325299981465_);">
						</g>
					</mask>
					
						<linearGradient id="SVGID_00000083073619893063346020000006765081997810065299_" gradientUnits="userSpaceOnUse" x1="2401.1814" y1="223.7462" x2="2306.7617" y2="457.2809">
						<stop  offset="0" style="stop-color:#FFFFFF"/>
						<stop  offset="1" style="stop-color:#000000"/>
					</linearGradient>
					
						<polygon style="mask:url(#SVGID_00000094593231767024449380000000595328840065176194_);fill:url(#SVGID_00000083073619893063346020000006765081997810065299_);" points="
						2362.973,269.737 2367.544,269.737 2367.544,355.457 2362.973,355.457 					"/>
				</g>
			</mask>
			
				<linearGradient id="SVGID_00000032617907064288056240000002298513513489341335_" gradientUnits="userSpaceOnUse" x1="2401.1814" y1="223.7462" x2="2306.7617" y2="457.2809">
				<stop  offset="0" style="stop-color:#40D5E6"/>
				<stop  offset="1" style="stop-color:#5577FF"/>
			</linearGradient>
			<polygon style="fill:url(#SVGID_00000032617907064288056240000002298513513489341335_);" points="2362.973,269.737 
				2367.544,269.737 2367.544,355.457 2362.973,355.457 			"/>
		</g>
	</g>
</g>
</svg>
