<?xml version="1.0" encoding="utf-8"?>
<!-- Generator: Adobe Illustrator 27.5.0, SVG Export Plug-In . SVG Version: 6.00 Build 0)  -->
<svg version="1.1" id="Слой_1" xmlns="http://www.w3.org/2000/svg" xmlns:xlink="http://www.w3.org/1999/xlink" x="0px" y="0px"
	 viewBox="0 0 3229.25 2000" style="enable-background:new 0 0 3229.25 2000;" xml:space="preserve">
<g>
	<rect style="fill:#FAFAFA;" width="3229.25" height="2000"/>
	<g>
		<g>
			<linearGradient id="SVGID_1_" gradientUnits="userSpaceOnUse" x1="1775.2587" y1="453.4272" x2="2166.5059" y2="453.4272">
				<stop  offset="0" style="stop-color:#FF9F55"/>
				<stop  offset="1" style="stop-color:#FFD255"/>
			</linearGradient>
			<path style="fill:url(#SVGID_1_);" d="M1817.601,517.392c6.009,14.428,13.966,27.727,23.491,39.636l-13.97,29.294l28.204,21.157
				l28.204,21.156l24.215-21.61c14.1,5.811,29.094,9.729,44.626,11.459l10.827,30.567l34.904-4.983l34.902-4.983l1.841-32.376
				c14.428-6.009,27.726-13.966,39.636-23.491l29.294,13.97l21.157-28.204l21.156-28.205l-21.61-24.214
				c5.812-14.1,9.729-29.094,11.459-44.626l30.567-10.828l-4.983-34.902l-4.983-34.903l-32.376-1.841
				c-6.01-14.428-13.966-27.726-23.491-39.636l13.97-29.294l-28.205-21.156l-28.204-21.157l-24.214,21.61
				c-14.1-5.812-29.093-9.729-44.626-11.459l-10.828-30.567l-34.903,4.983l-34.903,4.984l-1.84,32.376
				c-14.428,6.009-27.726,13.965-39.636,23.49l-29.294-13.97l-21.157,28.204l-21.155,28.205l21.609,24.214
				c-5.811,14.1-9.728,29.094-11.459,44.626l-30.567,10.828l4.983,34.903l4.984,34.903L1817.601,517.392z M1953.419,331.125
				c67.546-9.645,130.121,37.294,139.766,104.839c9.645,67.546-37.293,130.121-104.839,139.766
				c-67.546,9.645-130.121-37.293-139.766-104.839C1838.936,403.345,1885.873,340.77,1953.419,331.125z"/>
		</g>
		<g>
			
				<linearGradient id="SVGID_00000024691378813155419900000004640190891080249477_" gradientUnits="userSpaceOnUse" x1="2129.3066" y1="280.7266" x2="2275.832" y2="280.7266">
				<stop  offset="0" style="stop-color:#FF9F55"/>
				<stop  offset="1" style="stop-color:#FFD255"/>
			</linearGradient>
			<path style="fill:url(#SVGID_00000024691378813155419900000004640190891080249477_);" d="M2145.165,304.682
				c2.25,5.403,5.23,10.384,8.798,14.844l-5.232,10.972l10.563,7.923l10.563,7.923l9.068-8.093
				c5.28,2.177,10.896,3.644,16.713,4.292l4.055,11.447l13.071-1.866l13.072-1.866l0.688-12.125
				c5.403-2.251,10.384-5.23,14.845-8.798l10.971,5.231l7.923-10.563l7.924-10.563l-8.093-9.068
				c2.176-5.28,3.643-10.897,4.291-16.713l11.447-4.056l-1.866-13.071l-1.866-13.071l-12.125-0.689
				c-2.251-5.403-5.23-10.384-8.798-14.844l5.231-10.971l-10.563-7.924l-10.563-7.923l-9.068,8.093
				c-5.28-2.177-10.896-3.643-16.713-4.292l-4.055-11.447l-13.072,1.866l-13.071,1.867l-0.689,12.125
				c-5.403,2.25-10.384,5.23-14.844,8.797l-10.971-5.231l-7.924,10.563l-7.923,10.563l8.093,9.069
				c-2.176,5.28-3.644,10.896-4.291,16.713l-11.448,4.055l1.867,13.071l1.866,13.071L2145.165,304.682z M2196.029,234.924
				c25.297-3.612,48.731,13.966,52.344,39.263c3.611,25.297-13.967,48.732-39.264,52.344c-25.296,3.611-48.731-13.967-52.343-39.264
				C2153.154,261.971,2170.733,238.535,2196.029,234.924z"/>
		</g>
		<g>
			<rect x="1548.504" y="821.091" style="fill:#F3F3F3;" width="6.673" height="700.155"/>
		</g>
		<rect x="1551.84" y="734.816" style="fill:#FFFFFF;" width="71.94" height="18.25"/>
		<rect x="1551.84" y="768.552" style="fill:#FFFFFF;" width="57.564" height="18.251"/>
		<rect x="1555.177" y="1562.725" style="fill:#FFFFFF;" width="75.493" height="24.334"/>
		<g>
			<g>
				<g>
					<g>
						
							<linearGradient id="SVGID_00000031921442892327008010000011911109319113089951_" gradientUnits="userSpaceOnUse" x1="2938.5449" y1="-9312.8828" x2="3255.9187" y2="-9312.8828" gradientTransform="matrix(0.2905 0.9569 -0.9569 0.2905 -7996.1841 488.6884)">
							<stop  offset="0" style="stop-color:#40D5E6"/>
							<stop  offset="1" style="stop-color:#5577FF"/>
						</linearGradient>
						<path style="fill:url(#SVGID_00000031921442892327008010000011911109319113089951_);" d="M1828.961,576.975
							c0,0,146.017,173.134,53.391,285.243c-92.626,112.109-118.111,2.186-118.111,2.186s-55.435,10.293,40.586-129.933
							C1850.084,668.376,1828.961,576.975,1828.961,576.975z"/>
					</g>
				</g>
			</g>
			<g>
				<g>
					<g>
						
							<linearGradient id="SVGID_00000088110694679273464320000009721733439952838822_" gradientUnits="userSpaceOnUse" x1="1944.0089" y1="817.1986" x2="2138.1082" y2="494.9944">
							<stop  offset="0" style="stop-color:#602F80"/>
							<stop  offset="1" style="stop-color:#5770FF"/>
						</linearGradient>
						<path style="fill:url(#SVGID_00000088110694679273464320000009721733439952838822_);" d="M2149.011,441.884
							c0,0,108.477,160.107-80.386,344.539s-174.822,294.432-174.822,294.432S1700.706,702.866,2149.011,441.884z"/>
					</g>
				</g>
			</g>
			<g>
				<g>
					<g>
						
							<linearGradient id="SVGID_00000056390377887928542330000001971246214184579986_" gradientUnits="userSpaceOnUse" x1="5304.1323" y1="-4076.2471" x2="5271.1362" y2="-4163.5894" gradientTransform="matrix(0.2905 0.9569 -0.9569 0.2905 -7996.1841 488.6884)">
							<stop  offset="0" style="stop-color:#602F80"/>
							<stop  offset="1" style="stop-color:#5770FF"/>
						</linearGradient>
						<path style="fill:url(#SVGID_00000056390377887928542330000001971246214184579986_);" d="M1858.549,1011.284
							c-79.235,7.15,12.698-207.093,136.487-263.023c123.789-55.931,228.517-51.185,300.899-110.2
							C2295.936,638.06,2248.725,976.073,1858.549,1011.284z"/>
					</g>
				</g>
			</g>
		</g>
		<g>
			
				<linearGradient id="SVGID_00000145778179843796074410000016427061360779554734_" gradientUnits="userSpaceOnUse" x1="-7370.1353" y1="1491.1094" x2="-7370.1353" y2="1124.2153" gradientTransform="matrix(-1 0 0 1 -6481.4023 0)">
				<stop  offset="0" style="stop-color:#602F80"/>
				<stop  offset="1" style="stop-color:#5770FF"/>
			</linearGradient>
			
				<rect x="885.396" y="821.091" style="fill:url(#SVGID_00000145778179843796074410000016427061360779554734_);" width="6.673" height="700.155"/>
		</g>
		<g>
			<rect x="1359.899" y="821.091" style="fill:#F3F3F3;" width="6.673" height="700.155"/>
		</g>
		<g>
			<rect x="1834.4" y="821.091" style="fill:#F3F3F3;" width="6.674" height="700.155"/>
		</g>
		<rect x="888.733" y="734.816" style="fill:#E0E0E0;" width="113.652" height="18.25"/>
		<rect x="888.733" y="768.552" style="fill:#E0E0E0;" width="161.215" height="18.251"/>
		<rect x="1358.121" y="734.816" style="fill:#FFFFFF;" width="133.434" height="18.25"/>
		<rect x="1358.121" y="768.552" style="fill:#FFFFFF;" width="85.318" height="18.251"/>
		<rect x="1841.074" y="734.816" style="fill:#FFFFFF;" width="82.686" height="18.25"/>
		<rect x="1841.074" y="768.552" style="fill:#FFFFFF;" width="96.373" height="18.251"/>
		<rect x="1363.235" y="1562.725" style="fill:#FFFFFF;" width="75.493" height="24.334"/>
		<rect x="1841.074" y="1562.725" style="fill:#FFFFFF;" width="75.492" height="24.334"/>
		<g>
			
				<linearGradient id="SVGID_00000124882471131172445070000013223767163305967792_" gradientUnits="userSpaceOnUse" x1="888.7285" y1="1106.5549" x2="2726.7939" y2="1106.5549">
				<stop  offset="0" style="stop-color:#FF9F55"/>
				<stop  offset="1" style="stop-color:#FFD255"/>
			</linearGradient>
			<path style="fill:url(#SVGID_00000124882471131172445070000013223767163305967792_);" d="M2726.794,995.868v41.818
				c-35.124-27.979-69.686-49.152-103.907-64.268c-222.105-98.192-429.394,57.538-675.793,245.947
				c-18.089,13.839-35.613,25.761-52.611,35.952c-59.155,35.5-112.068,49.979-160.543,49.979
				c-46.444,0-88.789-13.275-128.652-34.072c-53.928-28.13-103.307-69.986-152.082-111.315
				c-64.307-54.53-131.021-110.301-208.04-137.791c-235.079-83.939-355.346,69.309-356.437,70.663v-46.595
				c1.278-1.617,22.714-29.447,84.803-56.072c56.485-24.218,151.292-43.511,282.051,1.956
				c82.848,28.807,151.668,87.172,218.193,143.582c71.867,60.923,138.469,117.37,215.6,133.579h0.038
				c34.598,7.258,71.34,6.394,111.616-5.867c38.585-11.694,80.441-33.808,126.772-69.271
				c153.322-117.22,297.845-228.988,440.073-269.791c91.498-26.287,185.553-22.602,277.839,21.624
				C2672.941,958.938,2700.018,975.523,2726.794,995.868z"/>
		</g>
		<g>
			<g>
				<rect x="613.885" y="1081.554" style="fill:#E0E0E0;" width="22.801" height="98.455"/>
			</g>
			<g>
				<rect x="670.502" y="1041.555" style="fill:#E0E0E0;" width="22.802" height="138.454"/>
			</g>
			<g>
				<rect x="727.119" y="1020.685" style="fill:#E0E0E0;" width="22.802" height="159.323"/>
			</g>
			<g>
				<rect x="783.737" y="1011.99" style="fill:#E0E0E0;" width="22.801" height="168.019"/>
			</g>
			<g>
				
					<linearGradient id="SVGID_00000070096217656568501510000016984296996510786443_" gradientUnits="userSpaceOnUse" x1="625.2853" y1="1265.1648" x2="625.2853" y2="1035.4647">
					<stop  offset="0" style="stop-color:#FF9F55"/>
					<stop  offset="1" style="stop-color:#FFD255"/>
				</linearGradient>
				
					<rect x="613.885" y="1118.24" style="fill:url(#SVGID_00000070096217656568501510000016984296996510786443_);" width="22.801" height="61.769"/>
			</g>
			<g>
				
					<linearGradient id="SVGID_00000152954920721065028200000009594417695525937058_" gradientUnits="userSpaceOnUse" x1="681.9028" y1="1265.1644" x2="681.9028" y2="1035.4648">
					<stop  offset="0" style="stop-color:#FF9F55"/>
					<stop  offset="1" style="stop-color:#FFD255"/>
				</linearGradient>
				
					<rect x="670.502" y="1093.146" style="fill:url(#SVGID_00000152954920721065028200000009594417695525937058_);" width="22.802" height="86.863"/>
			</g>
			<g>
				
					<linearGradient id="SVGID_00000127724391285580269020000017638720377076372403_" gradientUnits="userSpaceOnUse" x1="738.52" y1="1265.1643" x2="738.52" y2="1035.4652">
					<stop  offset="0" style="stop-color:#FF9F55"/>
					<stop  offset="1" style="stop-color:#FFD255"/>
				</linearGradient>
				
					<rect x="727.119" y="1080.053" style="fill:url(#SVGID_00000127724391285580269020000017638720377076372403_);" width="22.802" height="99.956"/>
			</g>
			<g>
				
					<linearGradient id="SVGID_00000096031809867509019200000001708107408356764568_" gradientUnits="userSpaceOnUse" x1="795.1376" y1="1265.1639" x2="795.1376" y2="1035.4658">
					<stop  offset="0" style="stop-color:#FF9F55"/>
					<stop  offset="1" style="stop-color:#FFD255"/>
				</linearGradient>
				
					<rect x="783.737" y="1074.598" style="fill:url(#SVGID_00000096031809867509019200000001708107408356764568_);" width="22.801" height="105.411"/>
			</g>
		</g>
		<g>
			
				<linearGradient id="SVGID_00000171679403143760243410000010580028082857237943_" gradientUnits="userSpaceOnUse" x1="1562.8436" y1="2026.3405" x2="1591.9579" y2="372.6161">
				<stop  offset="0" style="stop-color:#40D5E6"/>
				<stop  offset="1" style="stop-color:#5577FF"/>
			</linearGradient>
			<path style="fill:url(#SVGID_00000171679403143760243410000010580028082857237943_);" d="M1222.763,1622.921h713.785
				c33.107,0,59.945-26.838,59.945-59.945V579.872c0-33.106-26.839-59.945-59.945-59.945h-713.785
				c-33.106,0-59.945,26.839-59.945,59.945v983.104C1162.817,1596.083,1189.656,1622.921,1222.763,1622.921z"/>
		</g>
		<path style="fill:#F5F5F5;" d="M1947.164,398.552h-694.763c-22.232,0-40.255,18.022-40.255,40.254v1137.508h735.018V398.552z"/>
		
			<linearGradient id="SVGID_00000108284122316155348150000007643301959969872565_" gradientUnits="userSpaceOnUse" x1="1661.9492" y1="632.7583" x2="1878.6738" y2="632.7583">
			<stop  offset="0" style="stop-color:#40D5E6"/>
			<stop  offset="1" style="stop-color:#5577FF"/>
		</linearGradient>
		
			<rect x="1661.949" y="619.053" style="fill:url(#SVGID_00000108284122316155348150000007643301959969872565_);" width="216.725" height="27.411"/>
		
			<linearGradient id="SVGID_00000066486320491505193350000006955179539704511158_" gradientUnits="userSpaceOnUse" x1="1661.9492" y1="747.6636" x2="1860.8906" y2="747.6636">
			<stop  offset="0" style="stop-color:#40D5E6"/>
			<stop  offset="1" style="stop-color:#5577FF"/>
		</linearGradient>
		
			<rect x="1661.949" y="733.958" style="fill:url(#SVGID_00000066486320491505193350000006955179539704511158_);" width="198.941" height="27.411"/>
		
			<linearGradient id="SVGID_00000062905251762226681070000005768126085474595247_" gradientUnits="userSpaceOnUse" x1="1661.9492" y1="690.2109" x2="1834.0781" y2="690.2109">
			<stop  offset="0" style="stop-color:#40D5E6"/>
			<stop  offset="1" style="stop-color:#5577FF"/>
		</linearGradient>
		
			<rect x="1661.949" y="676.505" style="fill:url(#SVGID_00000062905251762226681070000005768126085474595247_);" width="172.129" height="27.412"/>
		<g>
			
				<linearGradient id="SVGID_00000020396758211924668710000010619284786576371625_" gradientUnits="userSpaceOnUse" x1="1429.4198" y1="856.7097" x2="1429.4198" y2="618.715">
				<stop  offset="0" style="stop-color:#7DB3E0"/>
				<stop  offset="1" style="stop-color:#FFFFFF"/>
			</linearGradient>
			<path style="fill:url(#SVGID_00000020396758211924668710000010619284786576371625_);" d="M1429.42,794.841
				c-24.618,0-48.357-5.119-70.554-15.215c-60.84-27.65-100.153-88.685-100.153-155.491c0-94.129,76.579-170.707,170.707-170.707
				c94.128,0,170.707,76.578,170.707,170.707c0,66.807-39.314,127.841-100.155,155.491
				C1477.775,789.722,1454.038,794.841,1429.42,794.841z M1429.42,462.44c-89.159,0-161.695,72.536-161.695,161.695
				c0,63.281,37.24,121.095,94.872,147.287c21.019,9.561,43.501,14.407,66.823,14.407c23.322,0,45.805-4.847,66.821-14.407
				c57.635-26.192,94.874-84.006,94.874-147.287C1591.115,534.976,1518.579,462.44,1429.42,462.44z"/>
		</g>
		<g>
			<g>
				<rect x="1258.713" y="863.558" style="fill:#E0E0E0;" width="249.021" height="24.441"/>
			</g>
			<g>
				<rect x="1258.713" y="929.315" style="fill:#E0E0E0;" width="249.021" height="24.441"/>
			</g>
			<g>
				<rect x="1258.713" y="995.071" style="fill:#E0E0E0;" width="249.021" height="24.441"/>
			</g>
		</g>
		<g>
			<g>
				<rect x="1558.561" y="863.558" style="fill:#4E7ED6;" width="41.566" height="24.441"/>
			</g>
			<g>
				<rect x="1558.561" y="929.315" style="fill:#4E7ED6;" width="41.566" height="24.441"/>
			</g>
			<g>
				<rect x="1558.561" y="995.071" style="fill:#4E7ED6;" width="41.566" height="24.441"/>
			</g>
		</g>
		<g>
			
				<radialGradient id="SVGID_00000006691227357092808410000004945604074475870360_" cx="1807.7612" cy="1157.924" r="659.0681" gradientUnits="userSpaceOnUse">
				<stop  offset="0.1602" style="stop-color:#90C2E8"/>
				<stop  offset="0.5806" style="stop-color:#47AFFF"/>
				<stop  offset="1" style="stop-color:#6783F5"/>
			</radialGradient>
			<path style="fill:url(#SVGID_00000006691227357092808410000004945604074475870360_);" d="M2726.794,1269.684v33.883
				c-35.727,7.334-68.857,9.665-104.472,9.665c-140.461,0-263.473-57.65-390.282-120.492c-6.807-3.385-13.651-6.77-20.496-10.191
				c-165.581-82.358-336.805-167.5-564.928-144.185c-145.688,14.894-237.11,74.237-317.776,126.548
				c-73.07,47.422-142.116,89.09-235.644,92.625c-151.142,5.754-203.603-58.704-204.468-62.653v-41.367
				c0.188,0.714,32.83,72.242,201.421,72.242h2.896c84.276-0.45,146.44-40.803,218.457-87.511
				c83.713-54.304,178.557-115.828,331.88-131.511c237.26-24.256,412.658,62.954,582.302,147.343
				c16.961,8.425,33.846,16.812,50.731,25.01C2419.209,1248.586,2559.971,1305.146,2726.794,1269.684z"/>
		</g>
		<path style="fill:#F5F5F5;" d="M2082.246,1594.436h-348.068c-41.271,0-74.729-33.457-74.729-74.729v-606.04
			c0-41.271,33.457-74.729,74.729-74.729h348.068c41.271,0,74.728,33.457,74.728,74.729v606.04
			C2156.974,1560.979,2123.517,1594.436,2082.246,1594.436z"/>
		<g>
			<g>
				<path style="fill:#E0E0E0;" d="M2098.811,951.307c-12.192-34.093-44.775-55.033-79.117-54.001
					c-8.314,0.25-16.73,1.787-24.99,4.741c-25.014,8.947-42.951,28.871-50.32,52.41c-5.107,16.314-5.14,34.362,1.062,51.7
					c0.616,1.724,1.286,3.421,2.005,5.077c3.262,7.509,7.542,14.302,12.625,20.272c21.31,25.055,56.674,35.644,89.48,23.912
					C2091.905,1040.271,2113.957,993.659,2098.811,951.307z M2042.689,1036.226c-24.596,8.797-51.107,0.856-67.086-17.925
					c-3.809-4.477-7.021-9.57-9.463-15.202c-0.539-1.242-1.043-2.514-1.506-3.807c-4.648-12.998-4.623-26.53-0.794-38.759
					c5.524-17.65,18.971-32.59,37.726-39.295c6.19-2.215,12.501-3.366,18.735-3.557c25.744-0.777,50.177,14.924,59.319,40.486
					C2090.978,989.923,2074.442,1024.867,2042.689,1036.226z"/>
			</g>
			<g>
				<path style="fill:#537FFD;" d="M1963.841,960.533l-19.458-6.076c7.369-23.539,25.307-43.463,50.32-52.41
					c8.26-2.954,16.676-4.491,24.99-4.741l0.608,20.376c-6.234,0.19-12.545,1.342-18.735,3.557
					C1982.812,927.943,1969.365,942.883,1963.841,960.533z"/>
			</g>
			<g>
				<path style="fill:#4BA6F3;" d="M1966.141,1003.099l-18.691,8.136c-0.719-1.656-1.389-3.353-2.005-5.077
					c-6.201-17.338-6.168-35.387-1.062-51.7l19.458,6.076c-3.829,12.229-3.854,25.761,0.794,38.759
					C1965.098,1000.585,1965.601,1001.856,1966.141,1003.099z"/>
			</g>
			<g>
				<path style="fill:#46BBED;" d="M1960.074,1031.507c-5.083-5.971-9.363-12.764-12.625-20.272l18.691-8.136
					c2.442,5.632,5.654,10.726,9.463,15.202L1960.074,1031.507z"/>
			</g>
		</g>
		<g>
			<rect x="1977.509" y="1423.88" style="fill:#46BBED;" width="43.9" height="143.941"/>
		</g>
		<g>
			<rect x="1912.245" y="1464.25" style="fill:#46BBED;" width="43.9" height="103.571"/>
		</g>
		<g>
			<rect x="2040.82" y="1357.167" style="fill:#46BBED;" width="43.9" height="210.654"/>
		</g>
		<g>
			<polygon style="fill:#46BBED;" points="1725.916,1409.046 1722.101,1406.115 1793.637,1313.036 1881.927,1317.827 
				1948.505,1211.804 2020.229,1204.403 2063.327,1119.157 2067.62,1121.328 2023.336,1208.919 1951.332,1216.349 
				1884.494,1322.784 1795.906,1317.977 			"/>
		</g>
		<path style="fill:#4E7ED6;" d="M1861.213,946.196h-124.84c-7.882,0-14.272-6.39-14.272-14.271l0,0
			c0-7.881,6.39-14.271,14.272-14.271h124.84c7.882,0,14.271,6.39,14.271,14.271l0,0
			C1875.484,939.807,1869.095,946.196,1861.213,946.196z"/>
		<path style="fill:#E0E0E0;" d="M1861.213,995.987h-124.84c-7.882,0-14.272-6.39-14.272-14.271l0,0
			c0-7.882,6.39-14.271,14.272-14.271h124.84c7.882,0,14.271,6.389,14.271,14.271l0,0
			C1875.484,989.598,1869.095,995.987,1861.213,995.987z"/>
		<path style="fill:#E0E0E0;" d="M1861.213,1045.777h-124.84c-7.882,0-14.272-6.389-14.272-14.271l0,0
			c0-7.882,6.39-14.271,14.272-14.271h124.84c7.882,0,14.271,6.39,14.271,14.271l0,0
			C1875.484,1039.389,1869.095,1045.777,1861.213,1045.777z"/>
		
			<linearGradient id="SVGID_00000067941957517864881290000002137226154275122105_" gradientUnits="userSpaceOnUse" x1="738.1265" y1="1480.1655" x2="729.3918" y2="1129.3345">
			<stop  offset="0" style="stop-color:#FF9F55"/>
			<stop  offset="1" style="stop-color:#FFD255"/>
		</linearGradient>
		<polygon style="fill:url(#SVGID_00000067941957517864881290000002137226154275122105_);" points="716.93,1345.122 
			767.188,1345.122 751.805,1313.217 701.547,1313.217 		"/>
		
			<linearGradient id="SVGID_00000146490425177089211920000007423954795701336469_" gradientUnits="userSpaceOnUse" x1="695.4947" y1="1481.2269" x2="686.7599" y2="1130.3937">
			<stop  offset="0" style="stop-color:#FF9F55"/>
			<stop  offset="1" style="stop-color:#FFD255"/>
		</linearGradient>
		<polygon style="fill:url(#SVGID_00000146490425177089211920000007423954795701336469_);" points="693.413,1345.122 
			705.389,1345.122 690.006,1313.217 678.029,1313.217 		"/>
		
			<linearGradient id="SVGID_00000042734283343546378280000007103579523472310925_" gradientUnits="userSpaceOnUse" x1="1657.3829" y1="169.4136" x2="1578.7743" y2="463.4689">
			<stop  offset="0" style="stop-color:#FF9F55"/>
			<stop  offset="1" style="stop-color:#FFD255"/>
		</linearGradient>
		<polygon style="fill:url(#SVGID_00000042734283343546378280000007103579523472310925_);" points="1570.014,319.152 
			1669.513,319.152 1669.513,301.128 1570.014,301.128 		"/>
		
			<linearGradient id="SVGID_00000035527506084611845820000014538291129488807327_" gradientUnits="userSpaceOnUse" x1="1653.46" y1="168.3609" x2="1574.8486" y2="462.4257">
			<stop  offset="0" style="stop-color:#FF9F55"/>
			<stop  offset="1" style="stop-color:#FFD255"/>
		</linearGradient>
		<polygon style="fill:url(#SVGID_00000035527506084611845820000014538291129488807327_);" points="1570.014,296.108 
			1669.513,296.108 1669.513,292.716 1570.014,292.716 		"/>
		<g>
			
				<linearGradient id="SVGID_00000017499290137459522490000008721748813428435391_" gradientUnits="userSpaceOnUse" x1="1421.5212" y1="503.2239" x2="1440.4458" y2="792.9171">
				<stop  offset="0" style="stop-color:#40D5E6"/>
				<stop  offset="1" style="stop-color:#5577FF"/>
			</linearGradient>
			
				<rect x="1407.177" y="530.599" style="fill:url(#SVGID_00000017499290137459522490000008721748813428435391_);" width="44.486" height="187.071"/>
			
				<linearGradient id="SVGID_00000043436162869529007600000012666294053242774713_" gradientUnits="userSpaceOnUse" x1="1421.5214" y1="503.2249" x2="1440.4456" y2="792.9142">
				<stop  offset="0" style="stop-color:#40D5E6"/>
				<stop  offset="1" style="stop-color:#5577FF"/>
			</linearGradient>
			<polygon style="fill:url(#SVGID_00000043436162869529007600000012666294053242774713_);" points="1335.884,646.377 
				1335.884,601.892 1522.956,601.892 1522.956,646.377 			"/>
		</g>
		<g>
			<g>
				<g>
					<path style="fill:#E0E0E0;" d="M778.223,708.182c-42.658-20.184-91.986-9.453-122.685,23.148
						c-7.432,7.893-13.771,17.066-18.662,27.4c-14.807,31.3-12.976,66.193,1.926,94.679c10.328,19.741,26.933,36.405,48.626,46.669
						c2.156,1.021,4.338,1.967,6.526,2.831c9.927,3.915,20.132,6.231,30.319,7.049c42.731,3.45,85.081-19.383,104.504-60.429
						C853.849,796.536,831.215,733.255,778.223,708.182z M804.763,838.166c-14.56,30.775-46.311,47.892-78.348,45.309
						c-7.636-0.616-15.29-2.351-22.732-5.29c-1.642-0.648-3.277-1.355-4.896-2.12c-16.263-7.695-28.71-20.19-36.452-34.989
						c-11.176-21.358-12.551-47.519-1.446-70.982c3.664-7.747,8.419-14.625,13.988-20.545
						c23.011-24.442,59.999-32.489,91.983-17.357C806.592,750.99,823.558,798.435,804.763,838.166z"/>
				</g>
			</g>
			<g>
				<g>
					<path style="fill:#2D5BAD;" d="M662.335,841.075l-23.532,12.333c-14.902-28.485-16.733-63.379-1.926-94.679
						c4.89-10.334,11.229-19.508,18.662-27.4l19.339,18.219c-5.569,5.92-10.324,12.798-13.988,20.545
						C649.784,793.557,651.159,819.717,662.335,841.075z"/>
				</g>
			</g>
			<g>
				<g>
					<path style="fill:#5D96FF;" d="M703.683,878.185l-9.728,24.724c-2.188-0.864-4.37-1.81-6.526-2.831
						c-21.693-10.264-38.298-26.928-48.626-46.669l23.532-12.333c7.742,14.799,20.19,27.294,36.452,34.989
						C700.406,876.829,702.041,877.536,703.683,878.185z"/>
				</g>
			</g>
			<g>
				<g>
					<path style="fill:#5D96FF;" d="M724.274,909.957c-10.188-0.817-20.393-3.134-30.319-7.049l9.728-24.724
						c7.442,2.939,15.096,4.674,22.732,5.29L724.274,909.957z"/>
				</g>
			</g>
		</g>
		<g>
			<polygon style="fill:#5D96FF;" points="700.214,979.919 502.005,979.919 502.005,975.979 696.274,975.979 696.274,892.01 
				700.214,892.01 			"/>
		</g>
		<g>
			<rect x="502.004" y="934.977" style="fill:#E0E0E0;" width="104.333" height="23.637"/>
		</g>
		<g>
			<g>
				<rect x="1083.59" y="1322.755" style="fill:#E2D2CA;" width="162.007" height="9.616"/>
			</g>
			<g>
				
					<rect x="1105.302" y="1357.399" transform="matrix(-1 -1.224647e-16 1.224647e-16 -1 2224.7986 3152.1582)" style="fill:#706865;" width="14.195" height="437.359"/>
			</g>
			<g>
				<rect x="1220.241" y="1320.028" style="fill:#CCBDB7;" width="112.61" height="13.734"/>
			</g>
			<g>
				<rect x="1255.225" y="1202.85" style="fill:#998E89;" width="42.644" height="129.521"/>
			</g>
			<g>
				<rect x="1025.475" y="1332.532" style="fill:#B59074;" width="623.93" height="24.867"/>
			</g>
			<g>
				<path style="fill:#F5F5F5;" d="M905.727,1182.017c0,0-6.824,95.697,11.874,107.15c11.714,7.175,58.417,31.374,57.032,35.912
					c-1.386,4.538-26.37,40.378-26.37,40.378s-89.71-59.076-92.602-77.692c-2.826-18.188,4.416-140.12,16.744-145.736
					c9.236-4.207,14.111-0.728,25.75,7.914C914.491,1162.069,905.727,1182.017,905.727,1182.017z"/>
			</g>
			<g>
				<g>
					<g>
						<path style="fill:#424773;" d="M1016.102,1735.043c0,0-2.79,19.363-3.139,22.271c-0.349,2.909-31.032-1.713-31.032-1.713
							l-2.484-23.052C979.446,1732.55,1012.266,1732.312,1016.102,1735.043z"/>
					</g>
				</g>
			</g>
			<g>
				<g>
					<g>
						<path style="fill:#292C47;" d="M1013.29,1754.853c0,0,9.722,11.668,19.124,16.754c9.403,5.085,24.18,7.1,29.739,12.363
							c4.014,3.801,14.618,20.16-24.434,19.83c-39.053-0.33-57.881,2.311-62.066-3.962c-4.183-6.272,6.055-46.297,6.055-46.297
							S990.957,1756.869,1013.29,1754.853z"/>
					</g>
				</g>
			</g>
			<g>
				<g>
					<g>
						<path style="fill:#424773;" d="M1212.69,1735.227c0,0-2.789,19.363-3.138,22.271c-0.349,2.909-31.033-1.713-31.033-1.713
							l-2.484-23.052C1176.035,1732.733,1208.854,1732.495,1212.69,1735.227z"/>
					</g>
				</g>
			</g>
			<g>
				<g>
					<g>
						<path style="fill:#292C47;" d="M1209.879,1755.036c0,0,9.722,11.668,19.125,16.753c9.402,5.086,44.005,9.263,49.564,14.527
							c4.014,3.8,10.688,19.098-44.26,17.667c-39.039-1.017-57.881,2.311-62.065-3.962c-4.184-6.272,6.055-46.297,6.055-46.297
							S1187.011,1757.279,1209.879,1755.036z"/>
					</g>
				</g>
			</g>
			<g>
				<g>
					<g>
						<path style="fill:#292C47;" d="M917.134,1400.566c0,0,111.555,18.876,136.751,22.833
							c25.195,3.956,161.812,37.952,178.897,48.311c13.6,8.245-7.133,206.277-11.976,281.831h-53.81l-3.901-226.64
							c-64.572,1.614-110.65-15.105-157.672-7.964c-47.021,7.143-86.223,17.293-116.103-22.786
							C889.319,1496.151,888.212,1409.32,917.134,1400.566z"/>
					</g>
				</g>
			</g>
			<g>
				<g>
					<g>
						<path style="fill:#292C47;" d="M1027.089,1753.725l-52.439-3.242l-5.11-223.581c-27.799,0.694-37.328-1.068-59.823-3.797
							l-42.339-98.413c37.106,7.418,155.991,37.403,171.844,47.017C1052.82,1479.957,1031.932,1678.167,1027.089,1753.725z"/>
					</g>
				</g>
			</g>
			<g>
				<g>
					<g>
						<path style="fill:#EEA886;" d="M968.485,982.415c0,0,40.895-11.302,56.497,20.443c15.601,31.746,8.528,91.929-12.082,97.591
							c-20.61,5.661-50.248-0.858-58.805-20.616c-8.556-19.758-15.38-47.835-13.332-66.016
							C942.812,995.637,957.627,986.759,968.485,982.415z"/>
					</g>
				</g>
			</g>
			<g>
				<g>
					<g>
						<path style="fill:#EEA886;" d="M1002.215,1094.114c0,0-0.45,24.143,2.212,29.289c2.661,5.147-56.943,3.856-56.943,3.856
							s9.393-28.992,4.064-53.692C946.273,1049.12,1002.215,1094.114,1002.215,1094.114z"/>
					</g>
				</g>
			</g>
			<g>
				<g>
					<g>
						<path style="fill:#3A3F47;" d="M948.337,1064.426c0,0,3.185,6.479,18.614,5.433s35.778-19.658,42.328-21.322
							c6.55-1.663,6.939-5.391,6.939-5.391l3.467,6.162l6.712,1.021c0,0-4.561-18.653,5.375-25.223
							c9.938-6.568-4.475-59.472-54.783-46.712c0,0-38.396,7.031-38.91,28.471C937.563,1028.304,940.884,1053.069,948.337,1064.426z
							"/>
					</g>
				</g>
			</g>
			<g>
				<g>
					<g>
						<path style="fill:#E2D2CA;" d="M1007.56,1122.784c0,0-0.167-9.834-4.624-10.777c-4.458-0.942-46.855-6.774-52.325-4.623
							l-2.348,12.984C948.264,1120.368,958.806,1126.856,1007.56,1122.784z"/>
					</g>
				</g>
			</g>
			<g>
				<g>
					<g>
						<path style="fill:#EEA886;" d="M1019.828,1038.749c-1.144-8.061-10.308-17.318-15.556-4.764
							c-5.248,12.554,3.543,30.837,9.431,29.856C1019.591,1062.862,1021.381,1049.686,1019.828,1038.749z"/>
					</g>
				</g>
			</g>
			<g>
				<g>
					<g>
						<path style="fill:#323657;" d="M1185.139,1238.976c-0.021-0.01-0.044-0.012-0.073-0.006
							C1185.373,1239.104,1185.416,1239.115,1185.139,1238.976z"/>
					</g>
				</g>
			</g>
			<g>
				<g>
					<g>
						<path style="fill:#3A3F47;" d="M956.558,988.171c0,0-49.86-2.347-8.702,75.49L956.558,988.171z"/>
					</g>
				</g>
			</g>
			<g>
				<g>
					<polygon style="fill:#918783;" points="845.464,1780.246 849.173,1790.68 1005.893,1742.12 998.382,1720.992 					"/>
				</g>
			</g>
			<g>
				<g>
					<rect x="993.456" y="1564.3" style="fill:#918783;" width="17.813" height="170.387"/>
				</g>
			</g>
			<g>
				<g>
					<rect x="949.831" y="1555.246" style="fill:#5E5854;" width="105.063" height="10.04"/>
				</g>
			</g>
			<g>
				<g>
					<polygon style="fill:#918783;" points="1160.639,1780.246 1156.93,1790.68 1000.209,1742.12 1007.097,1719.666 					"/>
				</g>
			</g>
			<g>
				<g>
					<polygon style="fill:#918783;" points="1050.219,1789.563 1050.219,1801.7 1000.209,1742.12 1007.097,1719.666 					"/>
				</g>
			</g>
			<g>
				<g>
					<circle style="fill:#BFB2AC;" cx="1160.639" cy="1794.759" r="14.646"/>
				</g>
			</g>
			<g>
				<g>
					<circle style="fill:#BFB2AC;" cx="1036.816" cy="1794.759" r="14.646"/>
				</g>
			</g>
			<g>
				<g>
					<circle style="fill:#BFB2AC;" cx="845.464" cy="1794.759" r="14.646"/>
				</g>
			</g>
			<g>
				<path style="fill:#E2D2CA;" d="M1110.365,1555.246H895.737c-9.464,0-17.136-7.672-17.136-17.136v-3.76
					c0-9.463,7.672-17.135,17.136-17.135h214.628c9.463,0,17.135,7.672,17.135,17.135v3.76
					C1127.5,1547.574,1119.828,1555.246,1110.365,1555.246z"/>
			</g>
			<g>
				<rect x="1555.381" y="1357.399" style="fill:#706865;" width="14.195" height="437.359"/>
			</g>
			<g>
				<path style="fill:#B8ABA5;" d="M1443.563,1265.241h-334.034c-9.44,0-17.094-7.652-17.094-17.094v-225.573
					c0-9.44,7.653-17.094,17.094-17.094h334.034c9.441,0,17.094,7.653,17.094,17.094v225.573
					C1460.657,1257.589,1453.004,1265.241,1443.563,1265.241z"/>
			</g>
			<g>
				<rect x="1106.856" y="1019.521" style="fill:#F5F7FF;" width="339.38" height="205.015"/>
			</g>
			<g>
				<path style="fill:#918681;" d="M1431.155,1243.875c0,5.828-6.124,10.554-13.679,10.554c-7.555,0-13.679-4.726-13.679-10.554
					c0-5.829,6.124-10.555,13.679-10.555C1425.031,1233.32,1431.155,1238.046,1431.155,1243.875z"/>
			</g>
			<g>
				<path style="fill:#998E89;" d="M1352.775,1332.863v-4.622c0,0-6.499-28.752-52.467-28.752
					c-45.967,0-45.037,33.374-45.037,33.374H1352.775z"/>
			</g>
			<g>
				<g>
					<path style="fill:#EEA886;" d="M1254.715,1303.762c0,0,9.986-0.775,13.644-2.983c3.659-2.208,25.547-16.929,30.689-14.572
						c5.143,2.357,39.358,12.838,38.17,17.842c-1.188,5.004-4.353,4.521-6.768,3.636c-2.414-0.886-27.26-6.101-29.452-5.222
						c0,0,24.405,8.903,24.503,15.399c0.099,6.495-5.107,8.079-7.422,10.535c-2.313,2.456-5.093,8.557-11.382,9.024
						c-6.289,0.469-36.976-10.21-43.295-10.696c-6.317-0.486-18.01,0.391-18.805-0.638
						C1243.804,1325.059,1254.715,1303.762,1254.715,1303.762z"/>
				</g>
			</g>
			<g>
				<g>
					<g>
						<path style="fill:#DBDFF0;" d="M1072.914,1136.413c-31.84-5.596-65.353-13.63-65.353-13.63l-59.299-2.416
							c0,0-54.422,11.979-75.856,21.661c-2.033,0.917-2.042,48.551-7.621,61.042l17.77,37.488c0,0,10.266,74.261,12.395,107.288
							c0.979,15.161-2.765,146.528-2.765,146.528s5.327,2.63,45.798,7.09c40.471,4.461,141.589-1.612,142.226-6.392
							c0.64-4.781-19.582-177.988-20.478-186.959c-1.374-13.767,3.977-77.38,3.977-77.38c7.625,10.242,27.063,56.498,47.325,78.505
							c11.921,12.947,70.937,20.884,82.06,21.255c24.215,0.807,68.391,5.628,69.682,3.274c1.031-1.415,3.849-39.211,1.079-40.135
							c-2.425-0.809-84.452-5.53-105.468-16.681c-7.689-4.079-30.672-54.197-30.672-54.197S1090.479,1144.307,1072.914,1136.413z"/>
					</g>
				</g>
			</g>
			<g>
				<path style="fill:#E2D2CA;" d="M959.2,1490.579H853.359c-18.171,0-32.902-14.73-32.902-32.902v-171.924
					c0-18.171,14.731-32.902,32.902-32.902H959.2c18.172,0,32.902,14.731,32.902,32.902v171.924
					C992.102,1475.849,977.372,1490.579,959.2,1490.579z"/>
			</g>
			<g>
				<path style="fill:#E2D2CA;" d="M961.687,1545.78c-25.302,0-45.827-8.499-61.011-25.262
					c-34.312-37.882-28.147-104.476-27.867-107.292c0.522-5.248,5.206-9.085,10.445-8.561c5.246,0.521,9.078,5.193,8.562,10.438
					c-0.073,0.76-5.54,61.122,23.054,92.633c11.566,12.747,26.881,18.943,46.817,18.943c5.273,0,9.55,4.276,9.55,9.55
					S966.96,1545.78,961.687,1545.78z"/>
			</g>
			<g>
				<g>
					<g>
						<path style="fill:#DFE1E8;" d="M1227.88,1046.682h-94.512c-1.353,0-2.45-1.097-2.45-2.45v-5.931c0-1.354,1.097-2.45,2.45-2.45
							h94.512c1.354,0,2.451,1.097,2.451,2.45v5.931C1230.331,1045.585,1229.233,1046.682,1227.88,1046.682z"/>
					</g>
				</g>
			</g>
			<g>
				<g>
					<g>
						<path style="fill:#DFE1E8;" d="M1227.88,1069.914h-94.512c-1.353,0-2.45-1.097-2.45-2.45v-5.931c0-1.354,1.097-2.45,2.45-2.45
							h94.512c1.354,0,2.451,1.097,2.451,2.45v5.931C1230.331,1068.817,1229.233,1069.914,1227.88,1069.914z"/>
					</g>
				</g>
			</g>
			<g>
				<g>
					<g>
						<path style="fill:#DFE1E8;" d="M1222.091,1208.205h-82.934c-4.551,0-8.239-3.688-8.239-8.239v-105.998
							c0-4.551,3.689-8.24,8.239-8.24h82.934c4.551,0,8.24,3.689,8.24,8.24v105.998
							C1230.331,1204.517,1226.642,1208.205,1222.091,1208.205z"/>
					</g>
				</g>
			</g>
			<g>
				<g>
					<g>
						<path style="fill:#DFE1E8;" d="M1414.392,1208.205h-150.947c-7.204,0-13.044-5.84-13.044-13.044v-146.267
							c0-7.204,5.84-13.044,13.044-13.044h150.947c7.204,0,13.044,5.84,13.044,13.044v146.267
							C1427.437,1202.365,1421.597,1208.205,1414.392,1208.205z"/>
					</g>
				</g>
			</g>
		</g>
		<g>
			<g>
				<g>
					<path style="fill:#8E4F3A;" d="M1862.323,1138.682c0,0,6.603-14.279,7.68-16.429c1.076-2.149,7.387-5.563,14.886-7.453
						c7.283-1.834,17.193-5.512,18.324-4.807c1.131,0.706,2.455,0.807,3.803,3.952c1.348,3.146,0.757,6.546,0.757,6.546
						s3.484,3.097,2.44,7.232c0,0,3.144,3.063,1.191,7.567c0,0,2.989,3.073,1.293,6.225c0,0-5.849,3.319-7.658,5.173
						c-1.809,1.854-14.446,7.924-27.462,11.881C1877.576,1158.569,1864.015,1158.146,1862.323,1138.682z"/>
				</g>
			</g>
			<g>
				<g>
					<path style="fill:#8E4F3A;" d="M1877.576,1158.569c0,0-16.146,2.817-21.62-0.335c-5.474-3.151,0.898-19.599,0.898-19.599
						l10.223-6.179L1877.576,1158.569z"/>
				</g>
			</g>
			<g>
				<g>
					<path style="fill:#5E3527;" d="M1883.57,1131.763c0,0-0.247,7.898-1.438,10.081s14.893,5.583,14.893,5.583
						S1893.163,1132.319,1883.57,1131.763z"/>
				</g>
			</g>
			<g>
				<g>
					<path style="fill:#7A4432;" d="M1901.187,1110.678c0,0-17.634,8.565-16.605,11.576c1.028,3.011,3.233,3.493,3.233,3.493
						l-5.66,6.818c0,0-1.197,6.63,6.374,5.998c0,0-1.762,6.075,5.476,4.595c0,0,0.627,4.527,4.101,4.433
						c3.473-0.095,14.591-6.075,14.591-6.075s2.014-2.422-1.059-6.329c0,0,2.184-4.222-1.134-7.586c0,0,1.014-5.445-2.603-9.046
						c0,0,0.365-6.072-4.836-8.647C1903.064,1109.907,1901.927,1110.312,1901.187,1110.678z"/>
				</g>
			</g>
			<g>
				<g>
					<path style="fill:#8E4F3A;" d="M1870.526,1121.924c0,0,13.451,0.287,20.727,3.669c1.646,0.766,3.101,1.807,3.011,3.623
						c-0.09,1.816-2.835,3.992-8.668,4.166c-5.833,0.173-13.293,3.065-13.293,3.065S1866.256,1134.869,1870.526,1121.924z"/>
				</g>
			</g>
			<g>
				<path style="fill:#8E4F3A;" d="M1907.9,1118.555c0,0-20.134,6.889-21.504,8.554c-1.37,1.664-3.956-5.683-2.685-7.023
					c1.271-1.342,16.938-9.698,18.666-10.16C1904.104,1109.463,1910.021,1113.504,1907.9,1118.555z"/>
			</g>
			<g>
				<path style="fill:#8E4F3A;" d="M1898.628,1110.765c0,0,31.349-6.422,31.987-2.603c0.64,3.819-2.397,4.462-28.087,11.958
					C1877.551,1127.407,1898.628,1110.765,1898.628,1110.765z"/>
			</g>
			<g>
				<path style="fill:#353A3D;" d="M1683.205,1753.718c0,0,9.991,14.947,24.005,18.176c14.014,3.229,27.818,8.365,27.923,17.209
					c0.105,8.843-40.517,14.118-56.554,5.202c-23.935-13.306-26.368-9.295-29.021-15.946c-2.653-6.65,3.188-24.437,3.015-26.552
					C1652.359,1749.192,1683.205,1753.718,1683.205,1753.718z"/>
			</g>
			<g>
				<path style="fill:#81807E;" d="M1681.653,1746.345c0,0,1.823,7.22,1.552,7.373c-0.271,0.152-31.579,3.883-30.633-1.911
					c0.768-4.699,1.864-9.806,1.864-9.806L1681.653,1746.345z"/>
			</g>
			<g>
				<path style="fill:#353A3D;" d="M1577.839,1752.727c0,0,7.126,14.297,19.302,19.167c13.015,5.206,23.452,11.189,23.215,19.807
					c-0.237,8.616-31.816,17.349-54.79,0.812c-14.515-10.449-19.115-10.5-21.443-17.079c-2.329-6.58,4.043-23.678,3.956-25.745
					C1547.971,1747.134,1577.839,1752.727,1577.839,1752.727z"/>
			</g>
			<g>
				<path style="fill:#81807E;" d="M1578.194,1745.301c0,0-0.086,7.287-0.356,7.426c-0.269,0.138-30.529,2.632-29.761-3.039
					c0.611-4.503,2.937-9.943,2.937-9.943L1578.194,1745.301z"/>
			</g>
			<g>
				<path style="fill:#2D3133;" d="M1689.143,1308.536c0,0,28.113,124.004,34.534,161.776c5.466,32.149,9.821,65.625,7.203,88.834
					c-3.242,28.733-43.916,177.647-42.217,186.071c1.7,8.425-48.491,3.303-48.491,3.303s36.864-168.063,30.685-198.978
					c-4.576-22.897-44.677-175.005-50.822-167.203c-6.145,7.802-13.766,143.554-18.318,166.089
					c-4.551,22.534-18.524,200.591-18.524,200.591s-31.24,4.61-39.584-2.452c0,0-3.799-152.039-0.898-194.287
					c1.105-16.102-18.865-193.053,6.742-264.291C1562.986,1250.342,1689.143,1308.536,1689.143,1308.536z"/>
			</g>
			<g>
				<path style="fill:#DBDFF0;" d="M1872.738,1164.682c0,0-97.391,21.593-116.771,16.825c-8.958-2.203-20.759-14.57-31.972-29.109
					c-3.697-4.789-7.322-9.813-10.771-14.787c-0.01-0.01-0.01-0.021-0.01-0.021c-13.758-19.863-24.538-38.903-24.538-38.903
					s-40.664-47.654-8.033-68.898c0,0,11.842-4.438,22.717,7.219c10.884,11.656,23.652,36.04,26.505,42.26
					c2.852,6.209,42.795,63.821,44.864,65.119c2.07,1.298,19.524-3.295,33.518-4.459c22.818-1.904,57.013-10.789,57.013-10.789
					L1872.738,1164.682z"/>
			</g>
			<path style="fill:#BCC0CF;" d="M1650.121,1019.158c0,0,41.862,8.656,46.829,13.055c5.392,4.683,14.902,50.531,15.47,63.303
				s-5.047,66.121-10.44,85.988c-5.392,19.866-4.401,117.718-0.995,145.247c0,0-84.286,23.939-167.159,13.154
				c0,0,13.893-102.946,10.576-130.169c-4.25-34.876-14.475-115.228-14.475-115.228s7.337-55.971,14.716-62.215
				c7.379-6.244,58.224-13.136,58.224-13.136H1650.121z"/>
			<path style="fill:#8E4F3A;" d="M1632.815,889.719c0,0,50.354-18.633,47.207,48.284c-3.147,66.918-14.948,73.718-48.072,64.372
				c-33.125-9.346-35.9-51.579-40.214-71.896S1616.35,892.64,1632.815,889.719z"/>
			<path style="fill:#8E4F3A;" d="M1656.708,1028.218c0,0-10.363,6.853-49.655-10.456c0,0,1.111-26.939-6.598-52.099
				c-7.708-25.16,52.728,33.547,52.728,33.547c-0.634,0.448-0.755,2.963-0.394,6.471c0.307,2.973,0.958,6.658,1.94,10.397
				C1656.936,1024.489,1656.708,1020.876,1656.708,1028.218z"/>
			<path style="fill:#2D3133;" d="M1598.735,963.668c0,0-0.144-17.876,7.29-19.521c7.434-1.646,8.415-7.59,8.415-7.59l4.265,0.989
				c0,0-0.781-3.147,6.306-7.301c7.087-4.153,49.482-0.505,54.803-6.604c5.32-6.099-2.396-42.321-13.962-45.876
				c-11.566-3.556-38.436-3.229-62.984,3.666c0,0-18.638,4.701-20.048,26.64C1581.906,922.273,1592.687,953.976,1598.735,963.668z"
				/>
			<path style="fill:#633029;" d="M1654.729,1016.078c-39.03-6.562-44.863-28.758-44.951-29.105
				c15.173,19.566,43.012,18.707,43.012,18.707C1653.096,1008.653,1653.747,1012.339,1654.729,1016.078z"/>
			<path style="fill:#434343;" d="M1653.007,1037.007c0,0,7.108,10.485,11.398,37.399c4.29,26.914,3.563,73.281,3.563,73.281
				l-9.884,1.202c0,0-14.959-94.563-12.385-111.038L1653.007,1037.007z"/>
			<path style="fill:#8E4F3A;" d="M1614.44,936.558c-2.225-5.897-14.784-5.154-13.498,4.194
				c1.286,9.349,11.666,23.746,15.834,21.046C1620.944,959.098,1617.507,944.688,1614.44,936.558z"/>
			<path style="fill:#DBDFF0;" d="M1697.486,1032.168c0,0,23.785,31.468,14.973,113.804
				c-15.922,148.78,25.776,387.612,25.776,387.612l-43.018,13.463c0,0-41.108-305.312-30.64-416.117
				c4.77-50.494,18.929-67.295-3.407-109.362C1661.17,1021.567,1682.921,1022.669,1697.486,1032.168z"/>
			<path style="fill:#DBDFF0;" d="M1591.303,1020.876c0,0,68.089,68.777,73.421,120.918c5.333,52.14,14.019,405.253,14.019,405.253
				l-162.101-9.439c0,0,14.898-186.401,18.534-209.719c3.636-23.318,11.159-157.204-5.248-219.33
				c-8.815-33.376,1.673-75.719,21.81-80.341C1571.875,1023.596,1591.303,1020.876,1591.303,1020.876z"/>
			<path style="fill:#DBDFF0;" d="M1568.291,1029.785c0,0,26.223,7.222,11.795,55.352c-11.3,37.698-12.825,45.793-12.825,45.793
				l-60.51-15.114c0,0,17.742-82.807,46.694-87.258C1553.445,1028.558,1562.664,1027.244,1568.291,1029.785z"/>
			<polygon style="fill:#616161;" points="1766.658,1284.522 1648.053,1407.263 1569.273,1331.138 1684.802,1205.423 			"/>
			<polygon style="fill:#E0CEC7;" points="1755.445,1286.964 1650.108,1395.974 1580.142,1328.364 1682.746,1216.713 			"/>
			<polygon style="fill:#616161;" points="1731.174,1268.748 1738.567,1261.097 1710.281,1233.764 1701.782,1240.347 			"/>
			<path style="fill:#A7AAB8;" d="M1607.066,1010.315c0,0,20.54,12.39,40.864,15.181l-10.813,17.247l-34.251-23.584
				L1607.066,1010.315z"/>
			<path style="fill:#A7AAB8;" d="M1654.729,1016.078c0,0-2.164,7.1-6.798,9.417l10.153,14.157l-0.371-18.776L1654.729,1016.078z"/>
			<path style="fill:#434343;" d="M1647.931,1025.495l8.04,11.211c0,0-5.087,6.435-16.046,1.559L1647.931,1025.495z"/>
			<path style="fill:#A7AAB8;" d="M1723.996,1152.387v0.011c-3.697-4.789-7.322-9.813-10.771-14.787
				c-0.01-0.01-0.01-0.021-0.01-0.021s1.297-36.277,0.164-46.698C1713.379,1090.892,1725.231,1129.97,1723.996,1152.387z"/>
			<path style="fill:#A7AAB8;" d="M1556.905,1128.344c0,0-7.906,51.447-7.352,54.745
				C1550.107,1186.388,1513.762,1172.756,1556.905,1128.344z"/>
			<rect x="1680.595" y="1109.932" style="fill:#C6CAD9;" width="19.108" height="29.175"/>
			<path style="fill:#8E4F3A;" d="M1614.765,1249.805c0,0,1.749,3.461,4.656,4.628c5.019,2.016,13.047-1.182,16.153,6.002
				c3.106,7.184-16.917,24.055-21.938,24.931c-5.02,0.877-12.129-7.338-16.764-23.181
				C1592.237,1246.343,1614.765,1249.805,1614.765,1249.805z"/>
			<path style="fill:#8E4F3A;" d="M1634.178,1258.179c0,0,8.622,7.705,17.143,17.503c7.476,8.596,14.672,20.143,13.385,22.321
				c-2.861,4.844-9.814-5.973-17.807-13.975c-7.359-7.365-6.143-6.076-6.143-6.076s-0.011-0.785,6.414,8.873
				c6.908,10.383,12.927,21.769,11.293,24.298c-0.795,1.231-4.013,4.242-5.554-0.722c1.38,2.321,1.624,1.751,0.701,2.456
				c-4.776,3.644-17.333-9.938-22.318-15.333c3.803,4.169,6.139,7.655,1.83,8.01c-4.929,0.404-21.798-19.639-28.54-26.207
				C1597.228,1272.162,1634.178,1258.179,1634.178,1258.179z"/>
			<path style="fill:#DBDFF0;" d="M1571.426,1033.009c5.489,2.125,7.567,11.868,5.312,40.107
				c-2.256,28.238-12.196,41.229-15.905,47.76c-3.709,6.532-24.107,46.797-20.44,52.094c3.666,5.297,38.296,39.462,40.301,42.244
				c2.005,2.782,40.668,37.78,40.668,37.78l-19.685,27.507c0,0-83.489-65.214-90.003-71.725c-6.515-6.51-25.984-20.19-18.782-42.935
				c7.319-23.116,20.474-77.234,22.809-81.466C1518.037,1080.146,1535.132,1018.955,1571.426,1033.009z"/>
		</g>
		<g>
			<path style="fill:#163342;" d="M2291.963,1698.656c0,0-2.913,6.887-8.414,14.064c-4.033,5.263-16.576,26.873-22.101,28.38
				c-5.525,1.507-22.604,4.521-24.11,14.064s-2.261,16.324,14.566,17.078c16.827,0.753,27.878,1.758,35.914-10.046
				c8.037-11.805,20.846-20.344,20.846-20.344v30.799h6.53c0,0,3.014-32.054,4.771-34.314s6.279-26.873-9.292-39.682
				C2295.102,1685.848,2291.963,1698.656,2291.963,1698.656z"/>
			<path style="fill:#EEA886;" d="M2261.448,1741.101c0,0,15.068,3.768,20.846,0c5.776-3.768,25.414-36.96,31.92-38.948
				c0,0-6.303-12.789-22.251-3.496C2291.963,1698.656,2265.718,1735.575,2261.448,1741.101z"/>
			<path style="fill:#163342;" d="M2295.92,955.854c0,0-32.489,68.503-10.125,72.6c30.709,5.625,43.134-51.114,43.134-51.114
				L2295.92,955.854z"/>
			<g>
				<g>
					<g>
						<path style="fill:#EEA886;" d="M2118.5,1126.038c0,0-10.156-3.187-10.976-9.206c-0.695-5.119-5.292-11.231-6.703-13.116
							c-1.888-2.521-4.801-12.417-8.003-10.067s4.017,16.545,4.936,19.824s-12.973-2.961-16.411-2.103
							c-3.438,0.858-12.469,24.455-2.438,27.634s22.844-0.045,24.497,0.864s7.206,2.602,7.206,2.602L2118.5,1126.038z"/>
					</g>
				</g>
			</g>
			<g>
				<g>
					<g>
						<path style="fill:#EEA886;" d="M2083.86,1111.56c0,0-31.354-7.693-33.872-6.457s-2.835,2.959,0.066,3.801
							s30.078,8.311,30.078,8.311s-38.639-2.871-40.924-2.31c-1.338,0.329-2.148,3.63-0.637,4.224s39.645,5.63,39.645,5.63
							s-36.08-2.615-37.852-1.576c-1.55,0.91-1.534,4.126,1.128,4.503c2.662,0.378,36.014,4.699,36.014,4.699
							s-26.381-0.253-27.36,1.51c-0.6,1.078-1.433,3.898,5.377,3.75c6.81-0.147,22.91,1.191,22.91,1.191L2083.86,1111.56z"/>
					</g>
				</g>
			</g>
			<path style="fill:#163342;" d="M2376.198,1718.623c0,0-16.827,24.989-23.608,31.017c0,0-15.068,5.525-16.575,16.073
				c-1.507,10.549-1.256,17.587,16.575,18.089c17.832,0.503,29.522-2.699,32.787-13.499s10.411-18.151,10.411-18.151v22.604h4.019
				c0,0,1.005-21.851,1.256-25.869c0.251-4.018,2.886-19.468-5.59-26.31C2386.998,1715.734,2376.198,1718.623,2376.198,1718.623z"/>
			<path style="fill:#2D3133;" d="M2387.5,1236.289c0,0,21.248,27.627,27.012,60.401c5.764,32.775-3.403,142.779-3.152,158.979
				s15.32,56.508,12.307,87.023c-3.014,30.515-14.908,182.391-14.908,182.391l-32.56-6.46c0,0,1.884-154.834,0-167.644
				c-1.884-12.809-5.664-59.497-6.417-64.771c-0.754-5.273-47.831-143.764-47.831-167.395
				C2321.95,1295.184,2336.266,1197.737,2387.5,1236.289z"/>
			<path style="fill:#2D3133;" d="M2280.762,1247.089c0,0-34.91,133.234-39.055,151.694c-4.144,18.46-10.146,33.684-10.146,41.521
				c0,18.185,6.756,47.386,6.756,47.386l44.329,212.018h42.221c0,0-23.523-127.196-24.157-152.069
				c-0.635-24.927-19.823-60.325-16.056-70.873c3.768-10.549,60.652-132.231,60.652-132.231S2388.379,1208.411,2280.762,1247.089z"
				/>
			<path style="fill:#EEA886;" d="M2352.59,1749.64c0,0,17.23,9.634,28.327-2.736c9.369-10.443,14.556-24.327,14.556-24.327
				l-19.274-3.953L2352.59,1749.64z"/>
			<g>
				<path style="fill:#DBDFF0;" d="M2295.18,1020.672c0,0-14.393,1.357-25.269,13.01c-10.875,11.652-21.081,30.233-23.93,36.447
					c-2.849,6.215-42.775,63.808-44.847,65.102c-2.071,1.295-19.521-3.292-33.504-4.458c-22.814-1.901-56.947-13.525-56.947-13.525
					l-5.067,25.781c0,0,83.943,27.09,103.315,22.317c23.688-5.836,78.221-75.796,78.221-75.796S2327.806,1041.905,2295.18,1020.672z
					"/>
			</g>
			<g>
				<path style="fill:#2F4563;" d="M2320.297,1010.574c0,0-18.645,8.804-25.117,10.098c-6.474,1.295-31.591,33.921-35.992,45.832
					c-4.402,11.911,0,29.778,9.063,50.752s0.518,27.965,4.661,48.938c4.143,20.975,2.81,99.438,2.033,111.09
					c-0.777,11.652,121.198,29.314,145.279,8.082c0,0-16.302-70.716-35.604-90.897c-4.174-4.365-3.732-33.453-0.885-40.703
					c2.849-7.25,34.957-61.368,34.957-61.368s2.357-54.89-11.652-65.77c-12.17-9.451-45.339-12.821-51.294-14.893
					C2349.791,1009.664,2332.467,1008.761,2320.297,1010.574z"/>
			</g>
			<g>
				<path style="fill:#EEA886;" d="M2311.398,989.06c0,0,3.719,34.201,2.942,45.335c0,0,19.371,19.414,41.405-22.66
					c0,0-9.271-17.342-2.293-40.972C2360.432,947.134,2311.398,989.06,2311.398,989.06z"/>
			</g>
			<path style="fill:#AAADBA;" d="M2257.17,1124.989c0,0-4.664-31.017,0.295-49.879c0,0,0,16.221,8.894,39.254L2257.17,1124.989z"/>
			<path style="fill:#EEA987;" d="M2368.633,924.894c0,0,4.274-5.133,5.869,0.036c1.594,5.17-3.628,20.537-4.202,22.762
				c0,0-2.591,8.624-3.625,7.523C2365.641,954.115,2368.633,924.894,2368.633,924.894z"/>
			<path style="fill:#EEA987;" d="M2293.962,925.533c0,0-4.274-5.133-5.868,0.037c-1.594,5.169,3.627,20.536,4.201,22.761
				c0,0,2.591,8.624,3.625,7.523C2296.955,954.754,2293.962,925.533,2293.962,925.533z"/>
			<path style="fill:#EEA987;" d="M2324.59,875.759c0,0-39.234,6.041-33.49,67.842c5.744,61.8,40.37,56.895,42.684,56.843
				c2.313-0.052,34.738,1.285,37.543-74.125C2371.326,926.318,2372.635,870.553,2324.59,875.759z"/>
			<path style="fill:#163342;" d="M2363.801,922.624c0,0-43.545,12.949-64.392,8.809c0,0-1.33,7.69-4.324,8.164
				c-2.993,0.473-4.523-14.702-4.523-14.702s-1.021-50.256,44.442-50.728c45.463-0.474,36.227,54.435,36.227,54.435l-0.618,9.385
				C2370.612,937.985,2364.101,940.556,2363.801,922.624z"/>
			<path style="fill:#A77860;" d="M2349.211,994.545c0,0-13.737,13.017-34.87,1.071c0,0,6.243,10.429,18.089,10.166
				C2344.274,1005.519,2349.211,994.545,2349.211,994.545z"/>
			<path style="fill:#EEA886;" d="M2370.63,1014.724c0,0-13.325,39.36-49.914,36.465c-36.589-2.895-17.346-33.234-17.346-33.234
				s9.119-5.229,11.686-5.723c2.567-0.494,40.453-0.974,40.453-0.974L2370.63,1014.724z"/>
			<path style="fill:#DBDFF0;" d="M2303.37,1017.954c0,0-19.162,53.009-19.162,107.035c0,54.027-1.544,142.036-8.235,169.828
				c-6.69,27.793-25.733,113.742-25.733,113.742l-14.925-7.72c0,0,35.891-137.173,38.6-147.064
				c2.71-9.892-2.059-114.388-4.632-123.138c-2.573-8.749-13.519-47.695-11.817-58.501c2.146-13.621,14.892-33.776,35.479-51.106
				L2303.37,1017.954z"/>
			<path style="fill:#DBDFF0;" d="M2363.401,1013.066c0,0-11.912,38.139-17.947,86.983c-6.036,48.846,18.528,275.571,34.997,327.038
				l63.819-10.293c0,0-13.737-160.261-32.386-189.427c-18.649-29.166-24.584-54.968-4.452-115.841s-8.825-91.02-8.825-91.02
				S2368.996,1013.698,2363.401,1013.066z"/>
			<polygon style="fill:#616161;" points="2294.549,1174.801 2371.93,1308.828 2457.953,1259.162 2383.933,1123.194 			"/>
			<polygon style="fill:#E0CEC7;" points="2303.877,1179.411 2372.601,1298.444 2449,1254.335 2383.262,1133.578 			"/>
			<polygon style="fill:#616161;" points="2329.23,1168.718 2324.406,1160.362 2355.293,1142.529 2361.324,1150.188 			"/>
			<g>
				<g>
					<g>
						<g>
							<g>
								<path style="fill:#EEA886;" d="M2332.917,1263.813c0,0,3.519,0.016,5.061-0.728c0,0,2.703-1.569,4.691-2.567
									c0.632-0.314,1.189-0.575,1.567-0.705c1.578-0.547,5.205-1.272,8.627-3.648c3.419-2.371,15.536-16.4,15.536-16.4
									l-5.723-8.702l-4.196-8.911c0,0-25.441,1.644-28.884,3.485c-0.336,0.183-0.66,0.374-0.95,0.578
									c-2.764,1.842-4.045,4.374-5.386,5.506c-0.489,0.419-5.076,4.908-4.916,6.82c0.219,2.653,1.446,4.403,3.048,5.277
									c0,0,0.657,5.177,3.209,7.591c0,0,0.453,4.795,4.482,6.895C2329.084,1258.303,2330.089,1263.115,2332.917,1263.813z"/>
							</g>
						</g>
					</g>
				</g>
			</g>
			<g>
				<path style="fill:#DBDFF0;" d="M2385.354,1020.672c0,0,23.499-6.731,36.964,19.162s13.398,36.942,15.197,49.586
					c1.7,11.939,9.37,44.535,10.147,47.901c0.776,3.366,18.148,43.507,10.183,57.536c-8.008,14.104-89.341,55.612-88.823,58.72
					s-14.086-31.384-14.086-31.384s32.909-18.344,38.3-23.991c8.755-9.174,27.225-19.06,23.431-30.439
					c-4.458-13.37-17.847-58.473-20.954-65.076C2392.604,1096.084,2365.546,1029.088,2385.354,1020.672z"/>
			</g>
		</g>
	</g>
</g>
</svg>
