<?xml version="1.0" encoding="utf-8"?>
<!-- Generator: Adobe Illustrator 27.5.0, SVG Export Plug-In . SVG Version: 6.00 Build 0)  -->
<svg version="1.1" xmlns="http://www.w3.org/2000/svg" xmlns:xlink="http://www.w3.org/1999/xlink" x="0px" y="0px"
	 viewBox="0 0 500 500" style="enable-background:new 0 0 500 500;" xml:space="preserve">
<g id="BACKGROUND">
	<rect style="fill:#FFFFFF;" width="500" height="500"/>
</g>
<g id="OBJECTS">
	<g>
		<g>
			<path style="fill:#EBEBEB;" d="M239.606,92.495l31.496,31.496c-9.998,10.945-15.825,24.988-16.493,39.745h-0.071v1v262.198
				h-44.463l0-262.181C210.536,137.72,221.014,112.101,239.606,92.495 M239.59,91.065c-18.5,19.149-30.028,45.063-30.515,73.671
				v263.198h46.463V164.736h0.034c0.47-15.749,6.817-30.045,16.918-40.771L239.59,91.065L239.59,91.065z"/>
		</g>
		<g>
			<path style="fill:#EBEBEB;" d="M314.93,58.991v44.516c-14.754,0.668-28.796,6.495-39.741,16.493L243.69,88.504
				C263.052,70.143,288.275,59.694,314.93,58.991 M315.93,57.969c-28.607,0.488-54.522,12.019-73.67,30.519l32.903,32.9
				c10.722-10.097,25.019-16.448,40.767-16.918V57.969L315.93,57.969z"/>
		</g>
		<g>
			<path style="fill:#EBEBEB;" d="M317.818,109.125c0.646,0,1.268,0.011,1.855,0.033c13.94,0.439,27.239,5.958,37.449,15.543
				c0.9,0.836,1.78,1.717,2.621,2.621c9.581,10.21,15.101,23.508,15.543,37.447c0.01,0.284,0.017,0.569,0.022,0.854h-0.022v1v260.31
				H260.319V165.736h0.004l0.03-0.969c0.439-13.939,5.957-27.239,15.542-37.45c0.849-0.911,1.731-1.79,2.626-2.619
				c10.207-9.582,23.504-15.1,37.448-15.54C316.549,109.136,317.171,109.125,317.818,109.125 M317.818,108.125
				c-0.631,0-1.263,0.01-1.888,0.034c-14.704,0.463-28.058,6.389-38.094,15.81c-0.923,0.855-1.815,1.747-2.673,2.667
				c-9.422,10.039-15.347,23.396-15.81,38.101h-0.035v263.198h116.967v-261.31h0.031c0-0.632-0.009-1.263-0.031-1.888
				c-0.466-14.705-6.393-28.059-15.813-38.098c-0.858-0.923-1.747-1.812-2.67-2.67c-10.035-9.421-23.39-15.347-38.098-15.81
				C319.08,108.135,318.449,108.125,317.818,108.125L317.818,108.125z"/>
		</g>
		<g>
			<path style="fill:#EBEBEB;" d="M320.705,58.991c26.658,0.7,51.883,11.149,71.245,29.513L360.449,120
				c-10.948-9.998-24.991-15.825-39.744-16.493V58.991 M319.705,57.969v46.501c15.752,0.47,30.046,6.821,40.77,16.918l32.904-32.9
				C374.231,69.985,348.316,58.453,319.705,57.969L319.705,57.969z"/>
		</g>
		<g>
			<path style="fill:#EBEBEB;" d="M396.033,92.495c18.592,19.606,29.071,45.225,29.531,72.241v262.198h-44.498l0-262.228
				c-0.454-15.112-6.316-29.531-16.533-40.715L396.033,92.495 M396.048,91.065l-32.903,32.9
				c10.101,10.725,16.448,25.022,16.921,40.771v263.198h46.498V164.736C426.077,136.129,414.548,110.214,396.048,91.065
				L396.048,91.065z"/>
		</g>
	</g>
	<line style="fill:none;stroke:#EBEBEB;stroke-miterlimit:10;" x1="156.121" y1="442.031" x2="156.121" y2="77.818"/>
	<g>
		<g>
			<g>
				<rect x="117.585" y="269.705" style="fill:#FFFFFF;" width="27.688" height="12.683"/>
				<path style="fill:#EBEBEB;" d="M144.774,270.205v11.683h-26.689v-11.683H144.774 M145.774,269.205h-28.689v13.683h28.689
					V269.205L145.774,269.205z"/>
			</g>
			<path style="fill:#EBEBEB;" d="M145.933,271.487h-29.007c-0.677,0-1.226-0.549-1.226-1.226v-5.22
				c0-0.677,0.549-1.226,1.226-1.226h29.007c0.677,0,1.226,0.549,1.226,1.226v5.22C147.159,270.938,146.61,271.487,145.933,271.487z
				"/>
			<path style="fill:#DBDBDB;" d="M145.933,271.487h-11.438c-0.677,0-1.226-0.549-1.226-1.226v-5.22
				c0-0.677,0.549-1.226,1.226-1.226h11.438c0.677,0,1.226,0.549,1.226,1.226v5.22C147.159,270.938,146.61,271.487,145.933,271.487z
				"/>
			<rect x="117.085" y="273.772" style="fill:#EBEBEB;" width="28.689" height="4.549"/>
			<rect x="134.931" y="269.205" style="fill:#DBDBDB;" width="10.843" height="13.683"/>
		</g>
		<g>
			<g>
				<path style="fill:#FFFFFF;" d="M161.157,284.507c-11.992,0-19.331-9.212-19.331-14.228c0-0.773,0.194-1.401,0.562-1.815
					c0.384-0.432,0.968-0.651,1.735-0.651c2.699,0,5.084,0.755,7.608,1.555c2.826,0.896,5.748,1.821,9.426,1.821
					c4.598,0,8.096-0.588,11.181-1.107c2.524-0.424,4.909-0.824,7.476-0.824c1.541,0,1.771,1.381,1.771,2.204
					c0,1.912-1.266,5.186-4.834,8.119C174.018,281.828,169.094,284.507,161.157,284.507z"/>
				<path style="fill:#EBEBEB;" d="M144.123,268.313c2.622,0,4.971,0.744,7.457,1.532c2.862,0.907,5.821,1.844,9.576,1.844
					c4.64,0,8.159-0.591,11.264-1.113c2.612-0.439,4.867-0.818,7.393-0.818c0.314,0,1.271,0,1.271,1.704
					c0,1.946-1.438,5.091-4.651,7.733c-2.67,2.195-7.488,4.812-15.277,4.812c-12.424,0-18.831-9.622-18.831-13.727
					c0-0.453,0.076-1.078,0.436-1.483C143.047,268.475,143.505,268.313,144.123,268.313 M144.123,267.313
					c-7.287,0,0.108,17.694,17.034,17.694c19.603,0,24.409-16.249,18.658-16.249c-5.752,0-10.317,1.931-18.658,1.931
					C154.255,270.689,149.928,267.313,144.123,267.313L144.123,267.313z"/>
			</g>
			<path style="fill:#DBDBDB;stroke:#EBEBEB;stroke-linecap:round;stroke-linejoin:round;stroke-miterlimit:10;" d="
				M181.487,269.232c-0.446-1.013-2.67-0.929-6.028-0.438c-16.512,2.417-20.979,0.498-27.199-1.042
				c-3.499-0.866-5.828-0.951-6.384,0.287c-0.549,1.224,4.192,6.969,20.785,7.061C179.573,275.196,182.085,270.589,181.487,269.232z
				"/>
		</g>
		<g>
			<g>
				<rect x="149.542" y="333.692" style="fill:#FFFFFF;" width="11.857" height="10.543"/>
				<path style="fill:#EBEBEB;" d="M160.899,334.191v9.543h-10.857v-9.543H160.899 M161.899,333.191h-12.857v11.543h12.857V333.191
					L161.899,333.191z"/>
			</g>
			<path style="fill:#EBEBEB;" d="M162.771,337.643h-14.6c-2.875,0-5.206,2.331-5.206,5.206v25.763c0,0.785,0.637,1.422,1.422,1.422
				h22.168c0.785,0,1.422-0.637,1.422-1.422v-25.763C167.977,339.974,165.646,337.643,162.771,337.643z"/>
			<g>
				<path style="fill:#FFFFFF;" d="M144.386,369.534c-0.508,0-0.922-0.413-0.922-0.922v-25.764c0-2.595,2.111-4.706,4.706-4.706
					h6.212c2.595,0,4.706,2.111,4.706,4.706v25.764c0,0.509-0.414,0.922-0.922,0.922H144.386z"/>
				<path style="fill:#EBEBEB;" d="M154.383,338.643c2.319,0,4.206,1.887,4.206,4.206v25.763c0,0.233-0.189,0.422-0.422,0.422
					h-13.78c-0.233,0-0.422-0.189-0.422-0.422v-25.763c0-2.319,1.887-4.206,4.206-4.206H154.383 M154.383,337.643h-6.212
					c-2.875,0-5.206,2.331-5.206,5.206v25.763c0,0.785,0.637,1.422,1.422,1.422h13.78c0.785,0,1.422-0.637,1.422-1.422v-25.763
					C159.589,339.974,157.258,337.643,154.383,337.643L154.383,337.643z"/>
			</g>
			<path style="fill:#EBEBEB;" d="M161.673,335.339h-12.403c-0.617,0-1.117-0.5-1.117-1.117v-6.641c0-0.617,0.5-1.117,1.117-1.117
				h12.403c0.617,0,1.117,0.5,1.117,1.117v6.641C162.789,334.839,162.289,335.339,161.673,335.339z"/>
			<rect x="147.507" y="333.594" style="fill:#EBEBEB;" width="15.928" height="2.792"/>
			<g>
				<rect x="150.272" y="328.605" style="fill:#DBDBDB;" width="0.754" height="4.989"/>
				<rect x="153.487" y="328.605" style="fill:#DBDBDB;" width="0.754" height="4.989"/>
				<rect x="156.701" y="328.605" style="fill:#DBDBDB;" width="0.754" height="4.989"/>
				<rect x="159.916" y="328.605" style="fill:#DBDBDB;" width="0.754" height="4.989"/>
			</g>
			<rect x="148.153" y="332.604" style="fill:#DBDBDB;" width="14.637" height="0.989"/>
			<rect x="142.962" y="345.953" style="fill:#EBEBEB;" width="25.021" height="16.484"/>
			<rect x="158.38" y="345.953" style="fill:#DBDBDB;" width="9.603" height="16.484"/>
		</g>
		<g>
			<g>
				
					<rect x="104.001" y="282.741" transform="matrix(-1 -1.224647e-16 1.224647e-16 -1 292.2601 574.398)" style="fill:#DBDBDB;" width="84.258" height="8.917"/>
				
					<rect x="86.319" y="282.741" transform="matrix(-1 -1.224647e-16 1.224647e-16 -1 256.8973 574.398)" style="fill:#EBEBEB;" width="84.258" height="8.917"/>
			</g>
			
				<rect x="174.827" y="291.657" transform="matrix(-1 -1.224647e-16 1.224647e-16 -1 356.4209 733.6884)" style="fill:#DBDBDB;" width="6.766" height="150.374"/>
			
				<rect x="156.121" y="291.657" transform="matrix(-1 -1.224647e-16 1.224647e-16 -1 319.0086 733.6884)" style="fill:#EBEBEB;" width="6.766" height="150.374"/>
			
				<rect x="112.739" y="291.657" transform="matrix(-1 -1.224647e-16 1.224647e-16 -1 232.2441 733.6884)" style="fill:#DBDBDB;" width="6.766" height="150.374"/>
			
				<rect x="94.033" y="291.657" transform="matrix(-1 -1.224647e-16 1.224647e-16 -1 194.8318 733.6884)" style="fill:#EBEBEB;" width="6.766" height="150.374"/>
			<g>
				
					<rect x="104.001" y="369.22" transform="matrix(-1 -1.224647e-16 1.224647e-16 -1 292.2601 747.3568)" style="fill:#DBDBDB;" width="84.258" height="8.917"/>
				
					<rect x="86.319" y="369.22" transform="matrix(-1 -1.224647e-16 1.224647e-16 -1 256.8973 747.3568)" style="fill:#EBEBEB;" width="84.258" height="8.917"/>
			</g>
		</g>
		<g>
			<g>
				<g>
					<path style="fill:#94A9E4;" d="M109.025,252.31h-6.921c-2.875,0-5.206,2.331-5.206,5.206v23.802
						c0,0.785,0.637,1.422,1.422,1.422h14.489c0.785,0,1.422-0.637,1.422-1.422v-23.802
						C114.231,254.641,111.901,252.31,109.025,252.31z"/>
					<path style="fill:#7491E0;" d="M114.236,259.118v22.13c0,0.824-0.668,1.491-1.491,1.491H98.388
						c-0.824,0-1.491-0.668-1.491-1.491v-22.13c0-3.242,2.262-5.956,5.302-6.634c0.49-0.113,0.993-0.176,1.508-0.176h3.719
						C111.187,252.308,114.236,255.357,114.236,259.118z"/>
					<rect x="101.11" y="248.128" style="fill:#7491E0;" width="8.909" height="10.844"/>
					<path style="fill:#38474F;" d="M109.783,250.981h-8.435c-0.617,0-1.117-0.5-1.117-1.117v-4.236c0-0.617,0.5-1.117,1.117-1.117
						h8.435c0.617,0,1.117,0.5,1.117,1.117v4.236C110.899,250.481,110.399,250.981,109.783,250.981z"/>
					<rect x="99.76" y="249.709" style="fill:#38474F;" width="11.61" height="2.035"/>
					<g>
						<rect x="101.776" y="246.072" style="fill:#263238;" width="0.549" height="3.636"/>
						<rect x="104.119" y="246.072" style="fill:#263238;" width="0.55" height="3.636"/>
						<rect x="106.462" y="246.072" style="fill:#263238;" width="0.55" height="3.636"/>
						<rect x="108.805" y="246.072" style="fill:#263238;" width="0.55" height="3.636"/>
					</g>
					<rect x="100.23" y="248.988" style="fill:#263238;" width="10.669" height="0.721"/>
					<path style="fill:#94A9E4;" d="M107.489,259.118v19.425c0,2.318-1.879,4.197-4.197,4.197h-4.904
						c-0.824,0-1.491-0.668-1.491-1.491v-22.13c0-2.534,1.382-4.745,3.437-5.914c1.148-0.653,2.579-0.65,3.724,0.006
						C106.107,254.385,107.489,256.594,107.489,259.118z"/>
					<rect x="96.897" y="260.117" style="fill:#EBEBEB;" width="17.339" height="15.486"/>
					<rect x="107.581" y="260.117" style="fill:#DBDBDB;" width="6.655" height="15.486"/>
				</g>
			</g>
		</g>
		<g>
			<g>
				<rect x="119.645" y="340.104" style="fill:#FFFFFF;" width="9.619" height="8.534"/>
				<path style="fill:#EBEBEB;" d="M128.764,340.604v7.534h-8.619v-7.534H128.764 M129.764,339.604h-10.619v9.534h10.619V339.604
					L129.764,339.604z"/>
			</g>
			<path style="fill:#EBEBEB;" d="M129.578,343.281h-10.247c-2.875,0-5.206,2.331-5.206,5.206v20.125
				c0,0.785,0.637,1.422,1.422,1.422h17.815c0.785,0,1.422-0.637,1.422-1.422v-20.125
				C134.784,345.612,132.453,343.281,129.578,343.281z"/>
			<g>
				<path style="fill:#FFFFFF;" d="M115.547,369.534c-0.508,0-0.922-0.413-0.922-0.922v-20.126c0-2.595,2.111-4.706,4.706-4.706
					h3.318c2.595,0,4.706,2.111,4.706,4.706v20.126c0,0.509-0.414,0.922-0.922,0.922H115.547z"/>
				<path style="fill:#EBEBEB;" d="M122.65,344.281c2.319,0,4.206,1.887,4.206,4.206v20.125c0,0.233-0.189,0.422-0.422,0.422
					h-10.886c-0.233,0-0.422-0.189-0.422-0.422v-20.125c0-2.319,1.887-4.206,4.206-4.206H122.65 M122.65,343.281h-3.319
					c-2.875,0-5.206,2.331-5.206,5.206v20.125c0,0.785,0.637,1.422,1.422,1.422h10.886c0.785,0,1.422-0.637,1.422-1.422v-20.125
					C127.856,345.612,125.525,343.281,122.65,343.281L122.65,343.281z"/>
			</g>
			<path style="fill:#EBEBEB;" d="M129.383,341.378h-9.856c-0.617,0-1.117-0.5-1.117-1.117v-5.097c0-0.617,0.5-1.117,1.117-1.117
				h9.856c0.617,0,1.117,0.5,1.117,1.117v5.097C130.499,340.878,129.999,341.378,129.383,341.378z"/>
			<rect x="117.877" y="339.936" style="fill:#EBEBEB;" width="13.156" height="2.306"/>
			<g>
				<rect x="120.161" y="335.816" style="fill:#DBDBDB;" width="0.623" height="4.12"/>
				<rect x="122.816" y="335.816" style="fill:#DBDBDB;" width="0.623" height="4.12"/>
				<rect x="125.471" y="335.816" style="fill:#DBDBDB;" width="0.623" height="4.12"/>
				<rect x="128.126" y="335.816" style="fill:#DBDBDB;" width="0.623" height="4.12"/>
			</g>
			<rect x="118.41" y="339.119" style="fill:#DBDBDB;" width="12.089" height="0.817"/>
			<rect x="114.123" y="350.144" style="fill:#EBEBEB;" width="20.666" height="13.615"/>
			<rect x="126.858" y="350.144" style="fill:#DBDBDB;" width="7.932" height="13.615"/>
		</g>
		<g>
			<g>
				<rect x="133.477" y="348.032" style="fill:#FFFFFF;" width="6.852" height="6.051"/>
				<path style="fill:#EBEBEB;" d="M139.829,348.532v5.05h-5.852v-5.05H139.829 M140.829,347.532h-7.852v7.05h7.852V347.532
					L140.829,347.532z"/>
			</g>
			<path style="fill:#EBEBEB;" d="M139.336,350.251h-4.865c-2.875,0-5.206,2.331-5.206,5.206v13.156
				c0,0.785,0.637,1.422,1.422,1.422h12.433c0.785,0,1.422-0.637,1.422-1.422v-13.156
				C144.542,352.582,142.211,350.251,139.336,350.251z"/>
			<g>
				<path style="fill:#FFFFFF;" d="M130.539,369.534c-0.427,0-0.774-0.348-0.774-0.774v-13.843c0-2.297,1.869-4.166,4.166-4.166
					h0.821c2.297,0,4.166,1.869,4.166,4.166v13.843c0,0.427-0.347,0.774-0.774,0.774H130.539z"/>
				<path style="fill:#EBEBEB;" d="M134.752,351.251c2.021,0,3.666,1.645,3.666,3.666v13.843c0,0.151-0.123,0.275-0.275,0.275
					h-7.604c-0.151,0-0.275-0.123-0.275-0.275v-13.843c0-2.021,1.645-3.666,3.666-3.666H134.752 M134.752,350.251h-0.821
					c-2.577,0-4.666,2.089-4.666,4.666v13.843c0,0.704,0.571,1.275,1.275,1.275h7.604c0.704,0,1.275-0.571,1.275-1.275v-13.843
					C139.418,352.34,137.329,350.251,134.752,350.251L134.752,350.251z"/>
			</g>
			<path style="fill:#EBEBEB;" d="M140.257,348.844h-6.706c-0.617,0-1.117-0.5-1.117-1.117v-3.187c0-0.617,0.5-1.117,1.117-1.117
				h6.706c0.617,0,1.117,0.5,1.117,1.117v3.187C141.373,348.344,140.873,348.844,140.257,348.844z"/>
			<rect x="132.039" y="347.777" style="fill:#EBEBEB;" width="9.728" height="1.705"/>
			<g>
				<rect x="133.728" y="344.731" style="fill:#DBDBDB;" width="0.461" height="3.047"/>
				<rect x="135.691" y="344.731" style="fill:#DBDBDB;" width="0.461" height="3.047"/>
				<rect x="137.655" y="344.731" style="fill:#DBDBDB;" width="0.461" height="3.047"/>
				<rect x="139.618" y="344.731" style="fill:#DBDBDB;" width="0.461" height="3.047"/>
			</g>
			<rect x="132.434" y="347.173" style="fill:#DBDBDB;" width="8.94" height="0.604"/>
			<rect x="129.264" y="355.326" style="fill:#EBEBEB;" width="15.282" height="10.068"/>
			<rect x="138.68" y="355.326" style="fill:#DBDBDB;" width="5.865" height="10.068"/>
		</g>
	</g>
	<g>
		<polygon style="fill:#38474F;" points="277.337,336.789 281.463,336.789 295.475,442.031 291.349,442.031 		"/>
		<polygon style="fill:#38474F;" points="255.091,336.789 259.216,336.789 273.228,442.031 269.103,442.031 		"/>
		<g>
			<polygon style="fill:#38474F;" points="193.018,336.789 188.893,336.789 174.881,442.031 179.007,442.031 			"/>
			<polygon style="fill:#38474F;" points="215.265,336.789 211.14,336.789 197.128,442.031 201.253,442.031 			"/>
		</g>
		<g>
			<g>
				<path style="fill:#263238;" d="M287.246,316.622h-98.892c-2.831,0-5.127,2.295-5.127,5.127v11.427
					c0,2.831,2.295,5.127,5.127,5.127h98.892c2.832,0,5.127-2.295,5.127-5.127v-11.427
					C292.373,318.917,290.078,316.622,287.246,316.622z"/>
			</g>
		</g>
		<g>
			<g>
				<polygon style="fill:#AC635B;" points="179.882,433.974 180.775,396.878 160.591,395.159 160.182,436.75 				"/>
				<path style="fill:#263238;" d="M128.31,442.031h55.991c0.139-4.084-0.268-10.422-0.35-13.545
					c-0.035-1.416,0.65-6.675-0.511-7.592c-2.368-1.857-7,4.829-10.936,3.25c-3.807-1.532-4.249-7.081-7.662-9.357
					c-2.798-1.869-6.71-0.871-9.345,1.219c-2.635,2.101-4.388,5.062-6.524,7.662c-3.448,4.225-7.987,7.546-13.048,9.589
					c-1.776,0.708-3.633,1.277-5.236,2.322C129.738,436.194,128.879,437.03,128.31,442.031z"/>
			</g>
		</g>
		<g>
			<g>
				<polygon style="fill:#AC635B;" points="248.346,432.11 245.7,395.097 225.445,395.309 229,436.75 				"/>
				<path style="fill:#263238;" d="M197.128,442.031h55.991c-0.286-4.084-1.354-10.422-1.76-13.545
					c-0.182-1.416-0.045-6.675-1.301-7.592c-2.562-1.857-6.497,4.829-10.597,3.25c-3.967-1.532-4.986-7.081-8.636-9.357
					c-2.992-1.869-6.801-0.871-9.218,1.219c-2.416,2.101-3.861,5.062-5.726,7.662c-3.008,4.225-7.201,7.546-12.05,9.589
					c-1.702,0.708-3.501,1.277-4.994,2.322C197.948,436.194,197.176,437.03,197.128,442.031z"/>
			</g>
		</g>
		<g>
			<g>
				<polygon style="fill:#EBEBEB;" points="354.286,435.082 355.056,403.088 337.648,401.606 337.296,437.477 				"/>
				<path style="fill:#263238;" d="M309.807,442.031h48.289c0.12-3.522-0.232-8.989-0.302-11.682
					c-0.03-1.221,0.561-5.757-0.44-6.548c-2.043-1.602-6.037,4.165-9.431,2.803c-3.284-1.322-3.664-6.107-6.608-8.07
					c-2.413-1.612-5.787-0.751-8.06,1.051c-2.273,1.812-3.785,4.365-5.627,6.608c-2.974,3.644-6.888,6.508-11.254,8.27
					c-1.532,0.611-3.134,1.101-4.515,2.003C311.039,436.997,310.298,437.718,309.807,442.031z"/>
			</g>
		</g>
		<g>
			<g>
				<polygon style="fill:#EBEBEB;" points="394.076,428.261 389.501,404.247 372.189,406.595 378.016,434.302 				"/>
			</g>
		</g>
		<path style="fill:#263238;" d="M352.633,442.031h48.289c-0.745-3.522-2.438-8.989-3.169-11.682
			c-0.33-1.221-0.853-5.757-2.048-6.548c-2.436-1.602-5.015,4.165-8.743,2.803c-3.608-1.322-5.164-6.107-8.589-8.07
			c-2.809-1.612-5.971-0.751-7.802,1.051c-1.828,1.812-2.713,4.365-4.005,6.608c-2.079,3.644-5.291,6.508-9.223,8.27
			c-1.382,0.611-2.863,1.101-4.024,2.003C352.629,436.997,352.065,437.718,352.633,442.031z"/>
		<path style="fill:#EBEBEB;" d="M343.385,243.149c-2.571,26.57-15.23,40.538-10.694,51.719c4.536,11.181,26.652,9.681,26.652,9.681
			l-0.05-59.77L343.385,243.149z"/>
		<path style="fill:#38474F;" d="M332.148,342.664c-1.28,25.286,0.951,66.78,0.951,66.78h24.12l4.406-66.484L332.148,342.664z"/>
		<path style="fill:#38474F;" d="M340.979,286.005c-7.408,21.442-8.831,56.659-8.831,56.659l29.477,0.296l9.716-56.955H340.979z"/>
		<path style="fill:#263238;" d="M347.969,331.474c-0.283,0.165-0.349,0.548-0.203,0.825c-1.839,7.65-2.777,14.048-2.683,18.135
			c0.356,15.538,5.751,30.215,12.574,45.725l3.968-45.725l2.123-61.637C356.491,303.214,351.053,318.936,347.969,331.474z"/>
		<path style="fill:#38474F;" d="M351.77,343.915c-2.513,16.924,16.446,67.552,16.446,67.552l24.304-2.024l-12.025-68.755
			L351.77,343.915z"/>
		<path style="fill:#38474F;" d="M397.897,294.849c-5.798,22.625-21.888,58.236-21.888,58.236l-24.239-9.169l10.785-63.756
			L397.897,294.849z"/>
		<path style="fill:#38474F;" d="M364.922,246.59c-21.132,25.526-23.943,39.414-23.943,39.414l56.918,8.844
			C397.897,294.849,411.197,264.579,364.922,246.59z"/>
		<g>
			<path style="fill:#EBEBEB;" d="M336.463,191.896c-10.818,5.518-51.613,47.287-51.613,47.287l13.441,5.219
				c4.641,1.802,9.85,1.39,14.15-1.118l31.349-18.289L336.463,191.896z"/>
		</g>
		<polygon style="fill:#EBEBEB;" points="276.284,213.461 305.798,225.051 295.796,241.328 271.153,230.094 		"/>
		<path style="fill:#38474F;" d="M288.182,228.401c3.922-3.894,0.852-8.69,0.852-8.69l-2.844,3.854L288.182,228.401z"/>
		<path style="fill:#EBEBEB;" d="M357.219,185.718c0,0,11.229,4.03,22.728,9.842c7.518,3.8,12.45,11.296,12.932,19.706
			c0.738,12.878,1.065,33.479-2.297,52.943l-42.527,0.93l2.251-30.583c0,0-12.823-1.872-15.048-5.883
			c-3.855-6.951,3.63-24.218,1.206-40.778L357.219,185.718z"/>
		<path style="fill:#DBDBDB;" d="M369.482,195.43c-0.764,5.124-1.821,10.199-2.435,15.347c-0.231,1.942-0.188,4.399-1.616,5.929
			c-0.576,0.618-1.604,0.783-2.406,0.869c-0.936,0.101-1.911,0.127-2.851,0.079c-0.794-0.04-1.077,1.118-0.392,1.484
			c2.016,1.075,4.644,2.723,4.642,5.298c-0.001,1.265-0.608,2.468-1.065,3.619c-0.497,1.252-0.905,2.526-0.747,3.891
			c0.124,1.068,1.776,1.122,1.712,0c-0.169-2.945,2.375-5.358,1.812-8.387c-0.344-1.852-1.619-3.167-3.095-4.233
			c1.1-0.071,2.174-0.299,3.252-0.833c1.069-0.529,1.789-1.188,2.236-2.313c0.436-1.1,0.544-2.275,0.67-3.442
			c0.618-5.719,0.799-11.452,1.245-17.182C370.488,195.007,369.565,194.878,369.482,195.43z"/>
		<path style="fill:#DBDBDB;" d="M340.376,218.329c0-0.001,0.001-0.002,0.001-0.003c0.614,0.201,1.085-0.738,0.468-1.148
			c-0.255-0.169-0.512-0.281-0.768-0.351c-0.903-0.616-0.992-1.869-1.183-2.943c-0.283-1.591-0.21-3.287-0.249-4.899
			c-0.077-3.255-0.276-6.511-0.313-9.765c-0.004-0.356-0.539-0.354-0.551,0c-0.133,3.705-0.425,7.414-0.622,11.117
			c-0.085,1.588-0.371,3.538,0.326,5.034c0.265,0.57,0.746,1.053,1.158,1.529c-1.325,0.484-2.353,2.037-2.364,3.471
			c-0.01,1.42,0.626,2.762,1.343,3.952c0.795,1.319,1.794,2.651,1.878,4.246c0.046,0.874,1.286,0.864,1.35,0
			c0.179-2.387-1.403-4.221-2.35-6.267c-0.425-0.919-0.766-2.1-0.196-3.03C338.745,218.548,339.529,218.02,340.376,218.329z"/>
		<path style="fill:#94A9E4;" d="M343.789,189.715c-1.575,6.866-3.006,31.634-1.602,37.714c3.082,13.344,7.831,19.756,7.831,19.756
			l-1.28,21.94l18.155-0.397c0,0-7.871-31.015-9.236-39.286c-1.379-8.353,7.004-40.821,7.004-40.821l-3.72-1.491L343.789,189.715z"
			/>
		<path style="fill:#7491E0;" d="M355.612,262.632c-0.007-1.832-0.115-3.661-0.294-5.486c-0.363-3.705-0.849-7.356-1.702-10.992
			c-0.834-3.56-1.958-7.016-3.158-10.474c-1.206-3.476-2.361-6.923-2.384-10.62c-0.027-4.389,1.229-8.737,2.633-12.858
			c0.141-0.415-0.486-0.71-0.651-0.288c-1.389,3.555-2.963,7.11-3.543,10.905c-0.575,3.768,0.073,7.373,1.396,10.943
			c1.308,3.529,2.638,7.005,3.597,10.644c0.963,3.655,1.665,7.392,2.177,11.127c0.278,2.033,0.393,4.098,0.496,6.144
			c0.107,2.125,0.024,4.288,0.292,6.401c0.057,0.452,0.717,0.477,0.81,0.034C355.655,266.328,355.62,264.452,355.612,262.632z"/>
		<polygon style="fill:#38474F;" points="349.23,254.999 363.752,259.371 364.922,272.698 347.827,274.364 		"/>
		<path style="fill:#263238;" d="M368.679,269.467c-1.418-0.371-3.006-0.161-4.458-0.106c-1.451,0.056-2.9,0.118-4.35,0.206
			c-1.45,0.088-2.9,0.176-4.35,0.263c-1.506,0.091-2.996,0.321-4.5,0.429c-0.725,0.052-0.745,1.104-0.02,1.146
			c-0.929,3.12-1.337,6.348-1.962,9.538c-0.635,3.24-1.153,6.493-1.554,9.77c-0.047,0.382,0.61,0.471,0.674,0.087
			c0.537-3.261,1.181-6.513,1.957-9.725c0.78-3.231,2.04-6.302,2.946-9.497c0.006-0.021,0-0.037,0.005-0.057
			c0.817,0.054,1.635,0.107,2.455,0.12c0.406,0.007,0.811,0.013,1.217,0.02c0,0.009-0.005,0.015-0.005,0.024
			c-0.004,2.626-0.005,5.241,0.173,7.863c0.088,1.308,0.207,2.614,0.344,3.917c0.091,0.865,0.106,2.098,1.152,2.363
			c1.051,0.267,1.601-0.828,1.959-1.608c0.459-0.999,0.782-2.037,0.916-3.129c0.136-1.105,0.073-2.134-0.136-3.225
			c-0.175-0.914-0.409-2.167-1.123-2.816c-0.223-0.202-0.558-0.056-0.576,0.239c-0.052,0.831,0.321,1.693,0.387,2.528
			c0.062,0.791,0.008,1.616-0.079,2.404c-0.095,0.867-0.302,1.744-0.586,2.568c-0.098,0.284-0.226,0.554-0.353,0.825
			c-0.558-3.932-0.898-7.964-1.022-11.928c0-0.002-0.001-0.004-0.001-0.006l2.084,0.034c1.451,0.024,2.899,0.022,4.35,0.014
			c1.451-0.009,3.06,0.141,4.458-0.291C369.631,271.142,369.695,269.733,368.679,269.467z"/>
		<g>
			<path style="fill:#263238;" d="M357.75,264.057c-0.305-0.452-0.686-0.807-1.131-1.118c-0.459-0.32-1.044-0.534-1.599-0.413
				c-0.391,0.085-0.622,0.603-0.398,0.945c0.132,0.202,0.27,0.344,0.463,0.492c-0.146-0.112-0.055-0.04-0.024-0.015
				c0.075,0.059,0.151,0.116,0.228,0.171c0.026,0.018,0.053,0.036,0.079,0.054c0.006,0.004,0.01,0.009,0.015,0.013
				c-0.007-0.008-0.009-0.009-0.017-0.02c0.058,0.071,0.172,0.135,0.242,0.188c0.019,0.015,0.039,0.029,0.058,0.044
				c0.014,0.01,0.035,0.028,0.049,0.04c0.118,0.105,0.236,0.207,0.343,0.324c0.049,0.053,0.096,0.109,0.142,0.165
				c0.009,0.011,0.008,0.009,0.014,0.016c0.012,0.02,0.025,0.04,0.026,0.041c0.04,0.059,0.077,0.12,0.111,0.183
				c0.009,0.016,0.036,0.069,0.058,0.112c0.004,0.016,0.046,0.123,0.056,0.154c0.018,0.063,0.029,0.127,0.045,0.19
				c0.001,0.019,0.002,0.038,0.003,0.057c0.001,0.034-0.001,0.068-0.002,0.102c-0.018,0.059-0.025,0.134-0.04,0.186
				c-0.008,0.028-0.017,0.055-0.026,0.082c-0.003,0.008-0.005,0.016-0.008,0.025c-0.003,0.004-0.003,0.001-0.006,0.007
				c-0.019,0.033-0.035,0.069-0.054,0.102c-0.011,0.019-0.067,0.103-0.098,0.151c-0.017,0.018-0.033,0.037-0.051,0.056
				c-0.045,0.047-0.093,0.089-0.14,0.133c-0.009,0.004-0.006,0.001-0.021,0.009c-0.071,0.04-0.143,0.077-0.215,0.115
				c-0.003,0.001,0,0.001-0.002,0.002c-0.009,0.002-0.005,0-0.018,0.002c-0.02,0.004-0.041,0.01-0.061,0.016
				c-0.015,0.002-0.033,0.004-0.051,0.007c-0.009,0.002-0.021,0.004-0.038,0.001c-0.048-0.01-0.096-0.019-0.144-0.032
				c-0.011-0.003-0.038-0.013-0.058-0.021c-0.003-0.001-0.008-0.004-0.009-0.005c-0.011-0.007-0.067-0.04-0.105-0.062
				c-0.01-0.013-0.168-0.129-0.118-0.084c-0.006-0.005-0.014-0.012-0.016-0.014c-0.03-0.027-0.059-0.054-0.087-0.082
				c-0.01-0.01-0.112-0.121-0.07-0.07c0.038,0.047-0.02-0.031-0.022-0.035c-0.026-0.044-0.053-0.087-0.076-0.133
				c-0.033-0.061-0.06-0.121-0.071-0.151c-0.067-0.181-0.102-0.372-0.113-0.565c-0.029-0.467,0.055-0.902,0.158-1.354
				c0.09-0.396-0.482-0.543-0.607-0.159c-0.288,0.888-0.63,1.83-0.367,2.768c0.122,0.433,0.307,0.843,0.657,1.139
				c0.372,0.315,0.838,0.511,1.333,0.483c0.963-0.053,1.737-0.751,2.09-1.62C358.408,265.81,358.273,264.832,357.75,264.057z"/>
			<path style="fill:#263238;" d="M355.383,264.186C355.455,264.271,355.432,264.227,355.383,264.186L355.383,264.186z"/>
		</g>
		<path style="fill:#EBEBEB;" d="M361.625,264.404c6.282,27.774,15.245,39.627,23.518,39.627c12.491,0,24.704-13.248,24.704-13.248
			l-21.167-41.217l-31.023-20.125L361.625,264.404z"/>
		<g>
			<path style="fill:#AC635B;" d="M206.058,284.281l-25.42,18.877l13.86,1.409c0,0,26.747,1.1,30.568-16.371L206.058,284.281z"/>
			<g>
				<g>
					<path style="fill:#94A9E4;" d="M256.141,329.178c-0.254,0.027-0.495,0.027-0.749,0.027h-35.322l10.075-32.941l6.81-22.277
						l31.442,9.205l10.824,3.171l2.315,9.714C285.523,312.735,273.12,328.737,256.141,329.178z"/>
				</g>
				<g>
					<path style="fill:#7491E0;" d="M223.816,296.264l-6.208,32.941h-25.676c0,0,2.556,31.87-0.763,67.447
						c-0.361,3.92-0.803,7.894-1.325,11.881l-37.142-3.519l-0.936-8.362h6.489l2.81-80.72c0.375-10.971,9.379-19.668,20.351-19.668
						H223.816z"/>
				</g>
				<g>
					<path style="fill:#94A9E4;" d="M262.349,296.264l-4.71,25.02l-1.499,7.894v0.027h-16.27c0,0,7.988,36.593,9.634,67.447
						c0.214,4.094,0.321,8.095,0.281,11.881l-37.129-3.519l-0.95-8.362h6.489l-14.249-79.797
						c-1.913-10.731,6.342-20.591,17.246-20.591H262.349z"/>
				</g>
				<line style="fill:none;stroke:#A37E57;stroke-miterlimit:10;" x1="279.801" y1="290.903" x2="230.817" y2="292.271"/>
				<polyline style="fill:none;stroke:#A37E57;stroke-miterlimit:10;" points="271.929,299.02 259.818,297.375 258.439,291.5 				
					"/>
			</g>
			<polygon style="fill:#263238;" points="281.268,265.427 282.286,300.671 230.144,296.264 232.115,280.94 			"/>
			<polygon style="fill:#AC635B;" points="206.744,254.029 204.495,288.197 225.066,288.197 230.725,254.029 			"/>
			<path style="fill:#263238;" d="M274.191,211.462c7.023,10.019,8.267,26.494,6.628,76.735h-48.862c0,0-2.069-29.729-2.624-31.602
				c-0.555-1.873-12.494-25.282-15.303-36.05l22.36-15.095L274.191,211.462z"/>
			<path style="fill:#AC635B;" d="M293.324,283.049c-2.222,21.489-53.606,15.099-53.606,15.099l-15.899-1.163l54.004-24.686
				L293.324,283.049z"/>
			<path style="fill:#263238;" d="M278.758,215.031c-1.458-9.563-9.971-10.912-14.599-1.87L278.758,215.031z"/>
			<path style="fill:#263238;" d="M271.788,215.387c-1.255-8.917-8.581-10.175-12.564-1.744L271.788,215.387z"/>
			<path style="fill:#AC635B;" d="M252.063,188.724l-0.688,7.507l-0.789,8.635l-0.306,4.528c-0.338,4.999-4.508,8.872-9.519,8.839
				l0,0c-5.049-0.033-9.186-4.017-9.408-9.061l-1.182-26.839L252.063,188.724z"/>
			<path style="fill:#263238;" d="M251.374,196.231l-1.044,12.407c-12.54,0.509-15.513-8.354-16.298-14.281
				c4.261-0.906,8.543-0.781,12.215-0.029C248.039,194.701,249.78,195.344,251.374,196.231z"/>
			<g>
				<path style="fill:#263238;" d="M264.36,180.726c0,0,3.284-10.925-0.495-14.488c-5.94-5.601-27.116-6.576-31.827-3.635
					c-3.162,1.975-6.923,9.545-4.798,26.726L264.36,180.726z"/>
				<path style="fill:#AC635B;" d="M263.756,174.45c-0.865-2.2-2.539-3.922-4.645-5.189c-5.365-3.243-13.556-3.532-18.456-1.123
					c-7.163,3.519-9.886,11.093-8.987,18.43c0.397,3.375,1.567,6.707,3.428,9.56c3.254,5.007,8.902,8.938,14.836,8.267
					c4.281-0.476,8.078-3.312,10.457-6.913C264.414,191.4,266.5,181.44,263.756,174.45z"/>
				<path style="fill:#263238;" d="M262.33,178.568c0.722-0.035,1.556,0.075,2.051,0.575c0.464,0.469,0.445,1.199-0.021,1.583
					c-0.452,0.373-1.177,0.406-1.843,0.346c-0.793-0.072-3.205-0.306-3.014-1.348C259.673,178.796,261.433,178.612,262.33,178.568z"
					/>
				<path style="fill:#263238;" d="M243.766,177.043c0.32-0.153,0.664-0.186,0.998-0.184c0.919,0.006,1.817,0.268,2.599,0.76
					c0.314,0.198,0.647,0.543,0.544,0.971c-0.099,0.414-0.531,0.585-0.889,0.652c-1.005,0.188-2.023,0.166-2.99-0.065
					c-0.272-0.065-0.548-0.15-0.763-0.345C242.625,178.252,243.092,177.365,243.766,177.043z"/>
				<path style="fill:#263238;" d="M259.216,187.095c-0.079,0.909-0.74,1.622-1.477,1.592c-0.737-0.03-1.27-0.791-1.191-1.701
					c0.079-0.909,0.74-1.622,1.477-1.592C258.762,185.425,259.295,186.186,259.216,187.095z"/>
				<path style="fill:#263238;" d="M248.321,185.375c-0.079,0.909-0.74,1.622-1.477,1.592c-0.737-0.03-1.27-0.791-1.191-1.701
					c0.079-0.909,0.74-1.622,1.477-1.592C247.866,183.704,248.4,184.466,248.321,185.375z"/>
				<path style="fill:#263238;" d="M255.691,190.05c-0.283-2.296-0.685-4.56-1.108-6.831c-0.041-0.22-0.378-0.201-0.354,0.03
					c0.194,1.872,0.406,3.725,0.684,5.589c0.135,0.902,0.393,1.902,0.18,2.809c-0.178,0.758-0.821,1.191-1.49,1.475
					c-0.174,0.074-0.209,0.339-0.017,0.419c0.661,0.279,1.416-0.158,1.762-0.731C255.845,191.989,255.805,190.966,255.691,190.05z"
					/>
				<path style="fill:#EBEBEB;" d="M263.172,191.832c-0.752,2.077-1.693,4.004-2.783,5.65c-2.379,3.601-6.176,6.437-10.457,6.913
					c-5.493,0.619-10.737-2.701-14.066-7.162l0.794-9.161c14.599,0.27,20.296,0.489,26.505,3.749L263.172,191.832z"/>
				<line style="fill:none;stroke:#EBEBEB;stroke-miterlimit:10;" x1="233.123" y1="193.02" x2="236.511" y2="197.043"/>
				<path style="fill:#DBDBDB;" d="M259.395,194.474c-2.832-1.142-5.836-1.763-8.871-2.033c-1.512-0.135-3.025-0.207-4.543-0.208
					c-0.737,0-1.478-0.003-2.213,0.053c-0.808,0.062-1.609,0.221-2.415,0.275c-0.165,0.011-0.149,0.261,0.015,0.255
					c0.767-0.028,1.565,0.073,2.333,0.113c0.705,0.037,1.411,0.048,2.116,0.084c1.543,0.078,3.087,0.212,4.621,0.398
					c2.971,0.362,5.928,0.852,8.891,1.257C259.44,194.684,259.51,194.521,259.395,194.474z"/>
				<path style="fill:#DBDBDB;" d="M239.775,196.936c2.81,1.195,5.802,1.872,8.831,2.2c1.509,0.163,3.021,0.264,4.539,0.294
					c0.736,0.014,1.478,0.031,2.214-0.011c0.809-0.046,1.613-0.191,2.42-0.23c0.165-0.008,0.153-0.258-0.011-0.255
					c-0.767,0.013-1.563-0.103-2.331-0.157c-0.704-0.05-1.41-0.075-2.114-0.124c-1.542-0.107-3.083-0.27-4.613-0.485
					c-2.964-0.418-5.911-0.963-8.866-1.425C239.735,196.725,239.661,196.887,239.775,196.936z"/>
				<path style="fill:none;stroke:#EBEBEB;stroke-miterlimit:10;" d="M230.394,181.869c3.2,0.929,6.187,5.136,7.528,9.145"/>
				<path style="fill:#AC635B;" d="M230.899,181.221c-1.66-1.196-4.037-1.613-5.752-0.497c-1.429,0.929-2.1,2.682-2.336,4.369
					c-0.304,2.177-0.007,4.473,1.071,6.388c1.078,1.915,2.983,3.404,5.154,3.747c2.171,0.343,4.551-0.571,5.748-2.414
					C237.082,189.277,233.881,183.37,230.899,181.221z"/>
				<path style="fill:#263238;" d="M231.235,189.084c-0.396-1.071-1.065-2.069-1.959-2.788c-0.41-0.33-0.839-0.626-1.312-0.856
					c-0.474-0.231-0.993-0.366-1.486-0.55c-0.321-0.119-0.585,0.388-0.269,0.552c0.21,0.109,0.398,0.221,0.574,0.379
					c0.177,0.159,0.336,0.337,0.501,0.507c0.168,0.174,0.333,0.354,0.494,0.536c0.078,0.088,0.155,0.177,0.227,0.27
					c0.07,0.091,0.187,0.206,0.225,0.315c-0.016-0.024-0.032-0.048-0.047-0.072c0.023,0.035,0.045,0.07,0.068,0.105
					c0.058,0.089,0.116,0.178,0.177,0.265c0.037,0.053,0.076,0.105,0.112,0.158c0.006,0.008,0.004,0.004,0.009,0.011
					c0.154,0.182,0.266,0.438,0.373,0.647c0.224,0.439,0.436,0.885,0.595,1.352c0.074,0.218,0.35,0.421,0.557,0.49
					c0.218,0.073,0.513,0.065,0.719-0.046C231.283,190.095,231.421,189.587,231.235,189.084z"/>
			</g>
			<path style="fill:#AC635B;" d="M274.191,211.462c15.123,2.852,19.956,24.62,19.132,71.587l-19.132-8.341
				C264.271,237.099,261.168,209.006,274.191,211.462z"/>
			<path style="fill:#263238;" d="M230.169,178.107l1.498,8.462l3.524-8.728c0,0,7.152-2.894,7.347-11.603l-7.721,0.309
				L230.169,178.107z"/>
			<path style="fill:#263238;" d="M214.03,220.545c-7.036,4.59-9.535,41.577-9.535,41.577c14.745,5.248,27.006,0,27.006,0
				l2.657-19.622L214.03,220.545z"/>
			<path style="fill:#94A9E4;" d="M192.856,320.734c2.867-0.03,12.714-0.327,12.731-0.362c0.01-0.081,0.025-0.108,0.029-0.096
				c0.025-0.07,0.054-0.14,0.071-0.205c0.013-0.05,0.024-0.1,0.034-0.151c-0.007-0.147,0.005-0.14,0.007-0.086
				c0.005-0.062,0.01-0.124,0.01-0.185c0-0.055-0.002-0.109-0.005-0.164c-0.001-0.012-0.004-0.04-0.007-0.067
				c-0.004-0.022-0.007-0.042-0.009-0.052c-0.011-0.054-0.024-0.107-0.038-0.16c-0.026-0.095-0.077-0.191-0.096-0.287
				c0.003,0.016,0.005,0.019,0.007,0.032c0,0,0.04,0.185,0,0c-0.023-0.047-9.873-0.464-12.736-0.544
				c-1.516-0.042-3.033-0.057-4.549-0.076c-1.563-0.019-3.144-0.114-4.701,0.042c-0.206,0.021-0.371,0.087-0.518,0.169
				c-2.176-1.732-4.398-3.409-6.641-5.053c-0.551-0.404-1.283,0.542-0.737,0.967c2.531,1.97,4.922,4.098,7.232,6.321
				c0.053,0.051,0.103,0.104,0.156,0.156c0.392,4.832,1.005,9.644,1.397,14.477c0.415,5.104,0.711,10.217,0.868,15.335
				c0.314,10.236,0.092,20.489-0.667,30.702c-0.427,5.747-1.023,11.482-1.794,17.193c-0.021,0.156-0.019,0.312,0.002,0.462
				c-0.762-0.088-1.524-0.176-2.286-0.261c-2.191-0.244-4.38-0.515-6.573-0.733c-4.367-0.434-8.765-0.608-13.147-0.829
				c-0.558-0.028-0.689,0.88-0.127,0.982c4.313,0.78,8.629,1.587,12.973,2.176c2.186,0.296,4.384,0.523,6.575,0.784
				c1.046,0.124,2.091,0.246,3.137,0.366c1.08,0.123,2.35,0.465,3.418,0.222c0.91-0.207,1.138-1.611,0.266-2.035
				c-0.578-0.281-1.253-0.377-1.928-0.439c0.007-0.029,0.031-0.049,0.035-0.08c1.383-10.253,2.248-20.572,2.552-30.914
				c0.303-10.333,0.079-20.693-0.733-30.999c-0.366-4.637-0.781-9.306-1.499-13.915c0.236,0.243,0.471,0.487,0.708,0.729
				c0.553,0.567,1.119,1.12,1.672,1.687c0.583,0.597,1.15,1.295,1.857,1.743c0.956,0.606,2.106-0.606,1.549-1.549
				c-0.403-0.683-1.06-1.237-1.624-1.789c-0.597-0.584-1.198-1.169-1.82-1.726c-0.689-0.617-1.399-1.213-2.114-1.802
				c0.787,0.011,1.575,0.006,2.359,0.01C189.723,320.738,191.289,320.75,192.856,320.734z"/>
			<path style="fill:#7491E0;" d="M274.213,301.613c-1.186,3.658-3.583,6.757-6.505,9.237c-0.289-1.643-0.918-3.279-1.563-4.747
				c-0.896-2.041-2.139-3.873-3.574-5.573c-0.415-0.491-1.275,0.156-0.907,0.691c1.178,1.714,2.079,3.622,2.719,5.598
				c0.318,0.979,0.564,1.982,0.741,2.996c0.158,0.905,0.235,1.823,0.37,2.73c-0.777,0.536-1.568,1.046-2.381,1.5
				c-5.816,3.248-12.53,4.279-19.113,4.442c-2.014,0.05-4.029,0.02-6.042-0.049c-2.103-0.073-4.221-0.298-6.323-0.276
				c-0.14,0.001-0.265,0.022-0.378,0.054c-1.424-1.259-2.885-2.478-4.357-3.68c-0.488-0.399-1.191,0.271-0.706,0.706
				c1.635,1.466,3.094,3.094,4.484,4.789c0,0.017-0.005,0.031-0.002,0.049c1.498,10.138,3.067,20.271,4.357,30.438
				c1.287,10.146,2.317,20.33,3.15,30.523c0.472,5.771,0.864,11.548,1.181,17.329c0.006,0.106,0.046,0.186,0.072,0.278
				c-1.753-0.145-3.508-0.268-5.252-0.371c-4.022-0.239-8.061-0.213-12.077-0.498c-0.621-0.044-0.594,0.88,0,0.951
				c3.992,0.474,7.946,1.259,11.935,1.772c3.943,0.507,7.947,0.978,11.918,1.195c1.318,0.072,1.645-2.148,0.3-2.329
				c-1.505-0.202-3.022-0.366-4.542-0.513c0.052-0.141,0.082-0.3,0.072-0.485c-0.571-10.313-1.346-20.627-2.456-30.897
				c-1.104-10.218-2.455-20.415-4.039-30.569c-0.748-4.797-1.636-9.565-2.604-14.32c0.27,0.352,0.541,0.703,0.815,1.052
				c0.791,1.005,1.491,2.09,2.311,3.07c0.862,1.031,2.573-0.299,1.874-1.427c-0.67-1.082-1.548-2.074-2.367-3.045
				c-0.452-0.536-0.928-1.048-1.416-1.547c1.16,0.064,2.323,0.105,3.475,0.147c1.918,0.07,3.838,0.108,5.757,0.078
				c3.861-0.06,7.734-0.388,11.501-1.27c4.632-1.085,9.175-3.108,12.872-6.153c0.013-0.012,0.027-0.022,0.039-0.034
				c1.093-0.904,2.121-1.887,3.042-2.975c2.145-2.531,3.647-5.43,4.429-8.655C275.15,301.299,274.378,301.102,274.213,301.613z"/>
			<path style="fill:#38474F;" d="M230.199,257.958c-0.083-0.656-0.177-1.312-0.295-1.962c-0.252-1.391-0.54-2.776-0.847-4.156
				c-0.593-2.669-1.274-5.317-2.057-7.937c-0.784-2.625-1.657-5.217-2.688-7.755c-1.05-2.587-2.26-5.083-3.456-7.603
				c-0.219-0.461-0.866-0.066-0.678,0.385c1.271,3.053,2.359,6.215,3.36,9.398c-0.894-0.267-1.752-0.585-2.586-1.053
				c-1.069-0.599-2.026-1.356-2.863-2.249c-0.474-0.506-1.188,0.236-0.753,0.753c0.855,1.015,1.869,1.89,2.99,2.599
				c1.098,0.694,2.377,1.3,3.658,1.558c0.021,0.004,0.038-0.002,0.058,0c0.461,1.514,0.909,3.028,1.339,4.537
				c0.737,2.583,1.401,5.188,1.976,7.812c0.283,1.289,0.544,2.583,0.784,3.881c0.12,0.648,0.251,1.293,0.386,1.939
				c0.143,0.682,0.226,1.442,0.639,2.02c0.289,0.404,0.878,0.358,1.039-0.136C230.423,259.332,230.285,258.63,230.199,257.958z"/>
			<path style="fill:#38474F;" d="M264.909,271.504c-0.667-0.762-2.006-1.1-2.926-1.478c-1.017-0.418-2.042-0.81-3.082-1.167
				c-2.101-0.72-4.241-1.341-6.408-1.83c-4.284-0.966-8.695-1.485-13.083-1.605c-0.482-0.013-0.472,0.709,0,0.742
				c4.367,0.304,8.646,1.088,12.85,2.301c2.052,0.592,4.076,1.27,6.062,2.056c1.003,0.397,1.999,0.817,2.983,1.257
				c0.931,0.416,1.968,1.146,2.996,1.192C265.095,273.009,265.37,272.032,264.909,271.504z"/>
			<path style="fill:#38474F;" d="M260.606,210.219c-0.607,0.863-1.079,1.662-1.436,2.664c-0.348,0.977-0.536,2.019-0.599,3.052
				c-0.121,1.96,0.101,4.132,0.829,5.968c0.148,0.375,0.67,0.245,0.607-0.159c-0.297-1.906-0.385-3.72,0.007-5.623
				c0.184-0.894,0.421-1.77,0.697-2.64c0.28-0.881,0.575-1.821,0.954-2.661C261.988,210.104,261.059,209.576,260.606,210.219z"/>
			<path style="fill:#38474F;" d="M267.188,210.276c0.286-0.372-0.297-0.731-0.592-0.398c-2.343,2.643-4.22,5.702-5.012,9.173
				c-0.388,1.698-0.609,3.411-0.504,5.154c0.097,1.612,0.226,3.675,1.098,5.079c0.166,0.268,0.602,0.24,0.633-0.117
				c0.066-0.764-0.075-1.534-0.124-2.298c-0.053-0.835-0.063-1.67-0.02-2.505c0.087-1.668,0.233-3.359,0.595-4.992
				C263.981,216.129,265.149,212.929,267.188,210.276z"/>
		</g>
		<path style="fill:#38474F;" d="M277.337,212.385c2.466-1.14,4.279-0.059,4.279-0.059c3.2-0.518,3.765,0.045,4.082,1.613
			c2.193-0.163,4.33-0.461,3.961,3.411c-0.368,3.872-4.116,9.079-6.236,9.058s0.781-5.376,0.781-5.376s-2.003,3.704-3.715,2.665
			c-1.711-1.04,0.777-6.072,0.777-6.072c-2.018,0.611-2.567-0.082-2.219-4.199L277.337,212.385z"/>
		<g>
			<path style="fill:#263238;" d="M352.377,151.185c10.633,0,15.615-8.444,12.524-13.276c-3.091-4.832-15.479-5.16-17.967,0
				C344.447,143.068,346.673,151.185,352.377,151.185z"/>
			<g>
				<path style="fill:#AC635B;" d="M337.482,180.15l2.941,6.941l3.38,7.984l6.773,16.02c0,0,6.529-12.271,10.952-21.331
					l-5.138-22.368L337.482,180.15z"/>
				<path style="fill:#263238;" d="M340.423,187.091l4.104,9.812c11.713-5.501,11.952-10.24,11.845-16.877
					c-4.335,0.434-8.375,1.857-11.644,3.691C343.134,184.619,341.672,185.761,340.423,187.091z"/>
				<path style="fill:#263238;" d="M358.522,151.125c0.322,0.002,0.639-0.009,0.94-0.036c1.522-0.138,3-0.599,4.298-1.417
					c2.609-1.647,4.148-4.585,3.993-7.675c-0.085-1.689-0.651-3.169-1.523-4.602c-0.141-0.231-0.486-0.033-0.364,0.207
					c1.457,2.865,0.541,6.794-1.635,9.038c-1.077,1.111-2.448,1.806-3.949,2.141c-0.751,0.168-1.502,0.204-2.269,0.161
					c-0.784-0.044-1.542-0.295-2.32-0.331c-0.421-0.02-0.767,0.337-0.867,0.734c-4.63-1.716-10.034-2.114-14.814-1.715
					c-6.852,0.573-13.086,7.875-12.794,17.001l36.193,11.916C368.587,162.877,365.047,155.126,358.522,151.125z"/>
				<path style="fill:#AC635B;" d="M329.661,181.676c2.045,3.801,5.57,6.968,9.791,7.828c5.849,1.203,11.829-2.202,15.521-6.895
					c2.111-2.674,3.576-5.887,4.276-9.212c1.557-7.226-0.472-15.014-7.288-19.165c-4.663-2.842-12.847-3.293-18.482-0.546
					c-2.212,1.072-4.034,2.636-5.095,4.749C325.022,165.147,326.201,175.255,329.661,181.676z"/>
				<path style="fill:#263238;" d="M329.434,162.664c-0.716-0.1-1.557-0.066-2.094,0.387c-0.504,0.425-0.552,1.154-0.122,1.579
					c0.417,0.412,1.136,0.51,1.804,0.51c0.796,0,3.22-0.016,3.123-1.07C332.059,163.129,330.323,162.788,329.434,162.664z"/>
				<path style="fill:#263238;" d="M346.757,162.819c-0.305-0.181-0.644-0.245-0.977-0.274c-0.916-0.077-1.834,0.103-2.657,0.523
					c-0.331,0.169-0.693,0.483-0.629,0.918c0.062,0.422,0.476,0.631,0.827,0.73c0.984,0.278,2,0.348,2.983,0.205
					c0.277-0.04,0.559-0.1,0.79-0.275C347.783,164.126,347.398,163.2,346.757,162.819z"/>
				<path style="fill:#263238;" d="M330.999,170.937c-0.003,0.913,0.591,1.682,1.327,1.719c0.736,0.037,1.336-0.674,1.34-1.586
					c0.004-0.913-0.591-1.682-1.327-1.719C331.602,169.314,331.003,170.024,330.999,170.937z"/>
				<path style="fill:#263238;" d="M341.925,170.73c-0.003,0.913,0.591,1.682,1.327,1.719c0.737,0.037,1.336-0.674,1.34-1.586
					c0.003-0.913-0.591-1.682-1.327-1.719C342.528,169.107,341.929,169.817,341.925,170.73z"/>
				<path style="fill:#263238;" d="M335.01,174.697c0.489-2.261,1.093-4.479,1.72-6.704c0.061-0.216,0.394-0.167,0.349,0.062
					c-0.362,1.847-0.74,3.674-1.185,5.505c-0.216,0.886-0.563,1.859-0.433,2.781c0.108,0.771,0.711,1.26,1.35,1.603
					c0.166,0.089,0.177,0.356-0.021,0.419c-0.683,0.218-1.396-0.286-1.689-0.887C334.681,176.614,334.814,175.599,335.01,174.697z"
					/>
				<path style="fill:#EBEBEB;" d="M327.399,175.798c0.561,2.137,1.325,4.141,2.262,5.878c2.045,3.801,5.57,6.968,9.791,7.828
					c5.415,1.112,10.937-1.722,14.655-5.865l0.036-9.195c-14.564-1.047-20.257-1.343-26.735,1.343L327.399,175.798z"/>
				<line style="fill:none;stroke:#EBEBEB;stroke-miterlimit:10;" x1="357.219" y1="179.69" x2="353.481" y2="183.391"/>
				<path style="fill:#DBDBDB;" d="M330.922,178.77c2.924-0.882,5.971-1.229,9.018-1.225c1.518,0.002,3.032,0.066,4.543,0.202
					c0.734,0.066,1.473,0.13,2.199,0.252c0.799,0.134,1.583,0.365,2.38,0.492c0.163,0.026,0.124,0.273-0.038,0.252
					c-0.761-0.097-1.565-0.068-2.334-0.098c-0.705-0.027-1.41-0.079-2.115-0.107c-1.544-0.062-3.094-0.068-4.638-0.02
					c-2.992,0.092-5.981,0.314-8.968,0.45C330.859,178.974,330.803,178.805,330.922,178.77z"/>
				<path style="fill:#DBDBDB;" d="M350.24,182.99c-2.907,0.936-5.947,1.341-8.994,1.395c-1.517,0.027-3.032-0.009-4.547-0.117
					c-0.735-0.052-1.474-0.102-2.203-0.211c-0.802-0.119-1.589-0.336-2.389-0.447c-0.163-0.023-0.13-0.271,0.034-0.253
					c0.763,0.082,1.566,0.039,2.335,0.053c0.706,0.013,1.411,0.053,2.117,0.067c1.545,0.033,3.095,0.01,4.638-0.067
					c2.99-0.149,5.974-0.426,8.958-0.619C350.3,182.785,350.358,182.952,350.24,182.99z"/>
				<path style="fill:none;stroke:#EBEBEB;stroke-miterlimit:10;" d="M360.942,168.831c-3.27,0.637-6.625,4.557-8.322,8.428"/>
				<path style="fill:#263238;" d="M360.855,170.109c2.116-8.271-0.279-17.663-13.971-18.925
					C346.884,151.185,348.054,169.118,360.855,170.109z"/>
				<path style="fill:#AC635B;" d="M360.497,168.14c1.761-1.042,4.166-1.242,5.773,0.023c1.339,1.054,1.85,2.86,1.932,4.562
					c0.106,2.195-0.396,4.455-1.642,6.266c-1.246,1.81-3.278,3.121-5.471,3.267c-2.193,0.146-4.481-0.98-5.507-2.923
					C353.613,175.605,357.334,170.012,360.497,168.14z"/>
			</g>
			<path style="fill:#263238;" d="M351.586,149.667c-2.296,9.822-7.16,13.401-12.77,13.136c1.546-1.789,2.909-4.041,4.138-6.949
				c-0.34,0.456-0.685,0.9-1.035,1.331c-3.747,4.615-9.609,7.1-15.532,6.588l-0.095-0.008
				C322.7,151.185,338.911,139.318,351.586,149.667z"/>
		</g>
		<g>
			<g>
				<polygon style="fill:#AC635B;" points="332.378,235.183 353.679,236.714 355.967,252.787 326.746,244.174 				"/>
				<path style="fill:#263238;" d="M331.453,228.691c-2.368-2.788-4.419-1.664-8.468-9.631c-1.137-2.238-4.591,0.106-1.841,5.468
					c1.734,3.381,1.836,4.761,1.836,4.761L331.453,228.691z"/>
				<g>
					<path style="fill:#263238;" d="M331.453,228.691c1.565,1.738,2.393,5.705,2.986,6.095c0.593,0.39,5.325,0.51,5.325,0.51
						s1.925,7.92-5.647,11.901c-6.376-3.465-21.089-5.394-22.647-5.766c-1.558-0.372-8.405-7.81-8.405-7.81
						s-2.906-11.434-2.635-12.334c0.272-0.9,3.594-0.047,4.303,3.822l1.938,5.025l8.386,2.749l8.161-4.439L331.453,228.691z"/>
				</g>
				<g>
					<path style="fill:#EBEBEB;" d="M321.181,224.886c0.806-0.153,1.252-1.373,0.995-2.723c-0.257-1.351-1.118-2.322-1.925-2.168
						c-0.806,0.153-1.252,1.373-0.995,2.723C319.513,224.068,320.375,225.039,321.181,224.886z"/>
					<g>
						<path style="fill:#FFFFFF;" d="M320.449,224.884c-0.693,0-1.41-0.915-1.632-2.083c-0.12-0.631-0.087-1.251,0.093-1.745
							c0.173-0.471,0.457-0.767,0.803-0.833c0.049-0.009,0.097-0.014,0.146-0.014c0.694,0,1.411,0.915,1.632,2.083
							c0.244,1.281-0.157,2.437-0.895,2.578C320.546,224.879,320.499,224.884,320.449,224.884
							C320.45,224.884,320.45,224.884,320.449,224.884z"/>
						<path style="fill:#EBEBEB;" d="M319.858,220.335c0.635,0,1.299,0.87,1.51,1.981c0.227,1.193-0.138,2.306-0.796,2.431
							c-0.041,0.008-0.082,0.012-0.123,0.012c-0.635,0-1.299-0.87-1.51-1.981c-0.116-0.61-0.085-1.206,0.088-1.678
							c0.156-0.428,0.408-0.696,0.708-0.753C319.776,220.339,319.817,220.335,319.858,220.335 M319.858,220.085
							c-0.057,0-0.113,0.005-0.169,0.016c-0.806,0.153-1.252,1.373-0.995,2.723c0.239,1.257,1.001,2.184,1.755,2.184
							c0.057,0,0.113-0.005,0.169-0.016c0.806-0.153,1.252-1.373,0.995-2.724C321.375,221.013,320.612,220.085,319.858,220.085
							L319.858,220.085z"/>
					</g>
					<path style="fill:#38474F;" d="M315.787,222.197l3.906-0.743l0.001,0.008c0.35,0.001,0.704,0.432,0.815,1.016
						c0.111,0.584-0.06,1.115-0.386,1.245l0.001,0.008l-3.906,0.743L315.787,222.197z"/>
					<path style="fill:#EBEBEB;" d="M316.721,227.025c1.217-0.231,1.889-2.072,1.501-4.111s-1.688-3.504-2.905-3.273
						c-1.217,0.231-1.889,2.072-1.501,4.111C314.203,225.791,315.504,227.256,316.721,227.025z"/>
					<g>
						<path style="fill:#FFFFFF;" d="M315.953,227.021c-1.094,0-2.181-1.374-2.526-3.196c-0.184-0.964-0.133-1.911,0.144-2.667
							c0.267-0.734,0.714-1.194,1.258-1.297c0.077-0.015,0.154-0.022,0.232-0.022c1.094,0,2.181,1.373,2.526,3.195
							c0.374,1.968-0.254,3.747-1.401,3.964C316.108,227.014,316.031,227.021,315.953,227.021L315.953,227.021z"/>
						<g>
							<path style="fill:#EBEBEB;" d="M315.06,219.964c1.018,0,2.074,1.359,2.404,3.094c0.355,1.868-0.241,3.617-1.303,3.819
								c-0.069,0.013-0.139,0.02-0.209,0.02c-1.018,0-2.074-1.359-2.404-3.094c-0.355-1.868,0.241-3.617,1.303-3.819
								C314.921,219.971,314.99,219.964,315.06,219.964 M315.06,219.714c-0.086,0-0.171,0.008-0.256,0.024
								c-1.217,0.231-1.889,2.072-1.501,4.111c0.361,1.897,1.511,3.297,2.65,3.297c0.086,0,0.171-0.008,0.256-0.024
								c1.217-0.231,1.889-2.072,1.501-4.111C317.349,221.115,316.199,219.714,315.06,219.714L315.06,219.714z"/>
						</g>
					</g>
					<g>
						<path style="fill:#FFFFFF;" d="M292.703,225.688l22.176-4.203l0.039,0.005c0.591,0.003,1.202,0.787,1.392,1.787
							c0.191,1-0.09,1.954-0.639,2.173l-0.061,0.024l-22.149,4.198L292.703,225.688z"/>
						<path style="fill:#EBEBEB;" d="M314.862,221.615l0.055,0c0.467,0.002,1.07,0.633,1.271,1.686
							c0.2,1.053-0.129,1.861-0.564,2.034l-0.036,0.017l-22.028,4.175l-0.711-3.74L314.862,221.615 M314.914,221.351l-22.358,4.238
							l0.804,4.231l22.358-4.238l-0.003-0.015c0.605-0.241,0.923-1.228,0.716-2.313c-0.206-1.085-0.864-1.886-1.515-1.889
							L314.914,221.351L314.914,221.351z"/>
					</g>
					<path style="fill:#EBEBEB;" d="M293.361,229.82c0.697-0.133,1.082-1.187,0.86-2.356c-0.222-1.168-0.967-2.008-1.665-1.876
						c-0.697,0.133-1.082,1.187-0.86,2.356C291.918,229.113,292.664,229.952,293.361,229.82z"/>
					<g>
						<path style="fill:#FFFFFF;" d="M290.968,226.648l2.028-0.386l0.029,0.003c0.408,0.001,0.832,0.552,0.965,1.253
							c0.134,0.701-0.059,1.369-0.438,1.52l-0.041,0.017l-2.015,0.383L290.968,226.648z"/>
						<path style="fill:#EBEBEB;" d="M292.994,226.39l0.032,0c0.3,0.001,0.707,0.442,0.842,1.152
							c0.135,0.71-0.082,1.269-0.361,1.381l-0.023,0.011l-1.887,0.359l-0.484-2.545L292.994,226.39 M293.025,226.129l-2.204,0.419
							l0.577,3.036l2.203-0.419l-0.002-0.01c0.434-0.173,0.662-0.881,0.514-1.66c-0.148-0.779-0.62-1.353-1.087-1.355
							L293.025,226.129L293.025,226.129z"/>
					</g>
					<path style="fill:#EBEBEB;" d="M291.398,229.584c0.5-0.095,0.777-0.852,0.617-1.69c-0.159-0.838-0.694-1.441-1.194-1.346
						c-0.5,0.095-0.777,0.852-0.617,1.69C290.363,229.077,290.898,229.679,291.398,229.584z"/>
					<g>
						<polygon style="fill:#38474F;" points="291.132,228.222 285.474,229.333 285.82,229.014 291.083,227.978 						"/>
					</g>
					<g>
						<path style="fill:#7491E0;" d="M314.949,224.939c0.446-0.085,0.693-0.76,0.551-1.507c-0.142-0.748-0.619-1.285-1.065-1.2
							c-0.446,0.085-0.693,0.76-0.551,1.507C314.025,224.487,314.503,225.024,314.949,224.939z"/>
						
							<rect x="296.048" y="223.957" transform="matrix(0.9825 -0.1861 0.1861 0.9825 -36.6018 60.787)" style="fill:#7491E0;" width="18.808" height="2.756"/>
						<path style="fill:#94A9E4;" d="M313.137,223.203c-0.047-0.247,0.336-0.32,0.384-0.073
							C313.568,223.377,313.184,223.45,313.137,223.203z"/>
						<path style="fill:#94A9E4;" d="M314.456,223.775c-0.033-0.004-0.063-0.016-0.09-0.035c-0.029-0.018-0.051-0.041-0.066-0.07
							c-0.02-0.025-0.032-0.054-0.037-0.086c-0.001-0.021-0.003-0.041-0.004-0.062c0.003-0.044,0.017-0.084,0.042-0.121
							c0.015-0.016,0.029-0.033,0.044-0.049c0.033-0.028,0.07-0.046,0.113-0.054l0.013-0.003c0.032-0.007,0.063-0.006,0.093,0.003
							c0.033,0.004,0.063,0.016,0.09,0.036c0.029,0.018,0.051,0.041,0.066,0.07c0.02,0.025,0.032,0.054,0.037,0.086
							c0.001,0.021,0.002,0.042,0.004,0.062c-0.003,0.044-0.017,0.084-0.042,0.12c-0.015,0.016-0.029,0.033-0.044,0.049
							c-0.033,0.028-0.07,0.046-0.112,0.054l-0.013,0.003C314.517,223.784,314.486,223.783,314.456,223.775z"/>
						<path style="fill:#94A9E4;" d="M305.831,225.148c-0.033-0.004-0.063-0.016-0.09-0.036c-0.029-0.018-0.051-0.041-0.066-0.07
							c-0.019-0.025-0.032-0.054-0.036-0.086c-0.001-0.021-0.003-0.042-0.004-0.062c0.003-0.044,0.017-0.084,0.042-0.121
							c0.014-0.016,0.029-0.032,0.044-0.049c0.033-0.028,0.07-0.046,0.113-0.054l0.013-0.002c0.032-0.007,0.063-0.007,0.093,0.002
							c0.033,0.004,0.063,0.016,0.09,0.036c0.028,0.018,0.05,0.041,0.066,0.07c0.02,0.025,0.032,0.054,0.037,0.086
							c0.001,0.021,0.003,0.041,0.004,0.062c-0.003,0.044-0.017,0.084-0.042,0.12c-0.015,0.016-0.029,0.033-0.044,0.049
							c-0.033,0.028-0.07,0.046-0.112,0.054l-0.013,0.002C305.893,225.157,305.861,225.156,305.831,225.148z"/>
						<path style="fill:#94A9E4;" d="M300.962,226.193c-0.033-0.004-0.063-0.016-0.09-0.036c-0.029-0.018-0.051-0.041-0.066-0.07
							c-0.02-0.025-0.032-0.054-0.037-0.086c-0.001-0.021-0.003-0.041-0.004-0.062c0.003-0.044,0.017-0.084,0.042-0.121
							c0.015-0.016,0.029-0.032,0.044-0.049c0.033-0.028,0.07-0.046,0.113-0.054l0.013-0.003c0.032-0.007,0.063-0.006,0.093,0.003
							c0.033,0.004,0.063,0.016,0.09,0.035c0.029,0.018,0.05,0.041,0.066,0.07c0.02,0.025,0.032,0.054,0.036,0.086
							c0.001,0.021,0.003,0.042,0.004,0.062c-0.003,0.044-0.017,0.084-0.042,0.121c-0.015,0.016-0.029,0.032-0.044,0.049
							c-0.033,0.028-0.07,0.046-0.112,0.054l-0.013,0.003C301.024,226.202,300.993,226.201,300.962,226.193z"/>
						<path style="fill:#94A9E4;" d="M302.034,226.845c-0.033-0.004-0.062-0.016-0.09-0.036c-0.029-0.018-0.051-0.041-0.066-0.07
							c-0.02-0.025-0.032-0.054-0.036-0.086c-0.001-0.021-0.003-0.042-0.004-0.062c0.003-0.044,0.017-0.084,0.042-0.12
							c0.015-0.016,0.029-0.033,0.044-0.049c0.033-0.028,0.07-0.046,0.113-0.054l0.013-0.002c0.032-0.007,0.063-0.006,0.093,0.002
							c0.033,0.004,0.063,0.016,0.09,0.036c0.028,0.018,0.05,0.041,0.066,0.07c0.02,0.025,0.032,0.054,0.037,0.086
							c0.001,0.021,0.003,0.041,0.004,0.062c-0.003,0.044-0.017,0.084-0.042,0.121c-0.015,0.016-0.029,0.033-0.044,0.049
							c-0.033,0.028-0.07,0.046-0.112,0.054l-0.013,0.002C302.095,226.855,302.064,226.854,302.034,226.845z"/>
						<path style="fill:#94A9E4;" d="M313.544,224.826c-0.07-0.005-0.134-0.027-0.193-0.067c-0.026-0.023-0.052-0.047-0.078-0.07
							c-0.044-0.052-0.073-0.113-0.086-0.18l-0.003-0.013c-0.012-0.051-0.01-0.1,0.004-0.149c0.006-0.052,0.025-0.1,0.057-0.143
							c0.029-0.045,0.066-0.081,0.112-0.105c0.04-0.031,0.086-0.051,0.137-0.058c0.033-0.002,0.066-0.004,0.1-0.006
							c0.07,0.005,0.135,0.027,0.193,0.067c0.026,0.023,0.052,0.047,0.078,0.07c0.044,0.053,0.073,0.113,0.086,0.18l0.003,0.013
							c0.012,0.051,0.01,0.1-0.004,0.149c-0.006,0.052-0.025,0.1-0.057,0.143c-0.029,0.046-0.066,0.081-0.112,0.105
							c-0.04,0.031-0.086,0.051-0.137,0.059C313.61,224.822,313.577,224.824,313.544,224.826z"/>
						<path style="fill:#94A9E4;" d="M303.313,225.369c-0.07-0.005-0.134-0.027-0.193-0.067c-0.026-0.023-0.052-0.047-0.078-0.07
							c-0.044-0.052-0.073-0.112-0.086-0.18l-0.003-0.013c-0.012-0.051-0.01-0.1,0.004-0.149c0.006-0.052,0.025-0.1,0.057-0.143
							c0.029-0.046,0.066-0.081,0.112-0.105c0.04-0.031,0.086-0.051,0.137-0.058c0.033-0.002,0.066-0.004,0.1-0.006
							c0.07,0.005,0.134,0.027,0.193,0.067c0.026,0.023,0.052,0.047,0.078,0.07c0.044,0.053,0.073,0.113,0.086,0.18l0.003,0.013
							c0.012,0.051,0.01,0.1-0.004,0.149c-0.006,0.052-0.025,0.1-0.057,0.143c-0.029,0.046-0.066,0.081-0.112,0.105
							c-0.04,0.031-0.086,0.051-0.137,0.059C303.379,225.365,303.346,225.367,303.313,225.369z"/>
						<path style="fill:#94A9E4;" d="M296.47,228.44c0.446-0.085,0.693-0.76,0.551-1.507c-0.142-0.748-0.619-1.285-1.065-1.2
							c-0.446,0.085-0.693,0.76-0.551,1.507C295.547,227.987,296.024,228.524,296.47,228.44z"/>
					</g>
					<path style="opacity:0.5;fill:#FFF9FD;" d="M316.209,224.414L316.209,224.414c0.046,0.24-0.112,0.471-0.352,0.517
						l-20.786,3.939c-0.24,0.046-0.471-0.112-0.517-0.352l0,0c-0.046-0.24,0.112-0.471,0.352-0.517l20.786-3.939
						C315.932,224.017,316.163,224.174,316.209,224.414z"/>
				</g>
				<path style="fill:#263238;" d="M305.695,232.552c-1.014-0.762-3.227-12.827-2.437-14.141c0.703-1.168,3.773,0.851,5.258,6.568
					c0.381,1.466,1.603,2.564,3.083,2.885l9.82,2.135l-3.771,7.28L305.695,232.552z"/>
			</g>
			<path style="fill:#EBEBEB;" d="M352.168,236.036l0.102,27.124c0,0,33.943,1.513,41.266,0.793
				c7.323-0.72-1.156-53.115-3.169-58.189c-2.014-5.074-20.72-10.821-20.72-10.821l4.534,42.532L352.168,236.036z"/>
			<path style="fill:#DBDBDB;" d="M373.383,220.663c0.284-4.79,1.006-9.59,2.621-14.124c0.895-2.513,1.975-5.036,3.508-7.229
				c0.307-0.44-0.345-0.935-0.669-0.502c-1.425,1.904-2.73,3.861-3.751,6.015c-1.03,2.173-1.78,4.476-2.364,6.806
				c-1.296,5.168-1.473,10.432-1.302,15.732c0.092,2.843,0.168,5.781,0.606,8.608c-0.436,0.017-0.859,0.047-1.293,0.11
				c-0.464,0.068-0.916,0.139-1.375,0.234c-0.47,0.098-0.948,0.207-1.426,0.254c-0.286,0.028-0.277,0.47,0.007,0.5
				c0.464,0.048,0.923,0.159,1.38,0.251c0.462,0.093,0.914,0.179,1.381,0.248c0.469,0.069,0.919,0.116,1.394,0.134
				c0.389,0.015,0.773,0.009,1.154-0.042c0.846,0.372,1.789,0.605,2.643,0.921c1.082,0.399,2.152,0.824,3.172,1.365
				c2.038,1.08,3.882,2.68,5.386,4.417c0.163,0.188,0.463-0.039,0.309-0.239c-1.472-1.9-3.177-3.504-5.054-4.997
				c-0.929-0.74-1.9-1.439-2.938-2.018c-0.533-0.297-1.07-0.565-1.634-0.797c-0.568-0.233-1.19-0.503-1.808-0.545
				c0.063-2.292-0.108-4.614-0.15-6.898C373.129,226.129,373.221,223.394,373.383,220.663z"/>
			<path style="fill:#DBDBDB;" d="M360.762,237.654c-0.189,4.187-0.377,8.375-0.54,12.565c-0.08,2.049-0.063,4.106-0.063,6.156
				c0.001,2.135-0.044,4.241,0.389,6.343c0.124,0.599,0.928,0.576,1.047-0.014c0.418-2.081,0.367-4.16,0.357-6.272
				c-0.009-2.076-0.004-4.16-0.094-6.235c-0.182-4.184-0.389-8.368-0.598-12.55C361.248,237.363,360.775,237.368,360.762,237.654z"
				/>
		</g>
		<path style="fill:#263238;" d="M388.957,398.496c-5.758-0.058-11.421,1.126-16.991,2.533c-3.718-10.982-6.427-22.261-7.716-33.81
			c-1.462-13.105-1.246-26.365,0.443-39.437c0.952-7.37,3.465-20.25,5.519-27.393c0.098-0.342-0.428-0.478-0.534-0.14
			c-3.993,12.76-7.504,31.458-7.964,44.834c-0.459,13.347,0.855,26.754,3.844,39.769c1.291,5.62,2.893,11.158,4.868,16.569
			c-0.989,0.257-1.975,0.516-2.958,0.775c-0.824,0.217-0.483,1.4,0.33,1.26c1.07-0.184,2.144-0.348,3.22-0.506
			c0.424,1.115,0.836,2.234,1.293,3.336c0.31,0.745,1.599,0.226,1.319-0.537c-0.368-1.003-0.715-2.012-1.066-3.02
			c5.553-0.772,11.147-1.375,16.585-2.738C389.994,399.781,389.819,398.505,388.957,398.496z"/>
		<path style="fill:#263238;" d="M355.731,401.532c-4.86-0.174-9.77-0.219-14.656-0.055c-0.087-5.333-0.193-10.666-0.156-16.001
			c0.049-7.063,0.183-14.127,0.416-21.187c0.464-14.098,1.423-28.206,2.786-42.245c0.775-7.979,1.788-15.937,3.014-23.859
			c0.056-0.363-0.495-0.518-0.561-0.147c-2.471,13.959-4.587,28.008-5.961,42.12c-1.372,14.088-1.997,28.329-1.837,42.482
			c0.071,6.299,0.192,12.608,0.549,18.9c-1.547,0.069-3.093,0.152-4.631,0.272c-0.973,0.076-0.973,1.436,0,1.512
			c1.583,0.123,3.174,0.21,4.767,0.28c0.067,1.018,0.121,2.037,0.203,3.054c0.076,0.939,1.494,0.968,1.483,0
			c-0.011-0.999-0.027-1.998-0.042-2.997c4.876,0.162,9.775,0.118,14.625-0.056C357.066,403.557,357.067,401.58,355.731,401.532z"/>
		<path style="fill:#DBDBDB;" d="M393.705,262.414c-0.496,0.856-0.94,1.526-1.914,1.885c-1.081,0.398-2.337,0.244-3.461,0.163
			c-2.552-0.186-5.102-0.367-7.656-0.507c-2.568-0.141-5.138-0.227-7.71-0.238c-2.624-0.011-5.238,0.193-7.862,0.1
			c-0.433-0.016-0.422,0.631,0,0.666c2.838,0.234,5.634,0.788,8.466,1.094c2.868,0.31,5.739,0.521,8.617,0.703
			c1.41,0.089,2.821,0.152,4.233,0.215c1.317,0.059,2.652,0.174,3.964-0.016c1.831-0.266,4.524-1.563,4.496-3.754
			C394.871,262.098,394.021,261.869,393.705,262.414z"/>
		<path style="fill:#DBDBDB;" d="M394.498,268.989c-3.502,1.166-6.831,2.824-10.175,4.388c-3.364,1.573-6.741,3.122-10.116,4.668
			c-0.291,0.133-0.09,0.639,0.213,0.524c3.47-1.314,6.943-2.626,10.424-3.911c2.423-0.895,4.872-1.759,7.254-2.765
			c-1.41,1.612-3.066,2.994-4.957,4.05c-1.39,0.776-2.862,1.385-4.396,1.812c-1.607,0.447-3.181,0.496-4.82,0.688
			c-0.827,0.096-0.848,1.229,0,1.303c1.673,0.146,3.546-0.282,5.154-0.717c1.642-0.444,3.237-1.093,4.727-1.913
			c3.035-1.67,5.68-4.047,7.622-6.915C395.82,269.62,395.155,268.771,394.498,268.989z"/>
	</g>
	<line style="fill:none;stroke:#263238;stroke-miterlimit:10;" x1="64.902" y1="442.031" x2="439.258" y2="442.031"/>
	<g>
		<g>
			<path style="fill:#FFFFFF;" d="M277.214,186.329l-0.099-0.192c-1.854-3.646-2.474-7.71-1.789-11.752
				c1.55-9.151,9.401-15.794,18.667-15.794c1.061,0,2.134,0.091,3.189,0.27c10.306,1.745,17.27,11.55,15.525,21.856
				c-1.55,9.152-9.401,15.794-18.667,15.794c-1.062,0-2.135-0.09-3.19-0.27c-2.278-0.386-4.441-1.173-6.429-2.339l-0.193-0.114
				l-10.972,3.558L277.214,186.329z"/>
			<path style="fill:#EBEBEB;" d="M293.993,159.091c1.033,0,2.078,0.088,3.106,0.262c4.861,0.823,9.11,3.49,11.965,7.509
				c2.855,4.019,3.974,8.91,3.15,13.77c-1.509,8.91-9.153,15.378-18.174,15.378c-1.033,0-2.078-0.088-3.105-0.262
				c-2.218-0.376-4.324-1.142-6.259-2.278l-0.387-0.227l-0.427,0.139l-9.788,3.174l3.539-9.854l0.146-0.407l-0.196-0.385
				c-1.807-3.549-2.409-7.505-1.743-11.441C277.328,165.558,284.971,159.091,293.993,159.091 M293.993,158.091
				c-9.319,0-17.552,6.715-19.16,16.211c-0.725,4.28,0.009,8.469,1.837,12.062l-4.228,11.772l11.727-3.803
				c1.98,1.163,4.199,1.995,6.598,2.402c1.099,0.186,2.194,0.276,3.272,0.276c9.319,0,17.552-6.715,19.16-16.21
				c1.794-10.595-5.339-20.638-15.934-22.433C296.166,158.181,295.072,158.091,293.993,158.091L293.993,158.091z"/>
		</g>
		<g>
			<g>
				<g>
					<path style="fill:none;stroke:#38474F;stroke-miterlimit:10;" d="M305.27,171.054c-2.614,0-4.734-2.119-4.734-4.733l0,0h-6.154
						h-6.154l0,0c0,2.614-2.119,4.733-4.734,4.733l0,0v8.931c0,6.013,10.888,10.587,10.888,10.587l0,0h0
						c0,0,10.888-4.573,10.888-10.587V171.054L305.27,171.054z"/>
				</g>
			</g>
			<g>
				
					<rect x="288.623" y="177.686" transform="matrix(0.7071 0.7071 -0.7071 0.7071 212.509 -153.9733)" style="fill:#94A9E4;" width="6.992" height="3.703"/>
				
					<rect x="290.229" y="175.989" transform="matrix(-0.7071 0.7071 -0.7071 -0.7071 631.2699 94.2002)" style="fill:#94A9E4;" width="11.794" height="3.703"/>
			</g>
		</g>
	</g>
	<g>
		<g>
			
				<rect x="130.418" y="121.322" transform="matrix(0.0631 -0.998 0.998 0.0631 15.2535 264.8964)" style="fill:#F1F1F1;" width="36.601" height="6.002"/>
		</g>
		<g>
			
				<rect x="128.925" y="125.806" transform="matrix(0.0836 -0.9965 0.9965 0.0836 2.4676 260.2986)" style="fill:#F1F1F1;" width="27.657" height="6.003"/>
		</g>
		<g>
			
				<rect x="115.86" y="117.499" transform="matrix(0.056 -0.9984 0.9984 0.056 7.024 251.4293)" style="fill:#F1F1F1;" width="41.24" height="9.003"/>
		</g>
		<g>
			
				<rect x="112.257" y="122.878" transform="matrix(0.0689 -0.9976 0.9976 0.0689 -5.468 245.8987)" style="fill:#F1F1F1;" width="33.497" height="6.002"/>
		</g>
		<g>
			
				<rect x="112.055" y="112.591" transform="matrix(0.9916 -0.1291 0.1291 0.9916 -15.5033 16.1142)" style="fill:#F1F1F1;" width="9.002" height="30.123"/>
		</g>
		<g>
			
				<rect x="102.694" y="98.653" transform="matrix(0.9928 -0.1199 0.1199 0.9928 -13.7029 13.7283)" style="fill:#F1F1F1;" width="9.004" height="44.094"/>
		</g>
		<g>
			<polygon style="fill:#F1F1F1;" points="100.627,143.007 109.584,142.168 101.614,104.73 92.657,105.57 			"/>
		</g>
		<g>
			
				<rect x="88.816" y="102.02" transform="matrix(0.9916 -0.1297 0.1297 0.9916 -15.0882 13.1396)" style="fill:#F1F1F1;" width="9.003" height="40.739"/>
		</g>
		<g>
			<g>
				<g>
					<path style="fill:#7491E0;" d="M82.417,130.331c6.06-15.633,6.718-33.303,1.837-49.344c-1.63,17.052-4.068,34.027-7.302,50.849
						L82.417,130.331z"/>
					<path style="fill:#7491E0;" d="M73.334,126.491c-4.012-13.114-2.807-27.748,3.297-40.029
						c-4.596,13.434,5.858,28.396,1.882,42.026L73.334,126.491z"/>
					<path style="fill:#7491E0;" d="M100.299,94.604c-7.985,8.933-12.703,5.92-15.615,20.775c-0.588,2.998-3.567,14.109,0.28,13.749
						c3.871-0.361,5.29-11.879,7.256-17.596C94.869,103.825,98.054,100.193,100.299,94.604z"/>
					<path style="fill:#94A9E4;" d="M76.896,125.158c3.106-2.315,4.701-6.22,5.108-10.073c0.407-3.853-0.224-7.73-0.782-11.564
						c-0.557-3.834-1.041-7.753-0.343-11.565c0.785,6.254,4.843,10.982,6.565,17.045c1.706,6.005,0.56,12.755-3.031,17.86
						L76.896,125.158z"/>
					<path style="fill:#94A9E4;" d="M73.174,129.136c-5.183-9.626-8.001-21.717-4.318-37.181
						c3.677,10.457,9.029,36.451,9.029,36.451L73.174,129.136z"/>
				</g>
				<path style="fill:#EBEBEB;" d="M90.164,123.602l-1.531,9.83l-1.252,8.084c-0.104,0.662-0.678,1.156-1.347,1.156H71.715
					c-0.686,0-1.268-0.51-1.355-1.196l-2.32-17.907c-0.104-0.821,0.534-1.539,1.355-1.539h19.421
					C89.654,122.032,90.292,122.773,90.164,123.602z"/>
			</g>
		</g>
	</g>
	<g>
		<g>
			
				<rect x="65.746" y="161.293" transform="matrix(0.998 -0.0631 0.0631 0.998 -11.202 4.6989)" style="fill:#F1F1F1;" width="6.002" height="36.601"/>
		</g>
		<g>
			
				<rect x="71.712" y="170.249" transform="matrix(0.9965 -0.0836 0.0836 0.9965 -15.1197 6.8865)" style="fill:#F1F1F1;" width="6.003" height="27.657"/>
		</g>
		<g>
			
				<rect x="76.485" y="156.65" transform="matrix(0.9984 -0.056 0.056 0.9984 -9.8061 4.8166)" style="fill:#F1F1F1;" width="9.003" height="41.24"/>
		</g>
		<g>
			
				<rect x="85.46" y="164.4" transform="matrix(0.9976 -0.0689 0.0689 0.9976 -12.2784 6.5297)" style="fill:#F1F1F1;" width="6.002" height="33.497"/>
		</g>
		<g>
			
				<rect x="85.848" y="178.421" transform="matrix(0.1291 -0.9916 0.9916 0.1291 -93.5081 259.374)" style="fill:#F1F1F1;" width="30.123" height="9.002"/>
		</g>
		<g>
			
				<rect x="88.223" y="171.468" transform="matrix(0.1199 -0.9928 0.9928 0.1199 -77.6546 264.3381)" style="fill:#F1F1F1;" width="44.094" height="9.004"/>
		</g>
		<g>
			<polygon style="fill:#F1F1F1;" points="116.839,198.277 107.882,197.438 115.852,160 124.809,160.839 			"/>
		</g>
		<rect x="120.388" y="186.891" style="fill:#EBEBEB;" width="38.299" height="9.26"/>
		<rect x="124.809" y="178.797" style="fill:#EBEBEB;" width="28.754" height="8.094"/>
		<rect x="122.637" y="174.232" style="fill:#EBEBEB;" width="22.843" height="4.856"/>
		<g>
			
				<rect x="103.779" y="173.158" transform="matrix(0.1297 -0.9916 0.9916 0.1297 -68.1151 277.7127)" style="fill:#F1F1F1;" width="40.739" height="9.003"/>
		</g>
		<g>
			<rect x="60.742" y="195.168" style="fill:#F1F1F1;" width="101.255" height="6.971"/>
		</g>
	</g>
	<g>
		<rect x="60.742" y="139.898" style="fill:#F1F1F1;" width="101.255" height="6.971"/>
	</g>
	<g>
		<g>
			<path style="fill:#DBDBDB;" d="M203.67,213.236L203.67,213.236c-1.707,0-3.091-1.384-3.091-3.091v-11.351
				c0-1.707,1.384-3.091,3.091-3.091l0,0c1.707,0,3.091,1.384,3.091,3.091v11.351C206.761,211.852,205.377,213.236,203.67,213.236z"
				/>
			<path style="fill:#DBDBDB;" d="M212.436,204.47L212.436,204.47c0,1.707-1.384,3.091-3.091,3.091h-11.35
				c-1.707,0-3.091-1.384-3.091-3.091v0c0-1.707,1.384-3.091,3.091-3.091h11.35C211.052,201.379,212.436,202.763,212.436,204.47z"/>
		</g>
		<path style="fill:none;stroke:#EBEBEB;stroke-miterlimit:10;" d="M311.473,136.807h-2.584v-2.584c0-1.707-1.384-3.091-3.091-3.091
			c-1.707,0-3.091,1.384-3.091,3.091v2.584h-2.585c-1.707,0-3.091,1.384-3.091,3.091c0,1.707,1.384,3.091,3.091,3.091h2.585v2.585
			c0,1.707,1.384,3.091,3.091,3.091c1.707,0,3.091-1.384,3.091-3.091v-2.585h2.584c1.707,0,3.091-1.384,3.091-3.091
			C314.564,138.191,313.18,136.807,311.473,136.807z"/>
		<path style="fill:#EBEBEB;" d="M403.572,180.987h-2.585v-2.585c0-1.707-1.384-3.091-3.091-3.091c-1.707,0-3.091,1.384-3.091,3.091
			v2.585h-2.585c-1.707,0-3.091,1.384-3.091,3.091c0,1.707,1.384,3.091,3.091,3.091h2.585v2.585c0,1.707,1.384,3.091,3.091,3.091
			c1.707,0,3.091-1.384,3.091-3.091v-2.585h2.585c1.707,0,3.091-1.384,3.091-3.091C406.663,182.37,405.279,180.987,403.572,180.987z
			"/>
	</g>
</g>
</svg>
